<?xml version="1.0" standalone="no"?>
<!DOCTYPE svg PUBLIC "-//W3C//DTD SVG 20010904//EN"
 "http://www.w3.org/TR/2001/REC-SVG-20010904/DTD/svg10.dtd">
<svg version="1.0" xmlns="http://www.w3.org/2000/svg"
 width="640.000000pt" height="640.000000pt" viewBox="0 0 640.000000 640.000000"
 preserveAspectRatio="xMidYMid meet">
<metadata>
Created by potrace 1.15, written by Peter Selinger 2001-2017
</metadata>
<g transform="translate(0.000000,640.000000) scale(0.100000,-0.100000)"
fill="#000000" stroke="none">
<path d="M2221 6337 c-7 -10 -24 -17 -37 -17 -13 0 -24 -4 -24 -8 0 -11 -72
-46 -88 -43 -17 3 -72 -31 -72 -44 0 -10 -59 -41 -72 -37 -5 1 -8 -4 -8 -10 0
-7 -14 -24 -30 -38 -61 -50 -81 -70 -73 -70 4 -1 -3 -9 -16 -20 -12 -11 -27
-17 -32 -14 -5 3 -9 -8 -9 -24 0 -16 -9 -37 -19 -46 -11 -10 -25 -32 -32 -49
-7 -18 -16 -34 -20 -37 -5 -3 -5 -31 -2 -63 l6 -57 326 2 325 3 1 203 c0 159
-3 205 -13 211 -12 7 -12 12 0 31 10 18 10 24 1 27 -7 3 -13 16 -13 30 0 29
-25 52 -57 53 -12 0 -23 7 -25 17 -3 15 -4 15 -17 0z"/>
<path d="M2740 5745 c-2 -11 -4 -31 -5 -45 -2 -14 -6 -56 -10 -95 -4 -38 -8
-80 -9 -93 0 -12 -8 -27 -16 -32 -18 -11 -23 -62 -7 -72 8 -5 6 -8 -7 -8 -12
0 -16 -5 -12 -15 3 -8 -2 -18 -10 -23 -8 -5 -17 -23 -19 -42 -3 -18 -12 -41
-22 -52 -13 -14 -13 -18 -2 -13 24 9 46 -59 54 -161 6 -76 4 -93 -9 -107 -19
-18 -20 -27 -5 -27 14 0 39 -25 39 -39 0 -6 -9 -11 -19 -11 -11 0 -21 -6 -24
-12 -12 -33 -29 19 -48 143 -11 74 -22 141 -26 149 -8 22 -18 -17 -33 -144 -9
-77 -16 -103 -21 -88 -6 16 -17 22 -37 22 -16 0 -43 3 -59 6 -45 9 -57 -12
-78 -130 -10 -58 -22 -106 -26 -106 -9 0 -10 9 -12 78 -1 17 -4 32 -7 32 -6 0
-13 73 -12 128 0 12 -6 22 -14 22 -11 0 -14 -16 -14 -65 0 -37 4 -65 10 -65 6
0 10 -11 10 -25 0 -23 -2 -24 -21 -15 -11 7 -22 10 -24 8 -2 -2 -8 -32 -15
-68 -6 -36 -17 -85 -25 -109 -13 -43 -11 -71 6 -71 5 0 9 7 9 15 0 9 6 12 15
9 8 -4 12 -10 9 -15 -3 -5 0 -9 5 -9 6 0 11 7 11 15 0 23 47 19 55 -5 4 -11
11 -18 16 -15 5 3 6 -1 3 -9 -8 -21 6 -20 22 2 13 16 14 16 8 0 -3 -10 -1 -18
5 -18 6 0 11 1 11 3 5 107 15 203 22 205 5 2 4 10 -2 17 -6 8 -10 29 -7 47 l4
33 1 -37 c1 -21 6 -38 11 -38 7 0 21 46 25 82 1 4 6 12 13 19 11 11 24 -20 38
-91 2 -8 4 -19 6 -25 1 -5 5 10 9 35 5 31 8 3 10 -95 1 -77 2 -146 1 -152 -1
-7 8 -13 21 -13 13 0 30 -5 38 -10 10 -6 3 -8 -22 -3 -25 4 -38 2 -38 -6 0 -6
14 -11 31 -11 17 0 37 -7 45 -15 14 -13 0 -15 -125 -15 -131 0 -140 -1 -146
-20 -7 -22 2 -43 15 -35 4 3 6 -4 3 -15 -3 -11 0 -20 6 -20 6 0 11 5 11 11 0
5 5 7 10 4 6 -4 17 -1 25 5 8 7 20 10 27 7 9 -4 7 -6 -3 -6 -9 -1 -20 -9 -24
-18 -5 -15 -4 -16 6 -5 15 14 49 16 49 2 0 -5 5 -10 10 -10 6 0 10 7 10 15 0
21 10 19 38 -7 13 -13 23 -18 22 -13 -5 21 1 32 15 32 8 0 15 -6 15 -14 0 -9
8 -12 25 -9 14 3 25 0 25 -5 0 -6 4 -8 9 -4 6 3 15 -4 21 -15 10 -18 8 -20
-22 -21 -49 -2 -72 2 -85 13 -10 8 -13 6 -13 -6 0 -9 -8 -16 -19 -16 -11 0
-22 -6 -24 -12 -4 -9 -6 -8 -6 2 -1 9 -10 16 -21 16 -11 0 -20 -7 -21 -16 0
-10 -2 -11 -6 -2 -2 6 -10 9 -16 5 -6 -4 -8 0 -4 10 3 9 2 19 -3 22 -4 3 -10
0 -12 -6 -2 -5 -18 -11 -36 -11 -33 -1 -36 -5 -26 -32 8 -22 25 -20 18 2 -5
16 -5 16 6 -1 7 -10 22 -17 38 -16 15 1 39 -1 53 -5 16 -5 29 -3 34 3 4 8 12
8 27 0 13 -7 23 -7 27 -2 4 6 23 6 51 -1 l45 -11 8 -60 c4 -33 6 -104 5 -158
-2 -72 0 -97 10 -97 6 0 12 12 13 28 0 24 1 24 8 7 5 -11 7 -23 4 -27 -2 -5 1
-8 6 -8 6 0 11 8 12 18 0 10 3 12 6 5 18 -45 23 14 23 250 l0 264 45 -7 c47
-7 55 -1 55 42 0 11 -5 18 -12 15 -7 -2 -23 0 -35 4 -14 5 -23 4 -27 -4 -3 -9
-5 -9 -5 1 -1 6 -8 12 -17 12 -9 0 -14 6 -12 12 3 8 20 11 49 9 24 -2 56 -4
71 -5 19 -1 24 1 18 9 -5 6 -41 12 -80 12 -79 1 -89 5 -70 28 18 22 8 27 -25
15 -23 -9 -30 -8 -37 5 -5 8 -13 13 -19 10 -5 -4 -9 10 -9 29 0 24 -5 36 -14
36 -8 0 -16 7 -20 15 -7 18 5 20 22 3 9 -9 12 -8 12 5 0 20 11 22 28 5 9 -9
12 -9 12 -1 0 7 -9 15 -20 18 -11 3 -20 10 -20 14 0 5 -12 6 -26 3 -18 -3 -25
-1 -20 6 4 6 13 9 21 5 8 -3 15 0 15 6 0 6 5 11 11 11 5 0 7 -4 4 -10 -3 -5 1
-10 10 -10 14 0 14 3 -3 28 -17 23 -18 29 -6 40 13 12 18 8 15 -10 -2 -12 13
-10 26 3 8 8 9 2 4 -21 -3 -18 -4 -51 -2 -74 5 -40 5 -40 12 -11 7 29 7 29 8
-7 1 -26 6 -38 15 -38 8 0 17 -8 20 -17 2 -10 3 0 0 21 -2 22 -10 46 -17 55
-10 12 -9 14 5 8 20 -7 29 23 27 103 -1 96 3 245 8 257 8 21 23 15 23 -8 0
-17 3 -19 14 -10 11 9 15 9 19 -1 4 -10 6 -9 7 2 1 8 8 -1 15 -20 13 -34 13
-35 14 -7 1 16 5 26 11 22 14 -9 12 19 -2 33 -9 9 -9 12 0 12 21 0 14 58 -8
65 -16 5 -18 10 -10 31 13 33 13 31 -12 31 -61 1 -78 4 -78 14 0 7 23 9 67 6
78 -6 65 8 -17 18 -55 6 -105 25 -69 25 18 0 29 55 29 146 0 29 5 75 11 102 5
27 8 74 6 103 -2 30 -5 45 -7 34z"/>
<path d="M2938 5084 c-3 -5 -9 -40 -12 -79 -4 -38 -12 -97 -18 -130 -6 -33
-10 -73 -9 -89 1 -16 -3 -32 -8 -35 -5 -3 -7 -18 -4 -32 3 -19 10 -25 22 -22
13 3 18 17 20 53 1 27 6 63 11 82 6 18 11 46 11 63 2 26 2 27 5 5 2 -14 9 -50
15 -80 6 -30 13 -65 15 -77 2 -13 8 -23 12 -23 9 0 4 78 -8 105 -4 11 -14 67
-20 125 -13 109 -23 150 -32 134z"/>
<path d="M5790 4655 c-14 -8 -19 -14 -12 -15 20 0 14 -16 -12 -30 -14 -7 -32
-31 -41 -54 -9 -23 -22 -48 -29 -56 -6 -8 -13 -28 -15 -45 -2 -16 -6 -32 -10
-35 -4 -3 -13 -30 -20 -60 -7 -30 -22 -70 -32 -88 -10 -18 -19 -42 -19 -53 0
-10 -4 -19 -10 -19 -5 0 -13 -12 -16 -27 -4 -16 -16 -41 -28 -58 -12 -16 -28
-43 -36 -60 -8 -16 -22 -37 -30 -46 -32 -37 -40 -49 -40 -59 0 -6 -7 -13 -15
-16 -8 -4 -12 -10 -9 -15 3 -5 0 -9 -6 -9 -6 0 -16 -11 -22 -25 -6 -13 -20
-27 -31 -31 -14 -4 -16 -8 -7 -14 8 -5 4 -9 -12 -13 -13 -4 -32 -14 -43 -24
-33 -30 -158 -73 -172 -59 -4 4 -7 48 -5 97 1 67 -1 88 -10 83 -8 -5 -9 -2 -5
9 4 11 1 17 -7 17 -8 0 -17 6 -19 13 -3 7 -6 5 -6 -5 -1 -20 -16 -24 -26 -8
-3 6 -11 10 -16 10 -6 0 -7 -4 -4 -10 3 -5 -9 -9 -30 -8 -19 1 -35 5 -35 10 0
4 -6 8 -14 8 -8 0 -18 9 -21 20 -3 11 -10 20 -15 20 -20 0 -55 117 -100 338
-7 34 -16 62 -21 62 -4 0 -9 8 -11 17 -2 10 -19 -68 -37 -172 -28 -154 -41
-202 -67 -252 -29 -53 -32 -66 -24 -95 12 -38 13 -64 3 -55 -12 12 -34 -15
-23 -28 7 -8 2 -19 -15 -35 -18 -17 -23 -30 -19 -47 5 -20 3 -22 -12 -16 -11
4 -25 14 -32 22 -12 14 -13 12 -9 -11 5 -32 -8 -38 -18 -9 -6 18 -52 38 -63
26 -3 -3 2 -5 12 -5 10 0 14 -5 10 -12 -4 -6 -3 -9 2 -6 5 3 15 0 21 -8 14
-14 0 -30 -17 -19 -5 3 -10 -1 -10 -10 0 -9 5 -13 10 -10 6 3 10 2 10 -3 0 -5
15 -7 33 -5 24 3 29 2 17 -6 -13 -9 -12 -11 5 -12 11 -1 26 -1 33 0 23 3 12
-9 -28 -29 -22 -11 -46 -20 -53 -19 -26 3 -47 -2 -47 -11 0 -5 12 -10 28 -11
27 0 27 0 4 -12 -16 -7 -22 -17 -19 -29 7 -26 -12 -33 -29 -12 -15 18 -15 18
-11 -4 5 -21 3 -22 -31 -16 -21 4 -45 14 -55 22 -13 12 -20 13 -25 5 -5 -7
-13 -9 -21 -3 -8 4 -24 4 -37 0 -14 -6 -26 -5 -29 0 -4 6 -18 7 -32 4 -15 -4
-24 -3 -20 3 3 5 1 15 -4 23 -9 13 -10 13 -8 0 3 -27 -1 -40 -11 -40 -5 0 -10
10 -10 23 0 38 -14 51 -34 32 -21 -21 -20 -24 4 -18 20 5 20 5 -2 -33 -15 -26
-18 -39 -10 -42 18 -6 15 -22 -4 -22 -9 0 -31 15 -48 33 -37 40 -76 55 -171
67 -38 5 -99 16 -135 24 -36 9 -98 15 -138 16 -39 0 -71 3 -71 8 1 4 1 16 0
26 -1 20 -1 20 -16 0 -13 -17 -14 -17 -15 -1 0 11 -7 17 -22 16 -17 -1 -19 -2
-5 -6 9 -2 17 -11 17 -19 0 -8 7 -14 15 -14 8 0 15 -4 15 -10 0 -10 -21 -16
-88 -24 -42 -4 -43 -4 -26 15 18 20 29 26 19 9 -3 -6 5 -10 19 -10 14 0 28 4
31 10 3 6 -1 7 -9 4 -11 -4 -16 0 -16 11 0 11 -5 15 -14 12 -8 -3 -17 1 -20 9
-8 20 -23 17 -29 -6 -3 -11 -1 -20 5 -20 5 0 6 -5 3 -10 -5 -8 -12 -7 -23 2
-15 12 -16 11 -4 -4 8 -9 11 -21 8 -26 -3 -6 1 -15 9 -22 13 -11 8 -18 -36
-47 -28 -19 -53 -32 -56 -29 -3 3 -9 20 -13 38 l-7 33 -8 -37 c-7 -39 -30 -51
-38 -20 -2 9 -3 -2 -3 -25 1 -24 5 -43 9 -43 4 0 2 -6 -5 -14 -7 -7 -20 -11
-28 -9 -13 4 -13 4 0 -5 12 -9 12 -15 -3 -46 -25 -52 -56 -44 -42 12 5 21 8
23 16 11 7 -9 8 1 3 33 -7 54 11 122 31 114 10 -3 10 2 1 25 l-11 30 -13 -41
c-12 -36 -17 -41 -37 -36 -18 5 -24 1 -29 -20 -4 -14 -3 -31 3 -38 5 -6 12
-37 16 -69 l7 -57 -66 0 c-53 0 -66 -3 -66 -16 0 -8 4 -13 8 -10 5 3 8 -14 8
-37 l-1 -42 58 3 c38 3 57 0 57 -8 0 -6 -4 -8 -10 -5 -5 3 -10 1 -10 -5 0 -6
-5 -8 -12 -4 -8 5 -9 2 -5 -9 5 -13 1 -17 -21 -16 -24 0 -25 1 -7 9 11 5 15 9
8 9 -6 1 -18 4 -27 7 -11 4 -14 0 -11 -15 2 -12 -2 -21 -8 -22 -7 -1 -1 -5 13
-9 l25 -8 -26 -1 c-15 -1 -29 -7 -32 -14 -2 -7 -23 -22 -46 -32 -57 -28 -61
-45 -8 -45 l42 -1 -30 -24 -30 -25 58 0 c31 0 57 4 57 10 0 6 9 10 20 10 26 0
25 -14 -2 -50 -13 -18 -31 -30 -44 -30 -30 0 -33 -12 -28 -113 3 -65 1 -87 -8
-88 -7 -1 1 -5 17 -9 26 -7 22 -8 -23 -9 -49 -1 -52 -2 -42 -21 7 -14 8 -26 0
-39 -14 -27 -15 -27 35 -23 26 3 52 -1 60 -8 19 -16 19 -31 0 -24 -8 4 -23 3
-32 -1 -16 -7 -15 -9 5 -14 48 -12 26 -26 -45 -28 -40 -1 -73 0 -73 3 0 2 5
13 12 23 11 18 13 18 25 3 11 -14 11 -11 1 18 -19 60 -44 79 -50 38 -3 -20 -4
-21 -10 -6 -5 12 0 24 13 37 20 19 20 19 -13 46 -18 15 -28 29 -22 31 6 3 9
16 6 30 -3 19 -7 22 -18 13 -7 -6 -19 -7 -26 -3 -19 12 -60 5 -80 -13 -11 -10
-18 -12 -18 -5 0 7 5 12 10 12 13 0 13 77 0 85 -6 3 -7 18 -4 33 4 15 4 24 0
20 -4 -3 -21 -2 -38 2 -25 8 -29 7 -24 -6 3 -9 6 -18 6 -21 0 -3 7 0 15 7 9 8
15 9 15 2 0 -6 -4 -13 -9 -16 -5 -3 -12 -31 -16 -61 -5 -44 -10 -55 -25 -55
-19 0 -34 25 -31 52 1 9 -3 19 -8 22 -6 4 -7 14 -4 23 4 11 2 14 -8 11 -8 -2
-16 -15 -19 -29 -2 -13 -7 8 -10 46 -4 63 -7 70 -25 68 -11 -2 -48 -3 -82 -4
-79 -2 -72 -19 8 -19 62 0 70 -7 42 -35 -14 -14 -14 -21 -4 -37 9 -15 9 -23 0
-34 -6 -7 -9 -21 -5 -30 4 -11 -2 -10 -25 7 -17 12 -43 22 -58 24 -15 1 -33 5
-39 9 -7 4 -12 2 -12 -3 0 -21 -35 -11 -46 13 -9 18 -8 25 5 34 14 9 13 11 -6
11 -14 1 -23 -5 -23 -14 0 -8 -5 -15 -11 -15 -7 0 -9 -12 -5 -34 4 -19 1 -46
-6 -62 -11 -28 -14 -38 -17 -58 0 -6 -7 -2 -14 9 -13 17 -14 17 -19 -1 -7 -27
8 -64 27 -64 8 0 15 -9 15 -20 0 -20 -1 -20 -24 2 -13 13 -29 40 -36 61 -7 24
-21 42 -35 47 -13 5 -26 15 -29 22 -3 7 -4 3 -2 -9 5 -28 2 -29 -25 -2 -16 16
-23 18 -29 9 -13 -21 -15 4 -10 100 l5 91 -72 -3 c-39 -2 -69 -6 -67 -10 3 -4
28 -6 57 -5 29 1 53 -2 54 -8 1 -5 -7 -10 -17 -9 -16 0 -20 -6 -20 -31 0 -39
-20 -60 -40 -42 -10 9 -11 9 -6 0 4 -8 1 -13 -8 -13 -9 0 -16 -8 -16 -18 0
-10 -5 -23 -12 -30 -9 -9 -9 -12 0 -12 6 0 15 8 21 18 8 15 11 14 20 -11 17
-45 14 -63 -6 -38 -18 22 -18 22 -20 -14 -1 -19 3 -35 8 -35 5 0 10 -26 10
-57 1 -32 4 -48 6 -35 2 12 8 22 13 22 5 0 16 3 24 6 12 4 15 2 11 -9 -6 -15
21 -32 29 -18 3 4 19 6 36 3 20 -3 30 -10 32 -23 0 -11 1 -25 2 -31 1 -7 -6
-13 -14 -14 -8 -1 -32 -2 -52 -2 -26 -2 -38 -7 -41 -19 -3 -13 -5 -12 -6 5 0
13 -7 30 -15 37 -11 12 -15 6 -20 -36 -7 -51 0 -81 14 -60 3 7 14 9 23 5 23
-9 11 -24 -19 -24 -19 0 -24 -5 -24 -24 0 -31 -16 -42 -36 -25 -10 8 -14 22
-11 38 6 30 -16 80 -27 62 -4 -7 -3 -18 3 -25 6 -7 7 -16 2 -22 -5 -5 -11 -20
-13 -34 -2 -17 -10 -26 -25 -28 -26 -4 -25 -6 -28 63 -3 48 -2 51 23 53 38 3
40 12 3 12 -18 0 -30 4 -26 9 3 6 -18 9 -51 8 -51 -2 -57 0 -65 21 -5 13 -9
30 -9 38 0 25 52 12 81 -20 15 -17 31 -26 38 -22 6 4 9 11 6 16 -3 5 9 14 27
20 25 7 27 9 7 7 -22 -3 -25 -1 -21 17 3 12 10 24 16 28 8 5 7 8 -1 8 -7 0
-13 5 -13 11 0 5 4 8 9 5 5 -4 7 2 4 12 -2 11 3 26 11 35 9 8 16 20 16 25 0 5
10 12 22 16 18 4 20 8 10 18 -13 13 -16 29 -4 25 4 -1 7 3 7 8 0 6 -5 9 -12 7
-7 -2 -13 3 -13 10 0 8 10 15 22 15 24 2 51 30 42 44 -3 5 -14 9 -25 9 -15 0
-19 6 -17 31 3 26 -1 32 -20 35 -13 2 -21 0 -18 -4 3 -5 -17 -4 -45 2 -38 8
-52 7 -62 -3 -10 -11 -8 -12 10 -7 12 4 33 4 47 0 22 -5 25 -11 23 -39 -1 -18
-5 -31 -9 -29 -4 3 -10 -8 -14 -23 -3 -15 -8 -36 -11 -46 -3 -11 3 -20 17 -25
l22 -8 -27 -32 c-15 -18 -31 -30 -36 -26 -5 3 -10 -1 -11 -8 -1 -7 -4 14 -7
47 -6 56 -8 60 -33 63 -25 3 -28 7 -28 42 0 46 -21 70 -61 70 -17 0 -28 4 -25
9 6 10 -24 25 -32 16 -3 -3 0 -5 6 -5 7 0 12 -4 12 -10 0 -5 -10 -10 -22 -10
-46 0 -69 -12 -63 -31 4 -12 -1 -23 -14 -31 -12 -7 -21 -17 -21 -22 0 -4 7 -3
15 4 12 10 18 10 29 0 8 -6 25 -10 37 -8 27 4 38 28 13 28 -21 0 -10 13 13 16
19 3 43 -13 43 -28 0 -6 -6 -8 -14 -5 -17 7 -36 -11 -36 -35 0 -11 -10 -20
-27 -24 -16 -4 -33 -11 -39 -15 -6 -5 -19 -3 -30 6 -13 10 -16 17 -7 22 6 5
-16 8 -48 8 -59 0 -60 0 -54 -25 4 -14 11 -27 16 -28 5 -2 9 -8 9 -14 0 -19
-28 12 -34 38 -6 22 -9 24 -22 13 -13 -10 -20 -8 -41 13 -29 29 -24 55 7 36
11 -7 23 -9 27 -5 4 5 1 12 -7 17 -8 5 -12 12 -8 15 3 4 2 20 -4 36 -6 17 -13
28 -16 24 -3 -3 -16 5 -29 17 l-24 23 3 -157 c2 -86 -1 -154 -6 -151 -4 3 -6
-7 -4 -23 3 -16 3 -23 1 -16 -3 8 -28 12 -78 12 -41 0 -75 4 -77 10 -2 6 -44
13 -93 15 -90 4 -199 31 -201 50 0 6 -6 21 -12 35 l-11 25 0 -27 c-1 -26 -4
-28 -41 -28 -29 0 -40 4 -40 15 0 11 -12 15 -44 15 -40 0 -74 -19 -60 -33 4
-3 -6 -12 -22 -19 -16 -7 -31 -15 -34 -18 -3 -3 -18 -11 -33 -18 -15 -7 -26
-16 -23 -21 9 -13 -16 -20 -103 -27 -54 -5 -85 -3 -101 6 -16 9 -19 14 -10 20
10 6 8 10 -6 18 -11 5 -25 7 -31 5 -7 -3 -13 2 -13 11 0 9 -4 16 -10 16 -5 0
-9 3 -8 8 1 4 -12 23 -30 42 -25 27 -32 43 -32 74 0 25 -6 43 -17 52 -17 13
-17 13 0 14 11 0 17 8 17 24 0 17 12 34 33 50 30 23 43 26 120 26 48 0 87 -4
87 -8 0 -14 60 -44 76 -38 8 3 34 -3 57 -14 36 -18 54 -20 123 -14 75 6 83 9
123 46 24 21 56 42 72 45 26 5 33 12 38 38 4 17 34 46 64 61 15 8 25 19 22 23
-7 12 34 61 51 61 8 0 14 9 14 21 0 11 9 32 20 46 14 18 17 30 10 43 -6 10 -6
30 0 51 8 30 19 178 20 264 0 16 7 40 16 52 8 13 12 29 8 36 -4 7 -3 9 1 4 10
-9 38 51 30 64 -3 5 1 22 10 38 8 17 15 39 15 50 0 32 32 93 65 123 l30 27
-32 1 c-23 0 -33 5 -33 15 0 8 5 15 10 15 6 0 24 13 40 29 24 22 30 37 30 70
0 26 -4 40 -10 36 -6 -3 -10 -1 -10 4 0 6 5 11 10 11 6 0 10 70 10 190 l0 190
-240 0 c-185 0 -240 -3 -240 -12 0 -7 -18 -22 -40 -32 -22 -11 -40 -26 -40
-34 0 -8 -11 -25 -25 -38 -14 -13 -25 -32 -25 -44 0 -11 -7 -23 -15 -26 -10
-4 -15 -20 -15 -49 0 -24 -4 -46 -9 -49 -20 -13 -29 -111 -35 -381 -6 -250 -4
-233 -22 -266 -7 -15 -14 -37 -14 -48 0 -11 -9 -22 -19 -26 -11 -3 -22 -12
-25 -20 -3 -8 -20 -22 -37 -31 -18 -9 -39 -22 -46 -29 -20 -21 -206 -38 -325
-31 l-108 6 0 -1531 0 -1531 43 5 c89 11 258 73 241 89 -3 4 5 9 17 13 26 9
99 81 99 99 0 7 9 21 19 33 29 31 52 80 45 97 -4 9 -1 23 6 31 29 36 -6 267
-51 336 -9 13 -20 39 -23 57 -4 17 -11 32 -16 32 -4 0 -13 14 -19 30 -5 17
-15 30 -20 30 -6 0 -18 15 -27 33 -10 17 -31 49 -48 70 -27 35 -30 44 -31 115
l0 77 45 46 c62 63 106 76 170 51 109 -41 350 -56 350 -21 0 5 15 9 34 9 18 0
39 6 45 14 7 8 27 17 46 20 19 4 35 11 35 16 0 6 10 10 23 10 12 0 31 7 41 15
11 8 37 15 58 15 24 0 38 5 38 13 0 8 15 13 40 14 22 1 40 -2 40 -7 0 -6 8 -9
18 -8 62 5 62 5 62 -91 l0 -88 44 -6 c56 -8 111 13 119 45 4 16 24 32 61 50
l54 27 -30 117 c-28 106 -29 118 -14 126 9 5 14 14 11 19 -4 5 -10 7 -15 4
-11 -7 -24 39 -17 59 4 10 -5 16 -31 21 -32 6 -87 30 -102 45 -3 3 -22 13 -43
22 -31 15 -37 23 -37 49 l0 30 53 -6 53 -7 -9 78 c-5 42 -6 92 -3 109 6 30 67
105 86 105 4 0 20 -14 35 -32 21 -25 25 -38 20 -65 -6 -35 4 -43 25 -18 22 26
29 16 24 -32 -4 -30 0 -63 9 -90 9 -22 13 -44 10 -47 -4 -3 -1 -6 5 -6 6 0 14
20 17 44 10 66 36 67 69 2 25 -50 25 -50 26 -19 0 17 -5 44 -10 59 -7 18 -7
31 -1 37 5 5 7 23 4 38 l-5 29 80 0 c80 0 81 0 85 -27 4 -28 4 -28 12 -5 6 18
10 20 16 10 7 -10 9 -9 9 4 0 26 18 31 30 8 13 -25 2 -93 -14 -87 -6 2 -11 10
-10 18 1 9 -9 14 -27 14 -15 1 -25 -3 -23 -7 10 -16 -26 -20 -76 -9 -56 12
-72 8 -63 -14 3 -11 21 -15 57 -15 29 0 57 -5 63 -11 8 -8 21 -8 47 1 20 6 48
11 63 10 46 -3 63 -1 63 10 0 6 -12 10 -26 10 -14 0 -23 4 -19 10 3 6 1 10 -4
10 -17 0 -12 33 8 57 16 20 30 23 112 25 l94 3 10 50 c13 60 38 120 56 130 9
6 11 3 6 -9 -4 -10 -10 -36 -13 -59 -3 -23 -7 -56 -10 -74 -4 -25 -1 -33 16
-38 12 -4 20 -14 19 -23 -3 -34 1 -53 11 -47 13 8 42 -20 32 -30 -4 -5 1 -5
10 -2 10 4 18 2 18 -5 0 -14 153 -2 158 12 2 6 8 8 13 4 20 -12 27 8 12 37
-14 28 -14 35 1 74 10 24 18 69 19 99 1 31 4 56 7 56 3 0 19 -9 37 -19 21 -13
33 -31 38 -53 4 -18 11 -37 15 -43 5 -5 12 -26 17 -45 7 -27 15 -35 31 -34 20
1 22 -3 16 -35 -4 -20 -6 -40 -5 -46 1 -5 5 -46 9 -90 l7 -80 15 45 c8 25 14
48 12 53 -1 4 7 7 18 7 11 0 20 -6 21 -12 0 -7 5 -1 11 15 14 39 28 33 28 -12
0 -41 55 -230 73 -246 7 -7 8 -4 3 10 -24 62 -45 136 -48 165 -2 25 1 34 14
36 10 1 20 -2 24 -7 11 -18 26 -9 21 13 -11 42 41 108 151 192 11 8 13 -4 8
-67 -2 -42 -10 -86 -16 -97 -7 -12 -27 -81 -45 -153 l-33 -132 36 -43 c66 -78
112 -137 112 -144 0 -5 -10 -8 -21 -8 -12 0 -36 -15 -53 -33 -17 -18 -56 -43
-86 -56 -30 -13 -75 -41 -100 -62 -26 -22 -53 -39 -61 -39 -8 0 -21 -6 -27
-12 -10 -10 -15 -10 -21 1 -5 7 -14 11 -20 7 -6 -4 -19 -2 -30 4 -13 6 -22 7
-26 0 -3 -5 -28 -8 -55 -7 -31 2 -50 -1 -51 -7 -1 -6 -5 0 -9 14 -6 20 -8 14
-8 -25 -1 -37 2 -45 8 -30 6 14 9 16 10 5 2 -8 2 -18 2 -21 -1 -4 8 -5 18 -2
28 7 25 2 -18 -44 -42 -45 -66 -57 -80 -40 -16 21 -8 201 10 228 8 13 19 40
22 59 13 61 37 130 47 130 5 0 9 -24 10 -52 0 -44 2 -49 11 -32 5 12 20 26 33
32 16 8 24 21 27 49 3 21 2 43 -3 48 -5 7 4 9 28 7 23 -3 33 -1 29 6 -3 6 0
13 6 15 7 3 3 6 -9 6 -13 1 -23 6 -23 12 0 8 17 10 53 5 l52 -6 -37 14 c-57
21 -113 10 -101 -19 3 -8 0 -15 -6 -15 -6 0 -11 8 -12 18 0 9 -2 13 -5 7 -2
-6 -32 -9 -68 -7 -50 3 -64 7 -60 17 3 8 15 16 27 18 22 4 22 4 0 6 -25 1 -32
21 -8 21 8 0 15 5 15 10 0 6 -19 11 -42 12 l-43 1 38 4 c20 2 37 9 37 14 0 6
-19 7 -49 3 -27 -3 -51 -2 -54 3 -3 5 2 9 11 9 69 0 112 5 112 14 0 5 -21 7
-50 3 -34 -4 -50 -2 -50 6 0 6 15 11 33 11 24 0 28 3 17 10 -8 5 -25 10 -38
10 -13 0 -21 4 -18 9 3 5 36 9 72 9 36 0 68 3 72 6 3 3 -9 6 -26 6 -18 0 -32
5 -32 10 0 6 9 10 21 10 30 0 18 24 -17 31 -29 7 -29 7 6 8 34 2 34 3 10 12
l-25 10 28 16 c36 18 29 27 -9 12 -16 -6 -84 -11 -150 -11 l-121 -1 -11 -41
c-15 -54 -59 -188 -84 -253 -11 -29 -17 -57 -14 -62 4 -5 2 -12 -4 -16 -5 -3
-10 -33 -10 -65 0 -97 41 -152 48 -65 2 25 11 44 23 53 10 7 19 20 19 28 0 8
9 14 19 14 34 0 71 -158 71 -300 0 -49 7 -124 15 -167 8 -43 15 -81 15 -85 0
-5 -17 -8 -37 -8 -39 0 -103 19 -103 31 0 4 -20 7 -45 6 -25 0 -45 -5 -45 -11
0 -7 -3 -8 -8 -1 -7 10 -17 13 -86 22 -31 4 -43 1 -54 -13 -13 -18 -13 -18
-10 1 2 16 -2 19 -22 17 -20 -3 -22 -2 -12 10 10 12 7 17 -14 26 -32 15 -47
15 -38 1 5 -8 -8 -9 -45 -4 -35 5 -51 3 -51 -4 0 -8 -17 -10 -51 -7 -36 3 -49
2 -45 -7 3 -7 9 -20 12 -29 7 -21 20 -23 27 -5 4 9 8 9 15 -2 7 -9 7 -20 0
-31 -14 -22 -4 -50 17 -50 9 0 23 -7 31 -15 9 -8 25 -15 37 -16 12 0 29 -3 37
-5 8 -2 58 -12 111 -22 53 -9 102 -22 110 -28 8 -6 38 -19 67 -28 28 -10 52
-21 52 -24 0 -4 -11 -19 -25 -34 -34 -37 -126 -180 -164 -255 l-31 -63 -210 0
c-125 0 -210 -4 -210 -9 0 -15 38 -38 92 -58 26 -9 48 -20 48 -25 0 -4 17 -10
38 -14 20 -4 40 -12 44 -17 8 -13 149 -15 197 -4 47 11 162 69 168 85 3 6 11
12 19 12 8 0 14 7 14 15 0 13 40 15 298 15 249 -1 294 -3 280 -14 -10 -7 -18
-22 -18 -33 0 -11 -16 -29 -39 -43 -21 -14 -37 -28 -34 -33 2 -4 -23 -20 -57
-36 -34 -16 -70 -37 -80 -46 -9 -9 -30 -18 -46 -21 -16 -3 -30 -9 -32 -14 -2
-5 -20 -12 -40 -15 -76 -12 -84 -16 -78 -30 3 -8 2 -14 -2 -14 -35 6 -83 -4
-102 -21 -13 -11 -29 -20 -37 -20 -7 0 -13 -4 -13 -10 0 -5 -3 -9 -7 -8 -18 6
-73 -26 -73 -42 0 -9 -18 -30 -40 -45 -23 -16 -36 -31 -30 -35 6 -3 -7 -25
-31 -51 -23 -24 -55 -59 -72 -77 l-30 -32 2262 0 2261 0 0 990 c0 653 -3 990
-10 990 -5 0 -10 9 -10 20 0 11 -7 20 -15 20 -8 0 -15 5 -15 10 0 6 7 10 15
10 8 0 15 9 15 20 0 12 -7 20 -16 20 -8 0 -23 7 -32 16 -15 15 -15 16 5 10 15
-5 22 -2 26 14 4 14 11 18 24 14 15 -5 16 -4 3 6 -11 9 -12 13 -2 17 9 4 12
239 12 1128 l0 1124 -47 6 c-56 7 -111 19 -168 35 -22 6 -52 14 -67 17 -15 3
-26 9 -23 13 3 4 -8 10 -24 13 -17 4 -30 14 -34 26 -3 12 -12 21 -21 21 -9 0
-16 6 -16 13 0 14 -50 55 -90 74 -15 7 -19 12 -10 13 24 1 -32 29 -60 29 -14
0 -36 -6 -50 -14z m-880 -1086 c0 -4 7 -10 16 -13 15 -6 15 -4 3 10 -22 27
-21 50 2 25 14 -15 21 -39 23 -83 2 -35 7 -99 10 -143 16 -221 17 -263 6 -270
-6 -4 -17 -2 -25 5 -11 9 -12 7 -8 -11 5 -18 3 -20 -16 -14 -13 4 -29 1 -39
-6 -9 -8 -7 -2 6 13 21 23 23 34 21 124 l-2 99 -36 34 c-36 34 -36 34 -3 12
l32 -22 0 105 c0 106 0 106 -25 106 -28 0 -75 19 -75 31 0 4 19 9 43 11 31 2
41 7 39 18 -1 10 2 9 13 -4 8 -11 15 -23 15 -27z m-967 -298 c6 -6 18 -11 27
-11 9 0 35 -14 58 -31 24 -17 46 -29 49 -25 3 3 17 -10 31 -30 25 -38 35 -100
19 -121 -6 -9 -6 -13 0 -13 6 0 10 -17 9 -39 0 -21 6 -46 14 -56 15 -19 21
-55 8 -55 -4 0 -8 -7 -8 -15 0 -21 -17 -19 -47 5 -14 11 -30 17 -36 13 -6 -4
-58 -6 -114 -4 -85 1 -104 -1 -109 -13 -3 -9 -20 -23 -37 -31 -29 -14 -33 -14
-43 0 -6 8 -21 15 -33 15 -12 0 -24 7 -27 15 -4 8 -10 12 -15 9 -12 -7 -51 39
-65 79 -13 35 6 79 41 96 17 8 18 10 3 10 -29 1 -20 18 13 25 26 5 29 9 23 28
-4 13 -7 31 -6 40 0 10 -4 20 -9 23 -14 9 0 25 16 18 10 -3 15 1 15 12 0 11
-5 15 -15 11 -9 -3 -15 0 -15 10 0 12 6 15 24 10 16 -4 30 0 40 9 8 8 21 15
30 15 8 0 17 4 21 10 7 12 124 5 138 -9z m-137 -503 c4 -6 10 -25 13 -41 4
-19 13 -31 25 -33 25 -4 33 -14 11 -14 -38 0 19 -41 88 -64 27 -9 116 14 135
34 9 10 30 22 46 26 16 4 31 15 33 25 3 10 11 20 19 23 11 4 14 -6 15 -42 1
-26 5 -60 9 -77 l8 -30 1 35 c1 25 4 31 10 20 12 -18 2 -231 -11 -247 -5 -6
-16 -9 -23 -7 -11 5 -12 0 -3 -23 13 -35 1 -141 -13 -108 -4 11 -8 27 -8 35
-1 13 0 13 9 0 7 -11 10 -5 10 23 0 54 -15 79 -44 71 -17 -4 -36 3 -66 25 -24
17 -49 31 -56 31 -7 0 -22 12 -33 26 -12 15 -21 23 -21 18 0 -4 -5 -3 -12 4
-18 18 -24 15 -23 -15 0 -23 -4 -28 -25 -28 -14 0 -35 -4 -48 -9 -25 -8 -80
12 -101 37 -6 8 -10 36 -9 63 1 27 -1 86 -5 131 -9 93 0 123 38 123 13 0 27
-5 31 -12z m1194 -106 c0 -9 55 -35 98 -47 19 -6 22 -13 21 -58 0 -39 -2 -47
-9 -31 -10 25 -40 40 -40 20 0 -8 4 -16 10 -18 5 -1 16 -31 24 -66 8 -34 11
-60 6 -57 -12 8 -19 -32 -7 -44 14 -14 2 -14 -26 0 -22 10 -22 10 1 -10 24
-21 22 -25 -20 -35 -21 -5 -31 -2 -40 14 -7 11 -16 20 -21 20 -4 0 -25 19 -47
42 -44 49 -58 93 -35 118 9 9 13 24 10 32 -3 8 1 21 10 28 8 7 15 19 15 26 0
8 7 14 15 14 8 0 15 7 15 16 0 8 -4 13 -9 9 -5 -3 -12 -1 -16 5 -3 5 1 10 10
10 9 0 13 5 10 10 -3 6 1 10 9 10 9 0 16 -4 16 -8z m-1447 -103 c14 -23 2 -61
-30 -93 -22 -22 -32 -26 -57 -20 -17 3 -37 11 -44 17 -7 5 -15 7 -19 3 -10
-10 -43 25 -43 46 0 42 53 68 134 65 32 -1 52 -7 59 -18z m481 -266 c26 -24
53 -43 61 -43 22 0 26 -15 9 -38 -17 -24 -44 -19 -44 8 0 42 -22 48 -170 46
-77 -1 -140 -1 -140 1 0 1 25 18 54 37 30 19 63 48 73 63 27 42 31 43 72 4 21
-20 59 -55 85 -78z m466 -5 c0 -42 19 -148 40 -218 5 -19 10 -45 10 -58 0 -31
29 -92 47 -99 8 -3 25 0 39 7 28 16 32 13 48 -35 9 -24 10 -51 5 -78 -6 -34
-2 -62 22 -142 17 -55 39 -107 49 -115 10 -8 21 -31 24 -51 4 -21 13 -42 21
-49 7 -6 17 -26 20 -43 4 -18 16 -46 26 -64 17 -26 18 -38 9 -75 -5 -23 -10
-85 -10 -135 0 -51 -4 -93 -9 -93 -11 0 -21 25 -21 51 0 52 -109 318 -148 363
-27 30 -113 81 -162 95 -76 22 -102 34 -92 40 6 4 0 45 -15 101 -13 52 -29
115 -34 140 -26 118 -31 135 -42 142 -7 4 2 8 21 8 17 0 32 5 32 10 0 6 6 10
14 10 21 0 24 20 13 83 -6 36 -15 57 -24 57 -11 0 -11 4 -1 19 10 16 9 23 -5
38 -15 18 -15 21 4 53 27 45 68 79 97 80 19 0 22 -5 22 -42z m188 -33 c4 -93
-4 -137 -26 -134 -32 3 -55 -1 -48 -8 4 -5 16 -9 27 -9 10 -1 24 -2 29 -3 17
-2 11 -44 -9 -68 -25 -29 -27 -29 -46 8 -13 25 -15 54 -12 157 3 70 6 128 6
130 1 2 18 2 39 0 l37 -3 3 -70z m411 8 c5 -132 -8 -205 -30 -172 -8 12 -12
11 -24 -5 -8 -10 -16 -24 -18 -30 -2 -6 -8 -7 -13 -3 -5 4 -4 11 2 15 19 13
25 42 8 42 -8 0 -12 5 -9 10 3 6 1 10 -6 10 -7 0 -9 9 -5 28 4 15 8 42 9 61 2
28 7 35 37 46 48 17 49 17 49 -2z m-1209 -46 c0 -4 6 -5 13 -1 8 5 7 2 -2 -9
-19 -24 -7 -32 21 -13 28 20 68 21 68 1 0 -8 10 -23 21 -34 16 -15 20 -28 17
-55 -2 -20 -1 -36 3 -36 3 0 2 -20 -4 -45 -6 -25 -13 -43 -15 -40 -3 3 -13
-13 -23 -34 -26 -59 -63 -74 -171 -69 -87 4 -89 5 -128 43 l-40 39 31 13 c17
7 42 13 55 13 13 0 24 3 24 8 0 4 19 13 43 20 60 19 83 36 96 73 l11 31 -33
-8 c-48 -12 -149 -12 -174 -1 -23 10 -32 47 -12 47 5 0 7 5 4 10 -19 31 25 66
51 40 8 -8 14 -7 22 3 13 15 122 19 122 4z m228 -283 c9 -58 11 -119 6 -174
-8 -92 -10 -89 -35 38 -10 51 -14 60 -22 46 -6 -11 -6 -34 2 -68 10 -45 10
-52 -6 -63 -21 -16 -33 -17 -33 -2 0 5 -4 8 -9 5 -16 -10 -18 18 -6 130 10
101 14 115 40 147 17 19 35 34 40 33 6 -1 16 -43 23 -92z m207 -89 c20 -61 39
-141 42 -179 6 -67 6 -68 -15 -57 -11 6 -36 11 -54 12 -61 1 -121 22 -125 44
-4 25 -5 161 -1 235 4 71 12 83 54 78 26 -3 34 0 34 12 1 27 26 -30 65 -145z
m733 -35 c5 -47 -14 -107 -36 -113 -9 -2 -26 -8 -37 -13 -14 -5 -10 1 10 19
17 14 25 27 18 27 -6 0 -15 -4 -18 -10 -3 -5 -11 -10 -17 -10 -7 0 -6 6 2 15
8 9 9 15 2 15 -6 0 -14 -4 -17 -10 -3 -5 -12 -10 -18 -10 -8 0 -7 3 2 9 11 7
10 10 -4 12 -18 4 -18 5 -1 22 14 13 14 17 3 17 -19 0 -29 36 -13 49 16 13 46
19 86 18 32 -2 35 -5 38 -37z m-1019 -215 c11 -25 21 -63 21 -85 0 -21 8 -55
17 -75 16 -34 16 -36 -4 -63 -36 -48 -76 -64 -161 -65 -80 -1 -131 12 -255 67
-53 24 -56 27 -45 46 7 11 16 20 21 20 4 0 5 -5 1 -12 -4 -6 -3 -8 4 -4 6 3
13 19 17 35 3 16 17 38 30 51 l23 22 47 -28 c26 -15 63 -32 82 -39 30 -10 39
-21 54 -60 33 -86 40 -79 39 40 0 135 3 159 19 179 28 33 41 19 41 -44 0 -33
4 -60 8 -60 5 0 8 29 6 65 -1 36 1 63 6 60 4 -3 17 -25 29 -50z m-1606 18 c3
-15 3 -98 -1 -185 l-5 -158 -35 -37 -36 -36 -17 89 c-31 159 -21 235 42 315
36 46 45 48 52 12z m2968 -350 c33 -16 53 -42 50 -65 -1 -5 4 -8 9 -8 6 0 10
-6 10 -13 0 -7 11 -24 25 -39 14 -15 25 -32 25 -37 0 -6 11 -22 24 -37 51 -56
56 -65 56 -88 0 -13 7 -29 15 -36 28 -24 65 -103 65 -141 0 -21 4 -41 10 -44
14 -9 5 -235 -15 -350 -2 -11 -4 -24 -4 -28 -1 -5 -5 -6 -10 -3 -4 3 -16 -3
-26 -14 -10 -11 -24 -20 -31 -20 -7 0 -10 -9 -7 -22 3 -13 1 -19 -4 -13 -4 6
-20 16 -35 22 -22 10 -28 10 -28 0 0 -8 -2 -9 -8 -1 -7 12 -133 61 -142 56 -3
-2 -7 7 -10 20 -3 13 -10 23 -15 24 -6 0 -23 6 -38 12 -16 7 -34 12 -40 12 -7
0 -20 7 -30 14 -14 11 -15 15 -5 19 7 3 1 6 -14 6 -14 1 -28 5 -30 11 -1 5
-17 11 -34 13 -17 2 -44 13 -58 25 -15 12 -36 24 -47 27 -10 4 -19 10 -19 14
0 4 -24 13 -52 20 -29 6 -64 18 -78 26 -24 14 -24 14 23 15 l47 0 0 58 c0 32
-4 62 -9 68 -38 40 -72 156 -50 170 5 3 9 14 9 24 0 10 9 22 20 25 34 11 62
46 48 62 -12 15 -20 63 -10 63 4 0 13 -18 20 -41 10 -33 10 -43 -2 -61 -13
-18 -12 -23 10 -47 13 -14 24 -31 24 -38 0 -6 4 -14 9 -17 5 -4 7 4 4 16 -5
21 -2 20 21 -7 14 -16 25 -33 26 -37 0 -5 5 -8 10 -8 6 0 10 55 10 145 0 121
2 145 15 145 8 0 19 9 25 20 6 11 17 20 25 20 8 0 15 6 15 13 0 8 18 22 40 32
22 10 40 22 40 27 0 15 82 8 121 -9z"/>
<path d="M2890 4546 c0 -19 -4 -37 -9 -41 -9 -5 -8 -30 4 -82 3 -14 1 -23 -6
-23 -8 0 -8 -4 1 -15 17 -20 51 -20 44 0 -4 8 -3 26 0 40 5 18 13 25 32 25 14
0 23 4 20 9 -3 5 1 12 10 15 11 4 15 2 11 -8 -3 -7 -8 -35 -12 -62 -4 -27 -13
-59 -21 -71 -12 -20 -11 -22 16 -32 27 -9 30 -14 29 -48 -2 -29 -3 -31 -6 -11
-4 23 -9 26 -41 26 -58 0 -62 1 -62 18 0 8 -7 22 -15 30 -17 17 -13 31 -50
-165 -14 -74 -30 -140 -35 -146 -6 -7 -7 -15 -3 -18 3 -4 2 -7 -3 -7 -6 0 -17
-16 -24 -36 -14 -34 -15 -35 -65 -32 l-50 3 0 -70 c0 -69 -1 -70 -30 -82 -18
-7 -23 -12 -12 -12 9 -1 17 -5 17 -11 0 -5 6 -9 13 -7 8 1 13 -17 15 -63 3
-82 3 -82 32 -87 14 -2 29 -8 34 -13 5 -5 -1 -7 -15 -4 -20 4 -20 3 4 -7 15
-6 27 -15 27 -20 0 -5 7 -9 15 -9 13 0 14 -2 3 -14 -7 -8 -14 -10 -16 -5 -2 5
-10 9 -18 9 -9 0 -12 -4 -9 -10 3 -5 2 -10 -4 -10 -5 0 -11 6 -13 12 -3 9 -9
8 -22 -4 -21 -22 -12 -76 10 -57 11 9 14 8 14 -1 0 -10 3 -10 14 -1 11 9 16 9
22 0 4 -8 3 -9 -4 -5 -7 4 -12 3 -12 -3 0 -5 5 -13 10 -16 15 -9 13 -145 -2
-145 -9 0 -8 -4 2 -10 8 -5 11 -10 5 -10 -5 0 -3 -5 5 -10 11 -7 11 -10 2 -10
-7 0 -11 -4 -8 -9 3 -5 -2 -12 -11 -15 -9 -4 -20 -1 -24 5 -4 7 -14 9 -23 6
-25 -10 -46 3 -60 37 -22 53 -71 101 -118 116 -25 8 -36 15 -26 17 9 2 32 -3
52 -11 20 -8 34 -12 32 -7 -3 5 4 17 15 27 11 10 17 24 14 31 -2 8 0 11 5 8 6
-3 10 -1 10 4 0 10 -19 11 -238 12 -41 1 -76 -2 -79 -5 -4 -3 -1 -6 6 -6 7 0
9 -5 6 -11 -4 -6 3 -20 15 -31 18 -17 31 -20 77 -16 l56 5 -45 -23 c-24 -12
-51 -31 -59 -40 -10 -13 -4 -11 21 6 l35 23 -31 -34 c-38 -41 -53 -69 -56
-103 -2 -20 -7 -24 -30 -24 -16 1 -28 7 -28 15 0 7 -5 13 -11 13 -8 0 -9 19
-4 63 7 59 11 153 14 315 1 49 4 71 12 67 7 -5 8 8 3 41 -8 59 -12 67 -30 60
-7 -3 -16 -1 -19 4 -4 6 5 10 19 10 21 0 26 5 26 26 0 14 4 23 9 20 5 -4 7 4
3 16 -5 21 -5 21 -15 -3 -10 -23 -10 -22 -18 16 -10 53 -13 150 -5 164 4 6 2
11 -4 11 -8 0 -10 13 -5 43 4 30 3 38 -4 27 -6 -8 -11 -53 -12 -100 0 -47 -4
-96 -8 -110 -6 -20 -10 -13 -19 40 -7 36 -17 67 -22 68 -7 3 -6 10 2 20 12 15
11 15 -4 4 -9 -8 -18 -26 -20 -40 -4 -26 -4 -26 -14 8 -6 19 -7 37 -2 38 14 6
9 42 -7 48 -8 4 -15 16 -15 28 0 17 -2 18 -10 6 -5 -8 -11 -12 -13 -10 -3 3
-14 60 -27 128 -12 67 -26 124 -30 127 -8 5 -22 -54 -54 -225 -10 -55 -26
-101 -45 -131 -28 -46 -28 -48 -15 -99 13 -51 10 -100 -6 -100 -5 0 -12 15
-15 33 -9 41 -14 49 -27 41 -7 -4 -6 -9 3 -14 10 -7 10 -12 -2 -26 -11 -13
-11 -18 -1 -21 14 -5 17 -43 3 -43 -6 0 -7 -17 -5 -37 4 -29 3 -34 -5 -23 -6
8 -11 11 -11 5 -1 -16 -24 28 -25 48 -1 10 5 17 17 17 10 0 18 5 18 11 0 6 -7
8 -16 5 -13 -5 -14 -1 -8 27 4 17 7 41 6 52 -1 23 17 47 29 39 19 -11 27 7 14
34 -7 15 -16 53 -20 85 -7 61 -21 74 -31 30 -9 -42 -12 -50 -13 -30 -1 10 -9
17 -22 17 -41 0 -56 17 -63 74 -5 33 -13 56 -22 60 -8 3 -14 4 -14 2 0 -39
-57 -261 -78 -303 -23 -47 -27 -65 -21 -98 6 -34 4 -44 -17 -66 -23 -24 -24
-32 -18 -80 4 -30 11 -60 17 -67 13 -16 4 -157 -12 -176 -9 -11 -9 -15 1 -19
8 -4 7 -6 -4 -6 -10 -1 -18 -6 -18 -13 0 -7 -12 2 -27 20 -23 27 -37 34 -80
39 -59 6 -52 17 -77 -117 -8 -41 -12 -79 -9 -84 3 -5 0 -7 -7 -4 -18 6 -20 37
-10 133 6 57 5 82 -3 87 -22 13 -27 -18 -25 -172 0 -85 3 -143 5 -127 2 15 11
27 19 27 15 0 19 -16 5 -22 -5 -1 -12 -18 -16 -35 -6 -29 -4 -33 13 -33 11 0
22 4 24 10 2 5 30 12 63 16 33 4 63 12 67 18 4 6 9 4 14 -7 3 -9 14 -17 24
-17 16 0 18 -7 14 -56 -3 -52 -2 -55 19 -52 19 3 22 8 19 46 l-3 42 50 0 c38
0 56 -5 74 -22 46 -44 137 -82 137 -57 0 5 -13 9 -29 9 -20 0 -30 6 -34 20 -3
11 -1 23 4 26 5 3 7 10 4 15 -4 5 11 9 32 10 21 1 49 5 63 9 18 6 7 8 -42 9
-38 1 -68 5 -68 11 0 6 6 10 14 10 8 0 17 6 20 13 5 10 7 10 12 0 7 -15 44
-17 44 -3 0 6 12 10 26 10 l27 0 -6 103 c-3 72 -11 116 -26 150 -24 55 -24 57
-13 57 5 0 17 -17 28 -37 10 -21 21 -40 24 -43 3 -3 5 -11 6 -17 3 -37 5 -43
13 -43 10 0 9 55 -2 66 -4 4 -3 12 2 18 16 22 20 56 5 56 -8 0 -14 5 -14 10 0
6 5 10 11 10 6 0 8 7 5 15 -3 9 -1 38 5 66 9 40 17 53 37 62 15 6 30 16 34 22
5 6 8 5 8 -2 0 -7 5 -13 11 -13 5 0 7 5 4 10 -3 6 -1 10 4 10 6 0 11 -4 11
-10 0 -5 5 -10 10 -10 6 0 10 11 10 25 0 26 -14 33 -26 13 -5 -7 -11 -3 -17
13 l-10 24 -7 -25 c-7 -21 -15 -12 -11 13 2 11 -14 8 -28 -5 -11 -11 -12 -10
-6 1 6 11 -1 13 -34 9 -22 -2 -41 0 -41 4 0 5 10 8 23 9 21 0 21 1 2 9 -11 5
-14 9 -6 9 8 1 11 7 7 17 -5 12 -2 15 12 12 10 -3 24 2 31 10 13 13 16 12 28
-4 13 -17 16 -17 26 -4 14 18 76 17 88 -1 6 -10 11 -10 22 0 12 10 18 8 30 -9
13 -19 16 -20 31 -5 14 14 16 14 16 1 0 -8 -9 -17 -19 -21 -13 -4 -18 -13 -16
-25 2 -13 -2 -20 -11 -20 -8 0 -14 -6 -14 -14 0 -8 -7 -21 -15 -30 -13 -13
-13 -15 4 -21 10 -3 25 -3 33 0 9 4 18 -1 22 -11 5 -13 9 -14 21 -4 17 14 21
0 4 -17 -7 -7 -5 -15 6 -27 15 -14 15 -16 1 -16 -9 0 -16 -4 -16 -10 0 -5 -7
-7 -15 -4 -9 4 -15 1 -15 -7 0 -10 -3 -10 -12 -1 -7 7 -16 12 -20 12 -16 0 -7
-30 14 -50 20 -18 23 -32 25 -103 1 -59 -3 -89 -14 -106 -14 -22 -14 -24 1
-18 9 4 16 2 16 -3 0 -6 -7 -10 -16 -10 -8 0 -12 -4 -9 -10 3 -5 0 -10 -7 -10
-7 0 -19 9 -26 21 -7 12 -16 18 -19 15 -4 -3 -12 -1 -19 5 -22 18 -31 2 -29
-50 3 -52 10 -68 36 -88 13 -11 15 -9 11 18 -3 22 -7 27 -13 18 -7 -11 -9 -11
-10 1 0 8 -2 25 -3 38 -4 32 12 38 20 7 3 -14 10 -25 14 -25 4 0 8 -18 8 -40
0 -22 -3 -40 -9 -40 -5 0 -9 -5 -9 -11 0 -5 5 -7 11 -3 8 4 10 -8 8 -40 l-4
-46 57 0 58 0 0 45 c0 38 3 45 20 45 11 0 20 5 20 10 0 6 -3 10 -8 10 -4 0 -6
20 -4 45 7 84 22 46 22 -55 l0 -100 263 1 c144 1 251 4 237 8 l-25 8 25 5 c24
5 24 5 2 7 -32 2 -17 21 16 21 15 0 47 7 72 14 36 12 39 15 18 15 -35 1 -59
11 -52 22 3 5 1 9 -3 9 -5 0 -9 9 -10 21 -2 16 1 18 11 10 10 -9 15 -8 20 5 9
22 8 24 -9 24 -20 0 -19 7 3 29 13 13 36 18 92 20 104 4 102 11 -3 11 -80 0
-87 2 -87 20 0 11 -5 20 -10 20 -23 0 -38 24 -26 43 8 13 8 20 0 25 -6 4 -14
18 -18 32 -5 18 -5 21 3 11 7 -11 8 -2 4 28 -4 31 -2 46 8 52 11 7 11 11 1 17
-8 5 -10 16 -6 27 6 14 4 16 -6 10 -9 -5 -11 -4 -6 3 4 7 14 12 22 12 8 0 12
5 9 10 -4 6 -11 8 -16 5 -5 -4 -9 -2 -9 4 0 5 5 13 10 16 6 4 8 10 5 15 -7 11
27 30 54 30 12 0 21 4 21 10 0 5 7 7 15 4 8 -4 15 -1 15 6 0 10 3 10 15 0 12
-10 15 -10 16 1 0 8 4 5 9 -6 6 -13 9 -15 9 -5 1 13 2 13 11 0 7 -11 10 -11
10 -2 0 8 5 10 12 6 8 -5 9 -2 5 10 -4 10 -7 21 -7 24 0 4 -5 0 -10 -8 -6 -9
-10 -11 -10 -3 0 7 -7 10 -15 7 -9 -4 -15 0 -15 7 0 11 -2 11 -9 0 -8 -12 -12
-12 -26 2 -12 12 -34 17 -76 17 -32 0 -59 4 -59 10 0 5 6 7 14 4 7 -3 17 3 21
13 7 17 8 17 15 -2 8 -18 9 -17 9 6 1 29 22 44 39 27 6 -6 16 -7 23 -2 25 15
64 14 77 -3 6 -9 12 -12 12 -5 0 6 8 11 18 9 9 -1 17 2 17 8 0 5 -8 11 -17 12
-10 2 -28 5 -40 7 -13 3 -51 5 -85 5 -48 1 -63 4 -63 15 0 20 13 26 68 36 l47
8 -65 2 -65 2 40 18 c26 13 54 18 80 15 35 -4 37 -3 10 4 -16 5 -48 10 -70 11
-36 3 -37 3 -10 8 26 4 28 5 10 12 -19 8 -19 9 2 9 12 1 25 6 28 12 4 6 22 8
46 4 50 -9 64 0 44 28 -8 12 -15 32 -15 44 0 13 -4 23 -8 23 -4 0 -9 21 -10
46 -1 26 -8 52 -16 58 -7 6 -16 32 -20 59 -6 47 -5 47 20 43 29 -6 37 -11 40
-29 1 -7 12 -30 23 -51 20 -39 21 -39 30 -15 5 13 7 32 5 42 -1 9 3 17 9 17 7
1 5 6 -5 13 -11 9 -17 31 -19 73 -1 32 -7 65 -13 73 -8 11 -8 13 2 7 8 -5 12
0 12 16 0 18 2 20 10 8 8 -12 10 -12 16 3 3 9 10 17 15 17 4 0 6 -7 3 -15 -4
-8 -2 -15 4 -15 16 0 23 30 12 51 -6 11 -16 50 -23 87 -8 45 -17 68 -28 70
-11 2 -15 -6 -14 -30 0 -21 -5 -33 -12 -32 -7 1 -34 2 -60 3 -35 1 -44 4 -33
11 10 6 11 10 3 10 -7 0 -13 7 -13 16 0 9 5 12 11 8 7 -4 10 -1 7 6 -10 30
-28 21 -28 -14z"/>
<path d="M2408 4272 c-23 -3 -28 -8 -28 -30 0 -15 -4 -43 -10 -62 -5 -19 -11
-46 -14 -60 -2 -14 -12 -59 -21 -100 -9 -41 -19 -90 -22 -108 -3 -18 -10 -35
-14 -38 -5 -3 -9 -16 -9 -30 0 -13 -4 -24 -9 -24 -6 0 -9 -9 -8 -20 1 -11 5
-20 10 -20 4 0 7 8 5 17 -2 11 5 19 17 21 17 4 18 2 6 -12 -11 -14 -11 -16 3
-16 9 0 16 7 16 15 0 8 6 15 14 15 12 0 27 35 32 75 0 6 6 23 13 39 6 16 9 31
6 34 -2 3 0 11 6 19 6 7 9 13 6 13 -9 0 40 134 50 137 9 3 84 -239 83 -272 0
-29 11 -41 43 -47 23 -5 30 -1 38 19 11 31 12 29 -6 46 -7 8 -17 26 -21 41 -5
20 -3 26 11 26 12 0 16 -6 12 -20 -3 -11 -1 -18 4 -14 5 3 9 15 9 28 0 17 -6
22 -22 22 -20 -1 -24 8 -40 89 -11 50 -21 114 -25 142 -3 29 -11 57 -17 61
-13 11 -81 19 -118 14z"/>
<path d="M3112 4048 c-13 -78 -17 -128 -12 -138 6 -9 10 -10 10 -2 0 6 6 12
14 12 8 0 17 -6 19 -12 4 -10 8 -10 15 1 8 12 13 12 25 2 11 -8 16 -9 19 -1 4
14 -55 260 -63 260 -3 0 -15 -55 -27 -122z"/>
<path d="M3261 3868 c-7 -35 -15 -76 -18 -93 -8 -41 -17 -45 -100 -45 -46 0
-73 -4 -73 -11 0 -7 26 -9 74 -7 41 2 72 -1 69 -6 -9 -13 -9 -116 0 -116 4 0
7 7 7 15 0 8 7 15 16 15 8 0 13 4 10 9 -7 10 71 32 89 25 7 -3 16 -1 19 4 3 6
-13 13 -36 17 -52 9 -62 22 -37 48 10 12 19 27 19 34 0 8 5 11 12 7 8 -5 9 -2
4 12 -4 10 -12 49 -18 87 -6 37 -14 67 -17 67 -4 0 -13 -28 -20 -62z"/>
<path d="M2362 3704 c-12 -8 -20 -19 -17 -24 3 -5 2 -11 -2 -13 -5 -3 -6 -31
-4 -64 3 -45 6 -52 12 -33 7 24 7 24 8 3 1 -13 6 -23 11 -23 6 0 10 10 10 23
1 22 1 22 15 -3 l14 -25 1 30 c0 31 14 25 23 -10 4 -15 5 -14 6 7 1 28 21 51
21 24 0 -8 4 -18 10 -21 6 -4 7 1 3 11 -4 12 -2 15 8 12 8 -3 15 -10 15 -16 1
-7 2 -18 3 -25 0 -8 7 -14 14 -14 7 0 25 -3 40 -7 l27 -6 0 72 c-1 67 -3 75
-27 92 -24 17 -29 18 -52 5 -14 -8 -27 -20 -27 -27 -1 -7 -2 -19 -3 -27 0 -8
-8 -15 -17 -15 -11 0 -14 6 -9 20 4 14 -2 27 -22 45 -34 29 -33 29 -61 9z"/>
</g>
</svg>
