<?xml version="1.0" standalone="no"?>
<!DOCTYPE svg PUBLIC "-//W3C//DTD SVG 20010904//EN"
 "http://www.w3.org/TR/2001/REC-SVG-20010904/DTD/svg10.dtd">
<svg version="1.0" xmlns="http://www.w3.org/2000/svg"
 width="921.000000pt" height="1280.000000pt" viewBox="0 0 921.000000 1280.000000"
 preserveAspectRatio="xMidYMid meet">
<metadata>
Created by potrace 1.15, written by Peter Selinger 2001-2017
</metadata>
<g transform="translate(0.000000,1280.000000) scale(0.100000,-0.100000)"
fill="#000000" stroke="none">
<path d="M4197 9963 c-4 -3 1 -15 10 -26 17 -20 17 -20 -2 -12 -11 4 -42 10
-70 13 -27 2 -52 9 -56 13 -3 5 -20 4 -39 -1 -18 -5 -93 -7 -165 -5 -136 5
-308 -7 -328 -23 -7 -6 -24 -10 -39 -10 -14 0 -48 -10 -74 -23 -27 -12 -58
-24 -71 -25 -13 -2 -37 -10 -55 -18 -17 -9 -36 -16 -42 -16 -6 0 -28 -11 -48
-25 -20 -14 -44 -25 -53 -25 -9 0 -33 -9 -55 -20 -21 -11 -46 -17 -54 -14 -10
4 -16 1 -16 -8 0 -19 -42 -58 -63 -58 -9 0 -17 -4 -17 -9 0 -5 -17 -11 -38
-15 -22 -3 -50 -15 -64 -26 -14 -10 -35 -18 -46 -15 -11 2 -26 -3 -33 -11 -6
-8 -22 -14 -35 -14 -12 0 -25 -4 -28 -9 -4 -5 -24 -12 -46 -16 -22 -4 -40 -10
-40 -14 0 -11 -80 -66 -120 -81 -19 -8 -38 -18 -41 -23 -4 -6 -20 -10 -37 -11
-17 0 -28 -4 -26 -8 5 -7 -88 -53 -129 -63 -15 -4 -24 -12 -20 -18 4 -6 0 -8
-10 -4 -9 3 -17 2 -19 -3 -2 -5 -21 -9 -43 -9 -151 -2 -198 0 -233 12 -23 8
-46 10 -54 6 -8 -5 -32 -9 -54 -10 -72 -4 -84 -23 -98 -147 -4 -44 -3 -53 9
-49 13 6 13 -19 0 -85 -1 -9 2 -19 9 -21 8 -3 8 -10 -1 -26 -7 -11 -13 -39
-13 -61 0 -29 -4 -40 -15 -40 -19 0 -20 -17 -1 -22 10 -2 11 -9 3 -28 -25 -60
-37 -96 -37 -113 0 -9 -27 -44 -59 -78 -33 -33 -67 -76 -75 -94 -9 -19 -21
-37 -27 -41 -9 -5 -49 -87 -49 -100 0 -2 7 -1 15 2 13 5 14 2 5 -20 -5 -14
-16 -39 -25 -56 -8 -16 -15 -40 -15 -52 0 -13 -9 -50 -20 -81 -11 -32 -24 -94
-29 -140 -6 -51 -19 -104 -35 -140 -20 -44 -25 -69 -22 -105 2 -26 0 -52 -5
-58 -5 -6 -11 -35 -13 -63 -3 -29 -11 -63 -19 -75 -20 -30 -33 -131 -18 -140
18 -12 12 -43 -9 -49 -19 -5 -20 -11 -16 -90 4 -63 2 -88 -8 -96 -14 -12 -10
-62 7 -72 6 -5 6 -23 -2 -54 -11 -45 -10 -49 11 -69 12 -11 27 -20 32 -18 8 3
3 -47 -10 -94 -4 -17 0 -23 20 -28 14 -3 26 -11 26 -17 0 -6 -4 -7 -10 -4 -19
12 -10 -21 11 -38 27 -23 22 -68 -8 -82 -14 -6 -23 -18 -23 -32 0 -31 -12 -29
-32 4 -14 23 -24 28 -62 29 -25 1 -46 -2 -46 -7 0 -5 -12 -4 -26 1 -14 6 -36
7 -49 4 -31 -8 -85 21 -85 46 0 10 4 52 9 92 5 40 15 127 21 193 6 66 18 179
26 250 8 72 19 173 24 225 5 52 13 136 19 185 6 50 22 205 36 345 14 140 29
298 35 350 9 93 30 308 51 540 6 63 15 153 20 199 5 47 7 86 5 89 -12 11 -45
-23 -54 -55 -6 -25 -10 -30 -11 -16 -1 26 -31 21 -31 -5 0 -19 -76 -93 -93
-89 -7 1 -13 -10 -15 -25 -3 -29 -22 -40 -22 -14 0 8 -4 18 -10 21 -6 3 -7 -1
-4 -9 3 -9 -2 -23 -11 -32 -9 -9 -14 -25 -12 -35 3 -12 0 -19 -9 -19 -8 0 -14
5 -14 10 0 6 -9 10 -20 10 -15 0 -22 -9 -27 -31 -5 -26 -10 -30 -29 -26 -18 3
-24 0 -24 -14 0 -11 -5 -19 -11 -19 -6 0 -9 9 -6 20 6 24 -6 26 -24 4 -10 -13
-10 -17 2 -25 10 -6 4 -8 -21 -8 -19 1 -28 3 -18 6 21 5 31 30 19 50 -6 12
-10 10 -15 -13 -5 -18 -10 -24 -15 -16 -9 15 -51 -21 -51 -44 0 -8 -7 -17 -15
-20 -9 -4 -15 -11 -14 -18 5 -41 -22 -51 -42 -15 -10 20 -12 20 -27 5 -16 -16
-16 -18 1 -31 12 -9 15 -15 7 -20 -16 -10 -20 -3 -29 52 -7 44 -8 46 -15 21
-13 -45 -42 -36 -51 15 -6 30 -9 36 -12 20 -5 -28 -23 -30 -23 -3 0 11 -4 20
-8 20 -10 0 -32 -45 -32 -65 0 -8 -8 -15 -17 -14 -11 0 -13 3 -5 6 19 7 14 23
-8 23 -13 0 -22 9 -26 25 -3 14 -12 25 -20 25 -8 0 -14 -10 -14 -25 0 -16 6
-25 15 -25 32 0 13 -19 -22 -22 -36 -3 -61 -28 -28 -28 12 0 16 -6 12 -20 -3
-13 0 -20 9 -20 8 0 14 -4 14 -10 0 -18 18 -11 25 10 8 24 28 26 49 5 8 -8 19
-15 25 -15 6 0 11 -7 11 -15 0 -8 -4 -15 -10 -15 -5 0 -10 5 -10 10 0 6 -6 10
-14 10 -9 0 -12 -8 -8 -26 4 -23 2 -25 -18 -19 -17 5 -21 4 -17 -6 2 -8 10
-13 16 -12 6 2 11 -2 11 -7 0 -14 -33 -13 -48 2 -9 9 -12 9 -12 0 0 -7 -5 -12
-11 -12 -6 0 -1 14 11 30 21 30 20 34 -13 31 -9 -1 -17 3 -17 8 0 6 -17 11
-38 11 -30 0 -45 7 -65 30 -30 34 -35 35 -72 18 -24 -11 -24 -12 -9 -30 10
-10 23 -18 31 -18 9 0 13 -13 13 -42 0 -31 -3 -39 -10 -28 -5 8 -7 25 -3 37 3
14 1 23 -6 23 -6 0 -11 -17 -11 -37 0 -28 -3 -34 -10 -23 -5 8 -10 29 -11 45
0 25 -2 27 -8 10 -5 -11 -7 -23 -5 -26 2 -3 -17 -5 -42 -5 -32 1 -43 5 -39 14
3 8 5 18 5 23 0 5 5 9 10 9 6 0 10 -6 10 -14 0 -9 10 -13 25 -12 19 1 25 7 25
24 0 13 -6 22 -16 22 -10 0 -13 6 -9 19 4 13 0 20 -16 24 -23 6 -21 30 3 35
10 2 19 -6 23 -19 6 -17 9 -19 16 -8 13 20 11 29 -5 29 -8 0 -18 9 -21 20 -4
13 -15 20 -31 20 -13 0 -24 5 -24 10 0 6 4 10 8 10 5 0 14 10 20 23 l11 22 0
-22 c1 -13 5 -23 9 -23 4 0 7 19 6 43 -3 58 -3 59 -13 53 -5 -3 -7 -16 -4 -29
4 -21 4 -22 -11 -3 -15 19 -16 18 -17 -15 0 -29 -2 -31 -10 -14 -8 17 -9 16
-4 -6 3 -15 -2 -34 -11 -45 -15 -18 -15 -18 -10 8 4 15 2 29 -4 33 -15 9 -24
-46 -11 -66 6 -10 11 -33 11 -50 0 -25 -3 -29 -19 -24 -25 8 -29 -6 -31 -132
-1 -99 0 -104 25 -129 l27 -27 -26 5 c-23 5 -26 2 -26 -22 0 -24 6 -29 38 -37
20 -5 50 -9 65 -9 15 1 27 -1 27 -5 0 -10 -69 -19 -99 -13 -23 5 -27 2 -29
-20 -1 -19 3 -26 16 -26 15 -1 15 -2 1 -13 -9 -7 -14 -18 -12 -24 6 -18 33
-16 33 2 0 8 9 15 20 15 11 0 20 5 20 10 0 6 14 10 30 10 17 0 30 -5 30 -11 0
-7 -10 -9 -24 -5 -32 8 -38 -4 -16 -27 12 -12 20 -15 25 -8 11 19 23 12 30
-16 6 -24 8 -25 14 -10 9 25 21 20 49 -16 22 -31 22 -31 23 -6 0 22 1 22 8 4
9 -23 3 -57 -9 -50 -5 3 -17 -8 -26 -25 -10 -16 -23 -30 -30 -30 -12 0 -14
-74 -1 -86 7 -7 11 26 8 55 -2 7 3 11 10 9 15 -5 32 -48 19 -48 -6 0 -10 -12
-10 -26 0 -14 4 -23 9 -20 14 9 21 62 11 95 -8 30 -8 31 26 31 24 0 34 5 34
15 0 8 5 15 10 15 6 0 10 -7 10 -16 0 -13 7 -15 35 -11 19 3 35 2 35 -4 0 -5
-13 -9 -29 -9 -17 0 -42 -11 -60 -26 -34 -28 -39 -44 -15 -44 8 0 22 -7 31
-15 8 -8 19 -13 24 -9 5 3 12 -2 15 -10 9 -25 24 -19 24 9 0 20 -5 25 -25 25
-14 0 -25 5 -25 11 0 7 9 9 23 5 12 -3 30 -6 40 -6 14 0 15 -3 6 -18 -9 -14
-9 -24 -1 -38 10 -17 11 -17 12 -1 0 18 8 21 27 9 7 -4 9 -13 4 -21 -6 -8 -3
-21 7 -32 20 -23 57 -26 48 -4 -3 8 -1 15 5 15 5 0 12 -7 16 -16 3 -9 15 -14
28 -12 22 3 55 -17 55 -33 0 -17 72 -78 86 -72 8 3 23 -2 34 -12 10 -9 23 -14
28 -11 6 4 8 -3 5 -14 -3 -12 -8 -19 -10 -16 -3 2 -23 -4 -46 -14 -23 -10 -45
-16 -49 -14 -4 3 -8 1 -8 -5 0 -5 8 -15 18 -21 12 -8 13 -13 5 -16 -18 -8 -16
-24 4 -46 15 -17 15 -18 0 -18 -10 0 -17 5 -17 11 0 5 -4 7 -10 4 -15 -9 -12
-25 4 -25 19 0 28 -28 16 -51 -8 -15 -7 -19 4 -19 8 0 17 6 19 13 4 8 8 9 14
1 4 -6 15 -14 23 -17 8 -3 -4 -6 -27 -6 -47 -1 -61 -24 -22 -36 13 -4 18 -12
15 -22 -3 -8 -6 -32 -6 -54 0 -21 -4 -39 -8 -39 -5 0 -7 18 -6 40 1 22 -2 40
-7 40 -5 0 -9 6 -9 14 0 8 -7 17 -16 20 -8 3 -12 10 -9 16 3 5 -2 10 -12 10
-28 0 -24 -39 3 -46 14 -4 21 -11 17 -20 -3 -8 0 -14 6 -14 6 0 11 -15 11 -33
0 -18 5 -38 11 -44 12 -12 6 -43 -9 -43 -5 0 -9 12 -9 27 0 15 -6 29 -12 31
-6 2 -8 9 -4 15 4 7 -2 5 -13 -3 -10 -8 -21 -16 -24 -18 -3 -2 4 -2 15 0 15 2
19 -3 19 -22 0 -14 -5 -25 -12 -25 -6 0 -11 -4 -10 -10 2 -5 6 -9 9 -8 4 1 5
-7 2 -17 -3 -12 0 -20 7 -20 8 0 11 -9 8 -25 -3 -14 1 -30 8 -36 11 -9 14 -8
14 1 0 8 3 11 6 7 3 -3 3 -15 -1 -27 -5 -17 -10 -19 -21 -9 -15 12 -44 6 -44
-10 0 -5 8 -11 19 -14 12 -3 20 -17 25 -45 7 -47 0 -72 -21 -72 -11 0 -13 5
-8 18 5 9 9 33 11 52 3 32 2 31 -7 -7 -12 -49 -28 -57 -30 -15 -2 23 -2 24 -6
5 -3 -15 -12 -23 -26 -24 -20 -1 -21 -2 -2 -6 39 -10 47 -24 42 -80 -3 -30 -1
-53 5 -53 5 0 6 -5 3 -10 -10 -16 -25 -2 -25 23 l-1 22 -19 -24 c-11 -13 -20
-33 -20 -46 0 -12 -7 -28 -15 -35 -8 -7 -15 -19 -15 -26 0 -8 7 -14 15 -14 8
0 15 7 15 15 0 8 7 15 16 15 24 0 14 -45 -11 -46 -11 -1 -26 -2 -32 -3 -7 -1
-13 -6 -13 -12 0 -8 4 -8 14 0 21 18 30 -18 10 -40 -19 -22 -9 -42 17 -34 11
4 19 2 19 -4 0 -6 -13 -11 -29 -11 -21 0 -32 6 -36 20 -10 30 -25 14 -26 -28
0 -20 -3 -31 -6 -24 -2 6 -11 12 -19 12 -8 0 -14 8 -15 18 0 12 -3 11 -10 -6
-5 -13 -6 -28 -3 -34 4 -6 2 -13 -4 -17 -7 -4 -8 -12 -2 -21 8 -13 10 -12 10
3 0 14 8 17 45 15 43 -3 45 -4 40 -28 -9 -34 -13 -36 -28 -16 -12 17 -16 17
-58 2 -33 -11 -38 -15 -19 -16 24 0 24 0 -7 -22 -38 -27 -41 -38 -13 -45 11
-3 20 -12 20 -19 0 -20 -29 -17 -37 4 -7 18 -22 32 -37 32 -5 0 -3 -7 4 -15 9
-11 10 -15 1 -15 -8 0 -7 -5 3 -15 8 -8 19 -15 25 -15 6 0 11 -4 11 -10 0 -5
-7 -10 -15 -10 -8 0 -15 -4 -15 -10 0 -5 6 -10 14 -10 17 0 15 -32 -2 -38 -7
-2 -12 3 -12 12 0 10 -9 16 -21 16 -13 0 -19 -5 -16 -12 24 -57 33 -68 59 -68
49 0 80 24 41 32 -17 3 -17 4 -1 10 12 5 19 -1 27 -23 9 -27 8 -29 -17 -35
-15 -4 -35 -13 -44 -21 -11 -10 -27 -13 -47 -8 -37 8 -43 -12 -6 -21 22 -5 23
-8 9 -21 -11 -12 -18 -13 -27 -4 -6 6 -18 11 -26 11 -12 0 -12 -3 -3 -12 7 -7
12 -20 12 -30 0 -22 8 -23 32 -1 10 9 21 13 24 10 8 -8 -23 -59 -43 -70 -7 -4
-13 -13 -13 -18 0 -12 -25 -39 -37 -39 -11 0 -33 -49 -25 -54 10 -6 52 30 52
43 0 6 6 11 14 11 7 0 17 8 20 18 3 9 12 27 20 39 l13 23 13 -24 c9 -18 10
-32 2 -53 -10 -25 -10 -26 -11 -5 -1 13 -5 21 -11 17 -5 -3 -6 -13 -3 -21 5
-13 1 -15 -14 -10 -15 5 -24 -1 -39 -29 -10 -20 -26 -35 -36 -35 -17 0 -17 -1
-1 -18 16 -16 19 -16 25 -2 5 11 7 10 7 -7 1 -29 -36 -41 -53 -17 -8 10 -15
13 -19 7 -4 -6 -18 -8 -32 -5 -15 2 -25 0 -25 -7 0 -9 -17 -10 -60 -5 l-60 7
0 -1973 c0 -1874 1 -1972 18 -1965 32 13 157 52 222 70 137 38 223 70 367 138
21 9 32 38 38 96 1 14 7 73 13 131 6 58 14 155 18 215 3 61 8 113 10 117 2 3
4 39 5 80 0 40 4 100 9 133 5 33 12 114 15 180 3 66 10 147 15 180 5 33 12
114 15 180 4 66 13 162 21 213 8 52 12 97 9 102 -3 5 -1 48 5 97 16 134 38
377 45 483 3 52 10 131 15 175 5 44 12 125 15 180 3 55 8 114 11 130 3 17 9
80 14 140 10 132 38 416 44 465 3 19 10 94 16 165 18 224 16 215 53 215 41 0
59 12 55 36 -2 13 4 20 20 22 19 3 22 -1 22 -27 0 -29 3 -31 36 -31 28 0 35 4
33 18 -3 30 1 42 12 42 7 0 9 -11 5 -31 -5 -29 -4 -30 22 -28 15 2 33 0 40 -5
22 -13 36 8 22 34 -13 24 -6 55 10 45 5 -3 10 -22 10 -41 0 -30 3 -34 25 -34
14 0 28 -1 32 -2 4 -2 9 6 11 17 6 31 24 45 20 15 -2 -20 3 -26 27 -33 17 -5
37 -13 45 -17 21 -10 24 -74 7 -150 -14 -61 -30 -161 -41 -255 -2 -22 -1 -85
3 -140 8 -100 -3 -278 -60 -960 -11 -137 -22 -281 -25 -320 -2 -38 -8 -115
-14 -170 -5 -55 -12 -163 -15 -240 -3 -77 -10 -180 -16 -230 -10 -99 -26 -286
-44 -535 -3 -41 -12 -147 -20 -235 -8 -88 -15 -173 -15 -188 0 -28 0 -28 27
-13 16 8 51 23 78 32 28 10 52 20 55 23 10 12 118 61 132 61 15 0 117 42 148
60 8 5 44 24 80 42 36 18 67 36 70 39 3 4 30 11 60 17 72 14 176 44 220 64 68
32 79 32 90 2 13 -34 18 -123 7 -127 -12 -4 11 -57 24 -57 7 0 2 -11 -11 -25
-19 -21 -22 -32 -18 -80 4 -44 2 -55 -9 -51 -16 6 -17 -6 -2 -21 8 -8 6 -11
-7 -10 -13 1 -19 -5 -19 -18 0 -15 6 -20 26 -18 22 1 28 -4 33 -29 9 -48 7
-125 -5 -174 -8 -32 -9 -52 -1 -67 13 -28 36 -166 28 -174 -3 -3 1 -18 9 -33
8 -15 14 -36 13 -46 -1 -33 19 -113 32 -128 6 -9 9 -20 6 -25 -8 -13 3 -61 14
-61 11 0 18 70 8 76 -5 3 -8 17 -7 32 1 24 -2 64 -16 264 -2 32 0 58 4 58 5 0
12 15 17 33 8 27 14 32 42 33 31 0 32 -1 32 -43 0 -48 -2 -50 -25 -27 -24 24
-28 11 -4 -15 17 -18 18 -25 9 -36 -10 -12 -9 -15 5 -15 14 0 16 -6 13 -31 -3
-19 0 -33 8 -36 8 -3 15 -34 19 -81 4 -42 13 -92 21 -109 8 -18 14 -39 13 -45
-3 -28 2 -38 19 -38 15 0 22 -13 31 -58 14 -63 41 -141 76 -217 13 -27 29 -70
36 -94 7 -24 19 -45 26 -48 7 -3 13 -13 13 -23 0 -9 12 -39 26 -66 38 -71 106
-188 113 -194 4 -3 24 -32 46 -65 21 -33 41 -62 44 -65 7 -6 22 -33 53 -92 11
-22 29 -45 39 -51 11 -7 19 -18 19 -25 0 -7 4 -11 8 -8 4 3 23 -20 41 -50 17
-30 34 -54 36 -54 2 0 10 6 17 14 8 7 24 17 36 20 19 6 22 4 22 -18 0 -14 5
-26 11 -26 6 0 8 7 5 16 -4 12 -2 15 9 11 8 -4 17 -2 20 3 11 17 23 11 33 -17
8 -21 11 -23 11 -9 1 20 1 20 16 0 14 -19 14 -19 15 0 0 19 1 19 13 2 12 -17
14 -16 32 8 18 23 45 35 45 20 0 -10 -28 -34 -39 -34 -6 0 -11 -4 -11 -10 0
-15 17 -12 45 6 14 9 34 14 45 11 14 -3 25 1 32 13 11 17 13 17 25 2 11 -16
12 -16 13 1 0 9 5 17 10 17 6 0 10 6 10 14 0 18 20 26 42 15 13 -7 18 -2 27
21 5 17 16 30 24 30 8 0 17 9 20 21 3 12 10 18 16 14 6 -3 11 -1 11 4 0 6 7
11 16 11 10 0 15 8 14 23 -4 44 -1 47 33 41 31 -6 31 -6 12 10 -19 16 -16 17
61 13 71 -4 83 -2 95 14 18 25 33 24 17 -1 -15 -23 -13 -25 31 -34 29 -5 32
-4 21 10 -11 13 -10 16 8 21 22 5 26 13 22 47 -1 11 3 15 9 12 6 -4 11 -16 11
-27 0 -33 18 -21 22 16 l4 35 -39 -7 c-27 -4 -42 -2 -47 7 -10 16 -33 2 -26
-16 3 -8 -1 -14 -9 -14 -10 0 -15 10 -15 30 0 17 4 30 9 30 5 0 16 3 25 6 11
4 16 1 16 -10 0 -23 23 -20 43 7 13 18 25 23 51 21 37 -3 55 18 36 41 -16 20
9 55 40 56 l25 0 -25 10 c-25 10 -25 11 -5 25 17 13 20 13 23 0 2 -8 15 -17
30 -21 15 -4 21 -10 15 -12 -18 -6 -16 -23 2 -23 8 0 15 6 15 14 0 8 9 18 20
21 22 7 26 20 10 30 -5 3 -10 -1 -10 -10 0 -9 -5 -13 -10 -10 -6 4 -8 15 -5
26 4 13 1 21 -11 26 -13 5 -8 9 22 18 34 10 39 15 37 38 -1 15 2 27 8 27 5 0
9 18 9 39 0 22 5 43 11 47 8 4 9 -3 4 -24 -3 -18 -2 -33 4 -37 7 -4 11 7 11
29 0 27 5 36 23 42 12 5 25 7 30 6 4 -1 7 7 7 18 0 11 6 20 14 20 8 0 16 4 18
10 2 5 12 11 23 13 11 2 30 9 43 15 15 9 22 9 22 2 0 -6 5 -8 11 -5 6 4 8 13
6 19 -3 7 -1 19 4 27 7 11 9 10 9 -5 0 -18 1 -18 18 -3 10 10 25 17 33 17 8 0
25 10 39 23 14 13 30 22 36 20 15 -5 35 20 37 46 1 23 17 18 18 -7 1 -10 4 -7
8 8 4 16 15 26 30 28 12 2 25 10 28 18 3 8 14 14 24 14 14 0 19 7 19 25 0 30
20 33 38 5 15 -24 32 -18 32 11 0 10 4 19 9 19 9 0 27 75 22 98 -1 6 3 12 9
12 5 0 10 -4 10 -10 0 -5 5 -10 10 -10 6 0 10 7 10 15 0 8 7 15 15 15 10 0 15
10 15 28 0 15 6 34 13 41 9 11 9 13 0 7 -9 -5 -13 1 -13 19 0 23 -4 26 -27 23
-20 -2 -28 -9 -28 -23 0 -23 -23 -50 -43 -50 -8 0 -19 -16 -26 -35 -7 -19 -18
-44 -25 -55 -11 -18 -12 -17 -7 10 4 28 2 30 -27 32 -18 2 -33 7 -35 13 -9 25
-22 6 -22 -30 0 -22 -4 -40 -10 -40 -5 0 -10 6 -10 14 0 12 -20 26 -36 26 -2
0 -4 -13 -4 -30 0 -30 -21 -42 -35 -20 -10 16 -38 12 -32 -4 4 -9 -1 -13 -16
-12 -17 1 -22 8 -23 31 -1 16 -4 39 -7 50 -3 11 -6 25 -7 30 0 6 -5 2 -11 -7
-5 -10 -16 -18 -24 -18 -7 0 -16 -14 -20 -30 -4 -17 -10 -28 -15 -25 -5 3 -13
-3 -19 -12 -6 -10 -11 -12 -11 -5 0 6 -6 12 -14 12 -8 0 -16 10 -19 23 -3 21
-4 21 -13 2 -12 -27 -34 -30 -34 -5 0 11 -10 28 -21 38 -12 9 -26 22 -33 27
-17 15 -37 17 -51 5 -8 -7 -21 -7 -37 -1 -14 5 -38 8 -53 6 -20 -2 -35 5 -53
24 -16 17 -26 22 -29 13 -3 -8 -24 4 -58 33 -37 32 -55 42 -59 33 -3 -7 -4 -2
0 12 9 40 9 49 3 47 -3 -1 -13 4 -21 11 -13 10 -17 10 -21 0 -3 -8 -9 -1 -16
15 -6 17 -16 25 -22 21 -7 -4 -9 0 -5 14 4 11 2 23 -4 27 -7 4 -10 -12 -9 -49
1 -31 6 -56 11 -56 4 0 8 -7 8 -15 0 -23 -15 -18 -30 9 -7 14 -18 22 -26 19
-11 -4 -14 6 -14 41 0 25 -4 46 -10 46 -5 0 -10 -11 -10 -24 0 -29 -17 -43
-33 -27 -8 8 -15 6 -28 -5 -16 -14 -19 -13 -33 18 -8 18 -19 49 -24 68 l-9 35
-12 -28 c-6 -17 -16 -25 -22 -21 -8 4 -9 0 -4 -15 8 -25 -3 -28 -20 -4 -12 17
-14 17 -34 -1 -17 -16 -21 -16 -21 -4 0 9 -7 21 -15 28 -8 6 -13 17 -12 23 4
23 -54 20 -79 -4 -13 -12 -25 -19 -25 -16 -1 4 -3 12 -4 17 -1 6 -3 13 -4 18
-1 4 -5 0 -10 -8 -6 -8 -7 -27 -4 -44 4 -21 3 -27 -6 -22 -6 4 -9 12 -5 17 3
6 -4 17 -15 26 -17 12 -20 18 -10 29 6 8 18 14 25 14 8 0 14 9 14 19 0 11 2
26 5 34 4 9 -1 13 -17 13 -17 -1 -23 4 -21 19 2 23 -24 75 -37 75 -17 0 -30
-36 -18 -48 9 -9 8 -12 -5 -12 -13 0 -17 9 -17 39 0 22 -4 43 -10 46 -18 11
-10 25 15 25 14 0 25 -6 25 -12 0 -9 3 -8 9 2 11 16 4 33 -9 25 -12 -8 -21 24
-11 43 4 9 6 23 3 31 -2 8 0 11 5 8 14 -9 103 75 103 96 0 25 -15 21 -30 -9
l-14 -25 -17 22 -17 23 -14 -34 -14 -34 -1 35 c-1 31 2 34 30 36 34 3 63 29
73 67 7 28 24 36 24 11 0 -31 18 -14 25 23 l6 37 50 -3 c27 -2 55 1 62 7 7 5
23 8 35 5 17 -5 22 -1 28 20 4 19 13 26 30 26 12 0 30 9 38 21 8 12 19 18 26
14 19 -12 61 4 59 23 -1 9 -1 28 0 41 1 20 3 21 16 11 12 -10 16 -9 21 4 7 19
30 21 38 4 3 -7 4 -1 3 14 -3 22 -1 26 12 18 9 -4 27 -20 40 -34 l24 -26 34
38 c18 20 33 32 33 26 0 -5 -5 -15 -11 -21 -15 -15 -1 -36 18 -29 11 5 14 1
10 -13 -2 -10 -1 -25 4 -32 7 -11 9 -10 9 4 0 9 5 17 10 17 6 0 10 7 10 15 0
19 14 19 29 1 9 -11 9 -15 -1 -20 -7 -3 1 -2 17 1 17 3 34 12 38 19 7 12 12
11 31 -2 15 -9 33 -13 50 -8 18 4 26 2 26 -7 0 -9 3 -10 11 -2 8 8 8 17 0 31
-7 13 -7 23 -2 27 5 3 12 -3 14 -12 3 -10 5 -4 4 14 -1 17 -5 29 -10 26 -5 -3
-8 8 -6 23 4 57 0 76 -16 70 -8 -3 -15 -1 -15 4 0 6 -4 10 -10 10 -5 0 -7 -8
-3 -17 4 -12 -5 -8 -26 12 -35 32 -45 33 -251 23 -45 -3 -84 1 -97 7 -15 8
-40 9 -74 4 -59 -9 -58 -9 -60 -35 -4 -43 2 -63 21 -69 23 -7 54 -71 45 -93
-4 -11 -8 -12 -20 -2 -8 7 -22 10 -30 6 -8 -3 -15 0 -15 6 0 6 -3 9 -6 6 -3
-4 0 -16 6 -28 11 -20 10 -21 -9 -10 -16 8 -28 7 -51 -5 -33 -17 -50 -13 -50
11 0 12 -4 13 -21 4 -27 -15 -37 -5 -21 21 9 15 10 24 3 33 -6 7 -8 16 -4 19
3 4 3 7 0 7 -4 0 -13 -13 -22 -30 -17 -33 -36 -38 -59 -15 -16 17 -81 20 -91
5 -11 -19 6 -50 28 -51 17 -1 18 -2 4 -6 -19 -5 -87 33 -87 48 0 5 10 23 21
38 12 16 18 34 14 40 -10 17 -27 2 -20 -19 4 -12 -1 -19 -15 -23 -12 -3 -20
-13 -20 -26 0 -18 -6 -21 -40 -21 -34 0 -40 -3 -40 -21 0 -11 -5 -17 -10 -14
-7 4 -7 12 0 25 5 10 10 26 10 34 0 14 -3 14 -20 -1 -11 -10 -20 -25 -20 -35
0 -26 -14 -22 -30 7 -18 34 -63 32 -68 -3 -4 -27 -22 -29 -22 -2 0 13 -5 18
-15 14 -9 -4 -16 3 -21 20 -10 43 -34 32 -35 -16 0 -24 -3 -36 -6 -28 -4 8
-13 20 -21 26 -13 9 -13 12 2 17 16 6 16 8 0 32 -9 14 -32 33 -51 42 -22 10
-32 21 -29 30 3 7 -1 16 -9 19 -20 8 -19 24 1 24 12 0 15 7 12 25 -3 14 -1 25
3 25 5 0 9 10 9 22 0 21 0 21 14 2 14 -18 15 -18 21 -1 5 11 1 25 -10 37 -10
11 -15 23 -12 27 4 3 7 0 7 -8 1 -8 7 -3 14 10 l14 24 8 -24 8 -24 7 25 c7 24
7 24 8 3 1 -28 15 -29 41 -3 24 24 67 26 107 5 15 -8 46 -17 67 -20 l40 -7
-32 -20 c-18 -11 -32 -26 -32 -34 0 -20 12 -17 34 10 22 26 40 22 81 -21 12
-12 34 -25 51 -28 16 -4 39 -11 50 -17 15 -7 44 -7 92 1 39 6 89 11 111 11 22
0 43 5 46 10 9 14 55 12 55 -2 0 -9 4 -8 10 2 5 8 9 29 9 45 -1 17 -3 22 -6
13 -4 -16 -8 -15 -31 7 -15 14 -30 25 -34 25 -5 0 -8 8 -8 19 0 20 -23 45 -33
34 -4 -3 -18 5 -32 20 -20 19 -24 31 -19 51 3 14 12 26 19 26 7 0 16 6 19 13
5 9 7 9 12 0 5 -11 13 -11 51 4 43 15 33 14 348 28 61 2 126 7 145 10 19 2 65
7 102 10 37 3 82 7 100 10 75 11 347 14 353 5 3 -6 19 -10 36 -10 16 0 29 -4
29 -9 0 -13 39 -25 73 -23 15 1 40 -4 55 -11 15 -8 44 -17 66 -21 21 -4 46
-11 55 -15 19 -10 84 -31 95 -31 4 0 5 36 3 79 -3 57 -8 84 -20 96 -10 9 -17
27 -17 40 0 13 -5 27 -11 30 -16 10 -24 -4 -11 -17 7 -7 12 -19 12 -28 0 -12
-2 -12 -9 -1 -5 8 -16 11 -30 6 -15 -4 -21 -3 -19 7 2 9 -6 12 -24 10 -16 -1
-38 3 -50 9 -39 21 -66 19 -86 -5 -20 -27 -57 -41 -66 -27 -4 5 -15 8 -26 6
-11 -2 -22 0 -25 6 -4 5 -13 5 -25 -1 -11 -6 -21 -6 -24 -1 -4 5 -28 8 -54 6
-26 -2 -52 1 -59 7 -7 5 -29 10 -50 11 -21 0 -44 5 -52 11 -7 6 -38 10 -67 10
-30 -1 -54 2 -54 5 0 4 -12 6 -27 5 -16 -1 -28 -3 -28 -4 0 -1 -13 -4 -29 -6
-17 -2 -42 -12 -58 -24 -24 -18 -28 -18 -28 -4 0 11 -5 14 -16 10 -9 -4 -22
-2 -29 4 -8 7 -15 7 -19 1 -3 -5 -32 -7 -63 -5 -47 3 -62 9 -80 29 -13 15 -23
21 -23 15 0 -7 -6 -8 -19 0 -11 5 -31 10 -45 10 -14 0 -26 4 -26 9 0 5 -13 11
-30 15 -16 3 -30 11 -30 19 0 26 -122 44 -172 24 -40 -15 -50 -16 -69 -7 -13
7 -19 7 -19 0 0 -16 -18 -12 -39 9 -14 14 -16 22 -8 30 8 8 6 15 -9 25 -18 14
-18 15 6 25 14 5 20 10 13 10 -6 1 -14 9 -16 19 -4 16 -5 16 -6 0 -1 -19 -41
-26 -41 -8 0 6 7 10 15 10 8 0 15 4 15 9 0 5 -8 7 -19 4 -10 -3 -22 0 -25 6
-8 13 31 34 50 27 8 -3 14 -1 14 4 0 6 -5 10 -10 10 -7 0 -6 8 1 22 8 14 14
18 17 10 5 -16 22 -5 22 14 0 8 -7 14 -15 14 -8 0 -15 6 -15 14 0 28 38 5 45
-27 6 -28 8 -29 14 -12 7 18 8 18 18 1 9 -16 13 -16 33 -6 12 7 37 12 56 12
19 0 35 6 38 15 3 8 10 12 15 8 6 -3 31 15 56 40 36 35 54 45 80 45 18 0 38
-6 44 -14 18 -21 59 -26 64 -7 4 13 5 13 6 -1 0 -10 10 -27 21 -38 16 -16 19
-28 15 -54 -7 -34 14 -64 35 -51 5 3 10 -1 10 -9 0 -9 4 -16 9 -16 5 0 16 -3
25 -6 12 -5 16 1 17 22 2 27 2 27 9 -6 l7 -35 2 38 c1 24 5 36 12 32 30 -19
52 80 26 120 -14 21 -14 106 -2 163 6 26 11 31 26 27 13 -4 19 -1 19 9 0 12
-10 16 -40 16 -37 0 -41 3 -46 29 -5 24 -13 31 -53 41 -25 7 -51 19 -57 26 -7
8 -24 12 -43 10 -28 -3 -31 -1 -25 17 5 17 3 19 -16 14 -16 -4 -20 -3 -12 5
15 15 4 38 -18 38 -11 0 -22 5 -25 10 -4 6 -14 9 -23 8 -11 -2 -16 3 -14 15 2
10 -3 17 -13 17 -8 0 -15 4 -15 10 0 5 -11 12 -25 16 -14 3 -25 13 -25 21 0
18 -25 44 -34 36 -3 -4 -6 1 -6 11 0 9 -7 19 -15 22 -8 4 -15 10 -15 14 0 4
-15 24 -33 44 -23 25 -39 35 -50 30 -10 -4 -19 0 -23 9 -3 9 -13 13 -22 10
-15 -4 -15 -3 -2 6 8 6 23 11 33 11 24 0 22 21 -3 27 -32 9 -23 20 13 15 26
-4 30 -2 20 9 -19 19 -16 47 7 59 11 6 20 19 20 30 0 10 5 22 10 25 6 4 8 11
4 16 -3 5 -9 7 -14 4 -5 -3 -8 15 -7 40 1 25 5 45 10 45 4 0 7 15 7 34 0 26
-4 33 -17 32 -14 -1 -17 5 -15 27 2 15 -1 27 -7 27 -14 0 -14 16 0 80 7 34 16
50 26 50 10 0 14 6 10 20 -4 14 2 25 19 36 13 9 24 23 24 31 0 9 6 13 15 9 8
-3 21 2 30 10 17 18 20 34 5 34 -5 0 -10 6 -10 14 0 19 29 48 41 41 5 -4 9 9
10 27 1 52 9 93 20 96 5 2 9 12 9 22 0 10 5 22 11 26 6 3 8 16 5 28 -3 12 2
42 11 66 9 25 17 64 17 88 1 36 -2 42 -20 42 -35 0 -26 43 11 53 17 5 48 14
70 20 78 23 380 -5 390 -37 9 -30 13 -196 4 -196 -5 0 -10 19 -10 43 -1 23 -4
33 -6 23 -4 -15 -7 -16 -14 -5 -10 16 -4 -56 13 -143 7 -37 19 -65 34 -79 13
-12 24 -28 24 -36 0 -8 12 -13 29 -13 42 0 45 28 15 166 -29 138 -43 336 -25
358 6 7 20 16 30 19 18 4 19 0 14 -49 -6 -53 -6 -53 20 -49 14 3 29 1 32 -5 3
-5 17 -10 29 -10 18 0 25 -7 30 -30 4 -22 11 -30 27 -30 16 0 19 -4 13 -17 -4
-10 -8 -34 -8 -53 -1 -31 2 -35 24 -36 14 0 31 -4 38 -8 7 -4 38 -6 69 -5 36
2 58 -1 61 -9 2 -6 9 -9 16 -6 7 3 23 0 37 -5 l24 -10 -27 0 c-18 -1 -28 -6
-28 -16 0 -9 6 -12 15 -9 8 4 15 1 15 -6 0 -7 7 -10 15 -6 11 4 15 -2 16 -27
0 -18 3 -26 6 -19 7 19 51 14 73 -8 12 -12 26 -18 31 -14 6 4 15 1 19 -6 5 -7
13 -9 21 -4 12 7 51 7 140 -1 37 -4 75 12 52 22 -9 3 -10 10 -3 23 11 20 -5
70 -22 70 -10 0 1 52 13 60 12 8 69 120 69 136 0 20 28 17 39 -5 6 -10 24 -24
40 -31 26 -11 29 -15 20 -37 -5 -14 -19 -33 -32 -43 l-22 -18 25 -27 c20 -21
31 -25 56 -20 21 4 35 1 44 -10 17 -20 30 -19 30 4 0 29 46 54 87 48 23 -4 43
-1 58 9 19 12 28 13 46 4 20 -11 21 -10 14 6 -12 27 -14 84 -4 84 18 0 8 18
-13 24 -23 6 -23 7 -3 18 27 15 35 28 35 58 0 20 -2 22 -10 10 -8 -12 -10 -11
-10 8 0 16 -6 22 -22 22 -12 0 -18 3 -15 7 6 6 -18 24 -53 39 -8 3 -33 14 -55
24 -73 34 -180 66 -212 64 -28 -2 -33 1 -33 19 0 17 2 19 9 8 8 -12 14 -12 43
0 25 11 93 14 298 14 146 0 256 1 245 3 -11 2 -25 8 -30 12 -12 10 -221 24
-330 23 -90 -1 -306 -20 -370 -33 -27 -5 -72 -12 -100 -15 -27 -3 -108 -13
-180 -22 -71 -9 -147 -15 -167 -14 -20 1 -39 -3 -43 -9 -3 -5 -18 -7 -32 -4
-20 5 -24 4 -18 -6 6 -10 1 -12 -19 -8 -14 3 -29 1 -32 -4 -3 -5 -15 -6 -26
-3 -12 4 -27 0 -39 -11 -16 -14 -19 -15 -14 -2 8 21 68 46 140 58 182 30 257
42 325 51 41 5 111 14 155 20 81 11 148 14 174 8 7 -2 16 2 19 10 3 8 0 11 -7
7 -6 -4 -11 -1 -11 8 0 9 -5 16 -11 16 -5 0 -7 5 -4 10 3 6 13 10 22 10 9 0
30 10 47 23 50 37 83 47 129 41 32 -5 47 -2 59 10 9 9 26 16 37 16 11 0 23 5
26 10 3 6 22 10 41 10 34 0 72 15 87 35 4 7 10 6 15 -1 4 -7 20 -12 37 -12 16
0 31 -5 33 -11 4 -13 51 -14 71 -2 8 5 11 16 8 24 -9 24 -129 77 -173 76 -22
0 -69 8 -106 19 -56 17 -68 18 -68 6 0 -16 -23 -18 -48 -5 -9 4 -41 11 -70 14
-45 5 -53 4 -48 -8 3 -9 0 -15 -8 -15 -9 0 -12 7 -9 19 3 14 -2 20 -21 23 -14
3 -28 3 -31 0 -12 -12 -102 -8 -132 5 -38 17 -61 18 -123 5 -47 -11 -111 -5
-121 10 -4 6 -31 2 -65 -7 -75 -21 -100 -23 -97 -7 4 19 -35 14 -84 -10 -32
-16 -46 -19 -55 -10 -8 8 -17 8 -31 0 -16 -8 -22 -7 -29 6 -8 14 -12 15 -25 4
-9 -7 -30 -14 -47 -15 -49 -2 -70 -7 -81 -19 -17 -19 -67 -27 -76 -12 -6 9 -9
3 -10 -17 -1 -18 -3 -23 -6 -12 -3 10 -10 16 -16 14 -16 -5 -21 -75 -7 -92 9
-11 6 -20 -15 -39 l-27 -25 26 -24 c14 -13 26 -31 26 -39 0 -22 63 -78 89 -78
17 0 21 -4 17 -18 -3 -9 -2 -32 3 -49 7 -24 6 -35 -5 -43 -19 -16 -64 -99 -64
-119 0 -14 -2 -14 -10 -1 -6 10 -10 11 -10 3 0 -10 -43 -12 -182 -11 -181 2
-266 14 -261 37 2 6 -7 11 -20 11 -20 0 -22 4 -21 50 1 27 6 62 12 77 6 16 15
52 20 81 8 46 7 54 -9 62 -10 6 -24 10 -33 10 -12 0 -13 6 -5 32 12 45 11 58
-5 58 -17 0 -29 27 -16 35 5 3 0 15 -11 26 -13 13 -18 27 -14 42 5 16 4 18 -3
8 -8 -11 -11 -9 -17 8 -6 19 -26 26 -65 23 -33 -3 -56 9 -68 36 -12 28 -15 29
-49 22 -21 -5 -44 -5 -54 1 -22 12 -62 12 -55 0 7 -10 -103 -3 -153 10 -23 5
-39 5 -48 -2 -7 -6 -24 -9 -38 -7 -14 3 -28 2 -31 -3 -2 -5 -19 -6 -36 -2 -18
3 -29 2 -26 -3 11 -17 -47 -10 -66 8 -15 14 -22 15 -28 6 -6 -10 -10 -10 -17
1 -5 7 -13 11 -19 7 -6 -3 -13 -2 -16 3 -3 4 -25 11 -48 15 -23 4 -45 11 -48
16 -3 5 -38 11 -78 14 -60 4 -73 2 -82 -12 -8 -15 -9 -14 -10 6 0 12 -4 22
-10 22 -5 0 -10 -7 -10 -15 0 -22 -17 -18 -23 5 -3 11 -11 20 -19 19 -10 0
-10 -2 0 -6 6 -2 12 -12 12 -20 0 -10 -6 -13 -16 -9 -9 3 -20 6 -25 6 -6 0 -7
9 -4 21 5 14 3 19 -7 17 -7 -1 -28 4 -45 12 -24 11 -31 20 -27 32 4 14 0 18
-20 18 -28 0 -31 6 -16 30 8 13 10 12 10 -2 0 -10 4 -18 9 -18 13 0 23 34 15
54 -4 10 -1 16 9 16 10 0 13 8 10 28 l-4 27 18 -27 c25 -39 43 -36 43 7 0 21
-6 38 -17 45 -13 8 -14 13 -5 16 14 6 17 44 3 44 -14 0 -1 73 16 86 11 10 11
13 1 17 -8 4 -5 8 10 13 14 4 19 11 14 18 -4 6 -9 36 -11 66 -1 30 -6 57 -12
58 -5 2 -8 22 -7 45 1 41 1 41 5 7 6 -49 23 -63 24 -19 1 23 3 27 6 11 6 -29
23 -19 23 14 0 20 5 24 30 24 21 0 30 -5 30 -17 0 -9 3 -13 7 -10 3 4 13 1 21
-5 11 -10 16 -9 23 5 6 9 16 17 24 17 8 0 12 6 9 13 -3 8 9 18 31 26 34 12 35
14 21 30 -14 15 -13 20 7 49 25 36 67 47 45 12 -7 -11 -16 -20 -20 -20 -5 0
-8 -5 -8 -11 0 -15 42 -1 58 19 11 15 14 15 22 2 15 -23 61 26 54 57 -4 13 -2
23 5 23 6 0 14 -18 17 -40 6 -39 24 -66 24 -36 0 8 3 21 6 30 4 11 1 16 -10
16 -9 0 -16 5 -16 10 0 6 9 10 20 10 11 0 20 4 20 8 0 5 6 16 13 26 12 16 16
17 36 5 18 -12 23 -12 31 1 5 9 6 16 0 18 -11 4 8 61 28 84 21 25 42 5 42 -41
0 -21 6 -46 14 -56 13 -18 14 -18 25 4 7 12 21 31 32 42 17 17 20 17 25 4 8
-19 24 -9 24 15 0 10 6 21 13 23 7 3 5 6 -5 6 -22 1 -23 8 -2 28 14 14 16 14
21 -6 9 -36 24 -23 18 17 -6 37 11 80 22 55 9 -24 23 -13 17 13 -5 21 -4 25 6
19 10 -6 12 0 7 26 -3 19 -3 28 0 22 10 -26 23 -11 23 27 0 31 4 40 18 40 12
0 14 2 4 8 -21 14 -3 43 22 36 14 -3 28 2 40 15 11 12 25 21 33 21 7 0 13 5
13 10 0 22 40 9 46 -15 7 -26 24 -35 24 -11 0 7 8 16 19 19 15 3 18 0 14 -17
-4 -19 -3 -19 9 -4 25 29 65 27 71 -4 4 -23 4 -23 6 1 1 18 5 22 21 18 11 -3
22 -1 25 3 3 4 15 6 26 3 14 -4 25 0 31 11 5 9 20 16 33 16 46 0 115 42 115
70 0 7 8 9 20 5 15 -5 20 -2 20 12 0 10 3 14 8 8 4 -6 19 -16 35 -22 25 -12
27 -11 27 13 0 28 27 44 41 23 8 -12 11 -11 19 3 6 10 20 15 35 14 14 -2 30 3
36 10 6 8 29 14 50 14 22 0 48 5 58 12 15 9 28 9 55 1 33 -10 36 -9 36 9 0 13
4 17 13 11 6 -4 23 -9 37 -10 65 -8 90 -15 99 -31 9 -15 10 -15 11 -1 0 21 41
32 73 20 14 -6 28 -7 31 -4 3 3 12 0 21 -7 8 -7 15 -9 15 -4 0 5 5 2 10 -6 9
-13 11 -13 19 -1 8 12 14 12 39 2 17 -7 40 -10 51 -6 29 9 45 -3 30 -21 -9
-11 -9 -18 -1 -26 9 -9 12 -9 12 1 0 7 7 10 18 7 9 -3 32 -2 50 3 26 8 32 7
32 -5 0 -8 4 -13 10 -9 10 6 50 -13 62 -30 5 -6 8 -6 8 -1 0 6 7 1 15 -10 8
-11 15 -14 15 -6 0 20 23 14 61 -18 20 -16 55 -34 78 -39 24 -5 50 -16 60 -25
10 -9 25 -16 33 -16 9 0 18 -7 22 -15 3 -8 12 -15 21 -15 8 0 15 -7 15 -15 0
-8 9 -15 19 -15 11 0 22 -4 25 -9 3 -4 23 -11 44 -15 25 -3 47 -16 63 -34 27
-32 59 -88 59 -104 0 -6 16 -32 35 -58 19 -26 35 -53 35 -59 0 -6 5 -11 10
-11 6 0 10 -18 10 -40 0 -22 4 -40 9 -40 5 0 12 -17 16 -37 4 -21 12 -49 20
-63 7 -14 15 -46 19 -71 4 -26 18 -77 31 -114 14 -37 25 -85 25 -106 0 -21 5
-41 10 -44 6 -3 10 -15 10 -26 0 -10 4 -19 8 -19 9 0 52 -89 52 -108 0 -6 18
-30 40 -52 22 -22 40 -50 40 -61 0 -11 7 -22 15 -25 8 -4 15 -12 15 -19 0 -7
7 -18 15 -25 8 -7 15 -27 15 -44 0 -24 3 -27 10 -16 7 11 10 5 10 -23 0 -21 7
-51 15 -67 9 -17 15 -32 15 -35 0 -3 0 -6 1 -7 13 -45 77 -325 84 -368 3 -25
2 -56 -4 -70 -5 -14 -10 -19 -10 -12 -1 15 -12 26 -55 60 -39 30 -52 28 -27
-4 22 -28 28 -54 12 -54 -6 0 -16 8 -23 18 -7 10 -21 21 -30 25 -16 6 -18 -1
-18 -52 0 -31 -7 -78 -16 -104 -18 -52 -16 -82 6 -83 8 0 22 -4 32 -8 9 -4 32
-3 52 2 l36 10 0 -39 c0 -28 -4 -39 -15 -39 -19 0 -19 -12 1 -58 13 -30 15
-61 9 -172 -4 -94 -3 -130 4 -120 6 8 11 31 11 50 1 53 17 112 33 121 9 5 17
33 21 69 l7 61 51 -3 52 -3 14 -50 c7 -27 18 -75 24 -106 6 -33 20 -68 34 -84
13 -16 25 -24 26 -19 0 5 2 14 3 19 2 6 4 26 5 45 l2 35 7 -30 c6 -26 9 -20
15 35 9 80 -1 170 -20 185 -10 7 -18 47 -25 133 -5 68 -7 127 -4 132 8 12 45
13 45 2 0 -5 11 -14 25 -20 19 -9 25 -9 26 1 1 20 17 -25 24 -66 5 -31 9 -37
25 -32 27 9 34 -12 8 -26 l-22 -12 22 -17 c12 -10 22 -29 22 -42 0 -27 9 -43
30 -51 8 -3 1 -6 -16 -6 -21 -1 -34 5 -38 16 -6 14 -9 15 -15 4 -10 -16 -2
-53 9 -46 9 6 40 -22 40 -35 0 -5 -7 -15 -15 -24 -22 -22 -19 -34 20 -72 32
-30 49 -64 26 -49 -5 3 -13 0 -17 -6 -3 -6 -1 -15 5 -19 14 -8 23 -100 10
-100 -5 0 -9 -13 -9 -30 0 -16 5 -30 11 -30 5 0 7 -5 4 -10 -4 -6 -11 -8 -16
-5 -13 9 -11 -2 7 -37 11 -22 12 -28 2 -22 -25 16 -38 12 -38 -9 0 -18 2 -19
10 -7 8 13 10 12 10 -4 0 -12 5 -16 15 -12 21 8 31 -20 15 -39 -10 -12 -9 -15
4 -15 18 0 22 -15 6 -25 -15 -9 -12 -31 6 -49 8 -9 12 -21 8 -27 -5 -9 -11 -6
-21 6 -7 11 -13 14 -13 8 0 -6 8 -21 18 -34 15 -19 18 -42 18 -114 -1 -87 -2
-90 -23 -87 -26 4 -31 -13 -8 -26 20 -11 25 -63 6 -70 -9 -3 -11 1 -6 17 4 12
2 21 -4 21 -7 0 -11 -21 -10 -52 1 -29 3 -45 6 -35 3 11 10 16 20 13 8 -3 19
-6 25 -6 5 0 8 -6 5 -12 -2 -7 0 -21 5 -30 5 -11 5 -25 -1 -37 -8 -14 -6 -23
9 -36 19 -17 20 -17 21 1 0 12 3 14 6 6 3 -7 -5 -24 -17 -37 -20 -22 -21 -25
-7 -45 17 -25 12 -50 -9 -50 -8 0 -14 -4 -14 -10 0 -5 10 -10 23 -10 21 -1 21
-1 3 -15 -21 -16 -14 -50 9 -41 8 3 17 1 20 -4 4 -6 1 -10 -4 -10 -23 0 -10
-29 31 -67 21 -20 14 -33 -18 -33 -19 0 -24 -5 -24 -24 0 -19 4 -23 20 -19 11
3 20 1 20 -5 0 -14 -26 -33 -41 -30 -8 2 -15 -7 -17 -21 -3 -19 0 -22 13 -17
12 4 18 0 22 -14 3 -11 10 -20 16 -20 7 0 7 -4 -1 -12 -10 -10 -15 -10 -22 2
-9 13 -10 13 -10 0 0 -8 4 -31 10 -50 6 -22 6 -38 0 -44 -13 -13 -13 -46 0
-46 6 0 10 -9 10 -21 0 -11 5 -30 11 -41 7 -13 7 -23 2 -27 -12 -7 -9 -104 3
-123 5 -7 10 -37 11 -66 2 -45 0 -52 -12 -42 -7 6 -16 7 -19 2 -3 -5 5 -15 18
-22 40 -21 60 -83 31 -94 -8 -3 -15 -15 -15 -26 0 -25 9 -26 26 -2 12 16 13
15 22 -8 6 -17 5 -35 -4 -57 -18 -43 -18 -46 6 -40 29 7 25 -2 -6 -13 -23 -9
-26 -15 -20 -40 3 -17 1 -30 -4 -30 -6 0 -10 -16 -10 -35 0 -24 5 -35 15 -35
8 0 15 -8 14 -17 0 -11 -3 -13 -6 -5 -2 6 -17 12 -31 11 l-27 -1 25 -7 c23 -6
25 -11 26 -76 1 -39 5 -89 9 -113 4 -23 4 -42 -1 -42 -5 0 -9 -14 -10 -31 -1
-22 2 -27 8 -17 6 8 8 -15 5 -65 -2 -43 0 -80 4 -83 5 -3 9 -14 9 -25 0 -10 5
-19 10 -19 6 0 10 7 10 15 0 8 5 15 10 15 18 0 10 -22 -16 -45 -26 -22 -26
-24 -14 -73 13 -55 9 -71 -18 -73 -10 -1 -7 -4 8 -8 16 -4 25 -14 25 -26 0
-11 4 -26 8 -32 5 -7 4 -13 -1 -13 -6 0 -12 -21 -14 -46 l-3 -45 32 3 c17 1
35 -1 39 -5 4 -4 -10 -8 -32 -8 -33 -2 -34 -3 -10 -6 23 -4 26 -7 15 -15 -11
-8 -10 -9 4 -4 11 4 31 -3 48 -15 33 -23 63 -19 55 8 -3 10 -8 68 -11 128 -3
61 -8 118 -11 128 -3 10 1 20 11 23 12 5 14 9 4 14 -7 5 -13 21 -15 37 -1 15
-7 80 -13 143 -7 75 -7 116 -1 118 6 2 10 13 10 25 0 16 -3 18 -9 8 -6 -9 -10
-3 -14 20 -2 19 0 40 5 47 7 7 7 12 1 12 -6 0 -13 59 -18 133 -4 72 -9 148
-10 167 -13 160 -25 345 -30 444 -3 65 -7 121 -9 125 -2 3 -7 87 -11 186 -4
99 -9 183 -11 186 -2 3 -6 63 -9 132 -4 69 -11 178 -15 243 -16 202 -18 368
-6 376 8 5 7 8 -1 8 -8 0 -13 13 -13 30 0 17 4 30 10 30 5 0 7 7 3 16 -5 13
-7 13 -14 2 -6 -8 -9 0 -9 24 0 20 4 40 10 43 6 3 10 13 10 21 0 8 -4 12 -10
9 -14 -9 -13 1 5 35 9 18 11 31 5 35 -6 3 -10 0 -10 -7 -1 -9 -3 -9 -9 2 -5 8
-10 49 -13 91 -3 63 -1 73 10 62 7 -7 21 -13 30 -12 14 0 14 2 2 6 -21 8 -30
24 -31 58 0 24 -2 26 -8 11 -12 -31 -20 -4 -11 34 5 23 8 28 9 13 1 -16 6 -21
16 -17 17 7 20 31 4 36 -13 4 -29 117 -17 124 4 3 9 -10 9 -28 l1 -33 8 35 c4
19 10 42 14 51 4 9 1 22 -6 30 -12 12 -15 45 -9 82 2 14 22 7 44 -18 12 -13
45 -33 72 -44 l50 -20 -45 6 c-42 6 -44 5 -31 -11 12 -15 12 -19 -2 -34 -16
-15 -17 -15 -17 6 0 13 -4 21 -9 18 -13 -8 0 -58 13 -53 7 3 13 -6 14 -21 l2
-25 -30 32 c-17 17 -32 31 -35 31 -12 0 -3 -31 10 -36 20 -8 19 -40 0 -48 -13
-4 -8 -16 25 -57 29 -37 40 -60 40 -85 0 -25 4 -34 17 -34 14 0 14 -2 -2 -20
-17 -19 -17 -21 0 -40 17 -19 45 -27 45 -14 0 4 -8 13 -17 20 -17 13 -17 15
-1 27 10 8 15 23 12 42 -2 17 -2 25 2 18 3 -7 12 -9 20 -6 8 3 14 0 14 -6 0
-6 -8 -11 -17 -12 -11 0 -13 -3 -5 -6 6 -2 12 -14 12 -25 0 -16 5 -19 29 -13
24 5 29 2 34 -17 4 -12 1 -27 -5 -33 -8 -7 -9 -6 -4 3 10 17 -10 15 -29 -4
-20 -21 -14 -40 12 -37 15 2 22 -5 26 -22 4 -22 2 -23 -11 -13 -8 7 -25 13
-36 13 -16 0 -21 6 -21 24 0 13 -6 26 -14 29 -10 3 -12 0 -8 -12 4 -10 7 -26
7 -37 0 -14 7 -19 25 -19 23 0 25 -4 25 -41 0 -38 -2 -40 -27 -39 -50 4 -53 1
-53 -39 0 -22 -5 -42 -12 -44 -9 -4 -8 -6 2 -6 8 0 22 4 30 9 13 8 13 11 1 19
-10 6 -11 17 -6 37 7 24 9 26 12 9 6 -31 37 -95 46 -95 5 0 17 5 27 10 19 10
70 -5 70 -20 0 -14 -53 -31 -64 -20 -14 14 -26 12 -26 -5 0 -9 -9 -15 -25 -15
-14 0 -25 -4 -25 -10 0 -5 20 -10 45 -10 29 0 45 4 45 13 0 8 3 7 9 -3 11 -16
4 -33 -10 -25 -5 4 -9 -9 -9 -27 -1 -36 -15 -61 -42 -71 -19 -7 -25 -27 -8
-27 18 0 10 -22 -10 -27 -11 -3 -20 -11 -20 -19 0 -8 -6 -11 -15 -8 -8 4 -15
2 -15 -4 0 -14 26 -33 33 -25 17 17 5 -36 -13 -54 -20 -22 -20 -22 0 -20 12 1
20 8 20 19 0 10 5 18 11 18 8 0 9 11 5 31 -5 27 -4 30 8 20 18 -15 30 4 40 62
4 22 13 37 21 37 9 0 12 -6 9 -15 -4 -11 0 -15 16 -15 16 0 20 4 16 15 -3 9 0
15 9 15 8 0 15 5 15 12 0 6 7 3 15 -8 8 -10 14 -23 15 -29 0 -5 -4 -4 -9 4 -7
11 -13 10 -32 -8 -16 -15 -31 -20 -46 -16 -17 4 -23 1 -23 -10 0 -11 6 -15 18
-11 22 7 47 -8 38 -23 -4 -6 -18 -11 -32 -11 -30 0 -31 -16 -2 -39 15 -13 21
-28 20 -54 -1 -38 13 -48 36 -25 9 9 18 5 38 -15 14 -14 23 -30 20 -35 -3 -6
1 -13 10 -16 11 -4 18 1 21 14 6 24 10 25 29 6 18 -19 18 -26 -1 -26 -8 0 -15
-7 -15 -15 0 -9 -9 -15 -22 -15 -13 -1 -36 -7 -53 -15 -30 -13 -29 -13 28 -14
32 -1 57 3 57 9 0 6 7 10 15 10 8 0 15 7 15 15 0 18 5 18 31 5 10 -6 19 -18
19 -27 0 -11 7 -14 25 -10 14 2 24 2 21 0 -2 -3 0 -19 5 -36 l8 -32 -18 23
c-24 27 -37 28 -44 2 -3 -11 -10 -20 -16 -20 -17 0 -13 37 4 44 13 5 13 9 3
25 -13 22 -30 9 -21 -16 4 -10 -1 -14 -18 -12 -56 5 -59 3 -59 -57 0 -36 -4
-53 -10 -49 -6 4 -8 15 -5 26 4 11 2 19 -4 19 -16 0 -13 -42 4 -64 13 -17 14
-15 21 20 4 22 8 50 8 64 1 16 8 26 20 28 30 6 41 -14 22 -42 -19 -30 -21 -59
-3 -53 6 2 11 14 9 25 -2 12 1 22 7 22 5 0 11 -12 13 -27 4 -35 48 -48 48 -14
0 12 -6 21 -15 21 -19 0 -19 16 0 24 8 3 19 -2 24 -11 8 -15 10 -15 26 0 9 9
22 17 28 16 9 0 8 -2 0 -6 -18 -7 -16 -23 2 -23 8 0 15 -4 15 -10 0 -5 -7 -10
-15 -10 -8 0 -15 5 -15 10 0 6 -5 10 -10 10 -7 0 -9 -20 -6 -52 3 -31 2 -43
-3 -28 -5 18 -9 21 -15 12 -6 -10 -11 -10 -22 -1 -19 16 -18 -5 1 -25 8 -8 12
-21 9 -29 -3 -8 2 -21 10 -30 21 -21 20 -34 -4 -42 -11 -3 -20 -11 -20 -17 0
-6 9 -8 20 -5 15 4 20 0 21 -16 0 -21 1 -21 10 1 5 13 6 35 3 48 -4 15 -2 24
5 24 6 0 11 -13 11 -30 0 -17 5 -30 12 -30 9 0 9 -3 0 -12 -7 -7 -12 -16 -12
-20 0 -13 38 -9 43 5 3 6 6 -3 6 -20 1 -18 -1 -33 -4 -33 -2 0 -21 9 -41 21
-32 18 -36 18 -30 3 4 -10 -1 -25 -11 -36 -16 -18 -15 -19 5 -34 26 -18 29
-34 6 -34 -11 0 -14 -5 -10 -16 3 -9 6 -20 6 -25 0 -15 40 -10 46 6 7 17 34
21 34 5 0 -5 9 -10 20 -10 11 0 20 -4 20 -9 0 -13 -25 -20 -49 -14 -12 3 -21
1 -21 -6 0 -6 7 -11 15 -11 9 0 15 -10 15 -26 0 -15 -4 -23 -11 -19 -10 7 -59
-38 -59 -54 0 -5 7 -14 15 -21 18 -15 22 -126 4 -114 -6 3 -9 17 -6 30 2 12 0
29 -4 36 -6 8 -9 -1 -9 -24 0 -40 24 -73 57 -80 10 -2 22 -13 28 -26 10 -23
25 -30 25 -11 0 8 5 7 16 -2 11 -9 17 -10 23 -1 4 7 12 8 21 2 13 -9 13 -10 0
-10 -25 -1 11 -20 38 -20 12 0 22 -5 22 -11 0 -14 -72 -2 -82 14 -5 8 -8 7 -8
-3 -1 -12 -4 -11 -15 4 -13 17 -15 18 -21 2 -3 -9 -4 -28 -2 -41 4 -17 1 -25
-8 -25 -10 0 -14 15 -14 50 0 57 -16 71 -54 50 -13 -6 -39 -16 -57 -20 -29 -7
-30 -8 -9 -10 21 -1 18 -4 -15 -15 l-40 -13 40 -1 c22 -1 47 -6 55 -11 17 -11
10 -13 -44 -10 -37 2 -56 -10 -56 -35 0 -5 4 -5 8 2 4 6 25 14 46 18 35 7 38
6 33 -9 -4 -10 -7 -22 -7 -27 0 -6 -4 -8 -10 -4 -5 3 -7 12 -3 20 3 8 0 15 -6
15 -6 0 -11 -4 -11 -10 0 -5 -6 -10 -14 -10 -17 0 -28 -24 -20 -45 8 -20 41
-19 52 1 9 17 32 12 32 -7 0 -6 -4 -8 -9 -5 -4 3 -17 -1 -27 -9 -19 -14 -19
-15 1 -20 23 -7 52 -45 34 -45 -5 0 -8 -4 -5 -9 4 -5 -3 -7 -14 -4 -14 4 -20
0 -20 -11 0 -23 -17 -20 -23 4 -8 30 -22 24 -23 -10 -1 -16 3 -27 8 -24 16 10
20 -27 4 -45 -21 -23 -20 -28 4 -34 23 -6 27 -37 5 -37 -7 0 -18 7 -23 16 -14
24 -24 0 -13 -29 6 -14 15 -28 20 -32 17 -10 13 -38 -4 -31 -17 6 -21 -9 -5
-19 12 -8 37 15 41 39 5 24 23 21 27 -4 2 -11 11 -20 20 -21 11 0 12 -3 5 -6
-16 -6 -17 -43 -2 -43 5 0 8 -4 4 -10 -3 -5 -12 -7 -19 -4 -8 3 -17 1 -21 -5
-3 -7 2 -11 14 -11 12 0 21 -5 21 -11 0 -5 -4 -8 -9 -5 -4 3 -23 1 -40 -4 -18
-5 -39 -6 -47 -3 -16 6 -20 43 -4 43 6 0 10 5 10 10 0 6 -17 -1 -37 -15 -21
-14 -45 -25 -53 -25 -8 0 -21 -9 -27 -19 -18 -28 8 -48 42 -33 14 7 25 16 25
22 0 5 5 10 11 10 16 0 39 -26 39 -44 0 -20 19 -21 26 -1 7 17 49 20 59 5 9
-14 -46 -70 -67 -70 -10 0 -18 7 -18 15 0 8 -11 17 -25 21 -29 7 -58 -16 -53
-43 2 -11 -6 -22 -19 -28 -26 -11 -30 -25 -8 -25 9 0 20 -11 25 -24 10 -26 56
-63 66 -53 4 3 -8 15 -25 25 -29 18 -30 20 -12 25 27 7 27 27 1 27 -11 0 -20
5 -20 11 0 6 9 13 20 16 24 6 26 19 5 27 -8 3 -15 10 -15 16 0 21 26 9 55 -25
33 -38 45 -43 45 -20 0 8 9 15 19 15 11 0 21 6 24 13 2 7 8 8 13 3 5 -5 4 -11
-3 -13 -9 -3 -9 -10 -1 -28 8 -19 7 -27 -6 -40 -9 -10 -16 -31 -15 -53 1 -20
3 -29 6 -19 6 23 23 22 23 -3 0 -25 -35 -27 -49 -3 -9 16 -12 16 -21 3 -7 -11
-5 -16 10 -18 12 -2 20 -11 20 -23 0 -15 -5 -19 -17 -15 -10 3 -24 2 -31 -2
-18 -12 -9 -105 13 -139 22 -33 32 -15 15 27 -11 28 -6 70 9 70 4 0 13 16 21
35 14 36 30 47 30 20 0 -8 -4 -15 -10 -15 -5 0 -10 -7 -10 -15 0 -19 14 -19
30 0 16 20 60 20 60 0 0 -8 -6 -12 -13 -9 -7 2 -26 -2 -41 -10 -27 -14 -27
-15 -8 -25 31 -16 63 -14 56 4 -4 11 0 15 16 15 18 0 20 -3 11 -13 -7 -9 -7
-17 0 -24 14 -14 0 -45 -19 -38 -12 4 -13 3 -2 -10 7 -8 9 -22 5 -32 -6 -15
-10 -11 -19 17 -9 26 -21 38 -45 46 -18 6 -37 17 -41 25 -7 10 -12 11 -21 2
-17 -17 19 -58 51 -58 22 0 25 -5 25 -38 0 -35 18 -52 27 -25 2 6 4 -4 4 -23
0 -19 3 -43 7 -53 7 -18 8 -18 21 -1 12 17 13 17 19 -4 3 -14 1 -21 -8 -21
-23 0 -45 12 -45 25 0 16 -57 17 -63 1 -3 -7 -1 -19 3 -26 8 -13 -6 -48 -25
-62 -6 -5 -3 -8 7 -8 9 0 21 -7 26 -16 5 -9 14 -14 21 -10 16 10 14 26 -5 26
-8 0 -12 5 -9 10 9 15 19 12 34 -12 12 -19 11 -23 -3 -34 -12 -9 -14 -17 -8
-35 5 -13 7 -30 5 -36 -3 -7 0 -13 5 -13 5 0 12 14 16 30 6 34 37 40 70 15 10
-8 22 -12 27 -10 4 3 10 1 14 -5 3 -5 -1 -10 -9 -10 -9 0 -16 -4 -16 -10 0 -5
-7 -10 -15 -10 -8 0 -12 6 -9 14 7 18 -11 29 -36 21 -23 -7 -27 -35 -5 -35 8
0 25 -11 39 -25 15 -15 31 -22 40 -19 9 3 16 1 16 -5 0 -6 9 -11 19 -11 11 0
22 -6 25 -12 3 -7 3 1 0 17 -4 25 -4 27 6 12 7 -10 9 -24 7 -31 -3 -7 -1 -19
3 -27 8 -11 10 -11 14 1 2 8 7 22 9 30 3 8 6 0 6 -17 1 -20 -4 -33 -11 -33 -7
0 -2 -7 10 -16 12 -8 26 -13 30 -10 4 2 14 1 22 -5 13 -7 13 -9 0 -9 -8 0 -2
-7 14 -15 33 -17 56 -19 56 -5 0 6 -8 10 -17 10 -15 0 -16 2 -3 10 11 7 20 3
33 -15 10 -14 23 -22 29 -19 6 4 14 1 18 -7 11 -17 91 -36 137 -32 27 2 34 0
24 -6 -12 -8 -9 -11 15 -17 16 -4 33 -9 38 -12 5 -3 24 -6 43 -8 19 -2 43 -6
54 -9 12 -4 21 -1 25 9 5 12 10 11 29 -9 12 -14 32 -25 44 -25 11 0 21 -4 21
-8 0 -4 13 -13 29 -19 25 -9 31 -8 34 6 3 13 5 13 12 -4 12 -29 22 -33 73 -28
34 3 43 2 32 -6 -11 -8 -5 -12 30 -18 25 -4 49 -6 54 -5 4 2 14 -2 20 -8 7 -5
16 -6 20 -2 4 4 6 0 4 -8 -2 -11 6 -15 32 -15 19 0 38 -4 41 -9 4 -5 18 -8 33
-8 14 0 26 -5 26 -10 0 -6 6 -8 14 -5 7 3 19 0 25 -6 17 -17 89 -36 113 -29
14 3 19 1 14 -6 -4 -6 9 -18 31 -28 96 -43 144 -67 149 -75 3 -5 14 -9 24 -9
10 0 20 -4 22 -9 4 -10 58 -44 107 -67 19 -8 40 -22 48 -30 19 -19 39 -18 47
2 3 9 6 794 6 1745 0 1259 -3 1729 -11 1729 -7 0 -9 9 -4 28 15 51 14 81 -1
75 -10 -4 -12 0 -8 11 3 9 11 16 18 16 7 0 6 4 -2 9 -12 7 -12 12 -1 30 11 17
11 25 1 41 -9 15 -10 26 -2 40 5 10 10 38 9 62 -1 41 -1 42 -11 15 -5 -15 -14
-24 -20 -21 -6 4 -7 9 0 13 5 3 12 29 16 56 5 35 4 46 -3 35 -6 -8 -11 -25
-11 -37 0 -12 -4 -25 -10 -28 -6 -4 -10 6 -10 22 0 36 24 105 33 96 7 -6 8 -5
12 34 2 22 -36 59 -48 47 -9 -10 4 -34 18 -34 16 0 30 -18 21 -27 -3 -3 -13 0
-22 7 -13 12 -17 11 -24 0 -5 -8 -4 -22 1 -33 6 -10 8 -26 4 -35 -5 -13 -10
-8 -22 22 -10 24 -12 40 -6 45 6 3 9 21 8 39 -1 17 2 32 7 32 9 0 11 51 2 74
-3 9 -10 16 -16 16 -5 0 -6 -4 -3 -10 3 -5 2 -17 -3 -26 -7 -12 -9 -2 -8 34 0
27 4 45 7 40 4 -6 12 -7 19 -3 10 6 9 11 -4 21 -16 11 -14 15 24 34 23 12 39
17 36 11 -4 -5 -2 -12 3 -16 7 -4 10 152 11 439 0 331 -3 446 -11 452 -9 5
-10 1 -7 -14 4 -12 2 -20 -2 -17 -13 8 -40 -6 -40 -21 0 -14 -55 -15 -77 -1
-18 11 -24 -8 -13 -38 9 -23 8 -26 -5 -21 -8 3 -15 0 -15 -6 0 -6 -9 -1 -19
11 -20 23 -36 16 -20 -9 13 -22 11 -40 -6 -40 -9 0 -12 6 -9 15 4 8 1 15 -5
15 -6 0 -11 -8 -12 -17 0 -15 -2 -15 -9 2 -7 17 -9 17 -9 3 -1 -10 -6 -18 -12
-18 -6 0 -9 9 -6 20 3 11 1 38 -4 61 -8 32 -7 44 3 50 10 7 11 12 1 29 -16 25
-16 47 0 53 6 2 4 3 -5 2 -11 -2 -18 3 -18 14 0 9 -7 44 -15 76 -11 39 -12 61
-6 63 8 3 7 10 0 24 -6 11 -8 35 -4 54 4 25 2 34 -7 32 -14 -3 -31 93 -23 130
4 17 0 25 -17 31 -13 5 -26 7 -29 5 -11 -6 -19 70 -9 80 7 7 10 1 10 -17 0
-15 5 -27 10 -27 6 0 8 16 4 43 -7 47 -24 74 -24 39 0 -12 -4 -22 -10 -22 -5
0 -10 13 -10 30 0 16 -6 33 -13 37 -8 4 -14 22 -14 38 0 130 -3 157 -18 151
-11 -4 -15 2 -15 22 0 44 11 72 29 72 13 1 13 2 -3 11 -14 9 -21 8 -28 -2 -6
-10 -8 -2 -3 22 7 47 -12 94 -32 77 -11 -9 -14 -5 -13 23 1 19 -5 52 -14 74
-11 30 -15 34 -16 17 0 -35 -32 -24 -42 16 -8 31 -28 45 -28 20 0 -9 -4 -8
-11 2 -8 11 -9 8 -5 -15 5 -22 4 -26 -3 -15 -9 13 -12 12 -25 -5 -14 -18 -15
-18 -16 -2 0 9 -4 17 -9 17 -5 0 -12 8 -15 18 -3 9 -3 0 0 -20 6 -43 -6 -54
-29 -27 -22 25 -22 25 13 62 31 33 37 47 20 47 -5 0 -10 10 -10 21 0 12 -7 27
-16 34 -9 6 -22 33 -29 60 -11 47 -14 50 -46 51 -19 1 -28 -1 -21 -3 6 -3 12
-16 12 -29 0 -13 5 -24 10 -24 6 0 10 5 10 12 0 20 17 -4 24 -34 5 -24 2 -30
-26 -45 -24 -12 -28 -18 -17 -21 20 -4 32 -73 15 -84 -7 -5 -12 2 -14 17 -2
14 -8 25 -14 25 -5 0 -8 -6 -5 -14 3 -8 2 -27 -3 -43 -8 -28 -8 -28 -10 -3 -1
14 -1 35 -1 47 1 11 -3 24 -8 28 -7 4 -11 -11 -11 -44 0 -27 -4 -53 -10 -56
-6 -4 -7 11 -4 39 l7 46 -41 0 c-23 0 -43 5 -45 13 -3 6 -6 -5 -6 -25 -1 -42
-9 -68 -22 -68 -5 0 -9 12 -9 26 0 35 -24 26 -27 -10 -3 -37 -13 -47 -13 -13
0 19 -5 27 -17 26 -11 0 -13 -3 -5 -6 6 -2 12 -15 12 -28 0 -27 15 -41 26 -24
5 8 13 4 25 -12 16 -21 18 -22 24 -6 4 9 11 14 16 11 14 -8 11 -24 -5 -24 -8
0 -17 -6 -19 -12 -4 -10 -6 -10 -6 0 -1 6 -8 12 -16 12 -8 0 -12 -6 -10 -12 3
-7 1 -19 -4 -27 -8 -12 -13 -12 -35 2 -21 14 -24 22 -19 52 7 42 -11 48 -23 8
l-8 -28 -6 35 -7 35 -3 -35 c-3 -34 -3 -34 -10 10 l-7 45 -1 -58 c-2 -71 -22
-68 -22 4 0 27 -4 49 -9 49 -6 0 -12 19 -14 43 -2 23 -3 0 -3 -51 l1 -93 -35
-30 c-25 -20 -42 -28 -60 -24 -14 2 -19 2 -13 -1 10 -4 10 -11 2 -26 -9 -17
-13 -18 -20 -7 -6 10 -10 5 -15 -18 -8 -38 -14 -41 -32 -12 -11 17 -11 25 3
45 8 13 11 24 5 24 -5 0 -10 12 -10 26 0 22 -4 25 -22 21 -12 -3 -30 -2 -40 4
-13 7 -18 6 -18 -4 0 -8 9 -17 21 -20 18 -5 19 -9 9 -27 -7 -13 -8 -26 -2 -33
12 -16 22 -57 13 -57 -3 0 -12 9 -19 20 -7 12 -17 18 -23 14 -8 -4 -9 3 -5 22
3 16 1 36 -4 44 -9 13 -11 13 -20 0 -9 -13 -11 -13 -21 0 -8 11 -12 12 -16 3
-2 -7 -13 -13 -23 -13 -10 0 -22 -5 -26 -12 -5 -8 2 -9 24 -5 20 4 32 2 36 -6
3 -9 7 -8 15 3 5 8 13 12 16 8 10 -10 -5 -49 -16 -43 -11 7 -28 -34 -22 -51 2
-7 0 -15 -6 -19 -6 -3 -11 -3 -12 2 0 4 -2 18 -3 30 -1 12 1 20 6 17 4 -3 8 4
8 15 0 24 -29 28 -60 9 -10 -7 -23 -9 -27 -5 -4 5 -1 12 7 17 8 5 11 12 8 16
-8 8 -38 -20 -38 -35 0 -6 -4 -11 -10 -11 -16 0 -12 31 6 51 11 12 14 25 9 36
-8 17 -8 17 -13 -2 -2 -11 -8 -22 -12 -25 -11 -7 -16 -83 -6 -98 4 -7 16 -12
28 -12 16 0 19 5 14 23 -4 19 -1 23 19 25 13 1 27 -3 30 -8 3 -6 -1 -10 -10
-10 -11 0 -15 -5 -11 -15 3 -9 -1 -18 -9 -21 -25 -10 -17 -24 13 -24 43 0 75
-35 68 -73 -4 -17 -11 -36 -17 -42 -7 -6 -10 -6 -9 0 2 6 2 29 1 53 l-1 44
-39 -3 c-27 -2 -46 3 -59 14 -27 24 -56 23 -49 -3 4 -17 2 -20 -15 -14 -16 5
-19 2 -16 -18 2 -12 9 -22 16 -20 19 4 11 -40 -8 -45 -13 -4 -13 -3 0 6 12 8
10 14 -13 37 -15 15 -27 29 -27 33 0 3 14 15 30 26 32 22 37 34 18 53 -9 9 -8
12 5 12 13 0 17 9 17 40 0 22 5 40 10 40 6 0 10 7 10 16 0 10 -6 14 -15 10
-10 -3 -15 1 -16 12 0 11 -2 13 -6 4 -3 -7 -17 -18 -32 -25 l-26 -11 33 -4
c34 -3 45 -22 13 -22 -10 0 -21 -9 -24 -20 -9 -34 -37 -24 -38 13 -2 30 -2 30
-6 5 -2 -16 -8 -28 -14 -28 -5 0 -12 -18 -15 -40 -4 -25 -14 -45 -25 -51 -11
-5 -19 -16 -19 -24 0 -8 -5 -14 -12 -12 -7 1 -15 -15 -19 -38 -8 -48 -4 -55
16 -29 9 12 14 14 15 6 0 -15 -19 -55 -31 -62 -5 -3 -15 -21 -23 -40 -15 -34
-15 -34 -16 -8 0 37 -11 63 -20 48 -5 -8 -12 -7 -24 5 -16 16 -18 16 -31 -1
-13 -18 -14 -17 -20 11 -13 57 -15 50 -9 -30 6 -83 -7 -148 -21 -111 -5 11 -3
21 5 26 9 5 9 9 1 14 -12 8 -41 -16 -41 -34 0 -6 -10 -3 -24 7 -13 10 -22 22
-19 26 3 4 11 3 18 -3 14 -11 25 6 25 38 -1 15 -2 15 -11 0 -11 -19 -39 -25
-39 -9 0 6 9 16 20 24 20 14 19 15 -20 21 -35 5 -40 9 -40 33 0 20 -3 24 -11
16 -12 -12 4 -53 20 -53 4 0 8 -14 9 -31 0 -23 -3 -29 -14 -25 -8 3 -14 -1
-14 -8 0 -8 6 -16 13 -19 16 -6 -21 -36 -45 -37 -10 0 -18 -7 -18 -15 0 -20
39 -20 46 0 4 8 10 12 15 9 6 -3 16 0 24 6 11 9 15 9 15 1 0 -6 -4 -11 -10
-11 -5 0 -10 -7 -10 -15 0 -8 5 -15 12 -15 6 0 3 -6 -8 -14 -10 -8 -21 -11
-24 -7 -9 13 -49 10 -61 -6 -11 -13 -9 -14 16 -11 33 4 43 -13 21 -35 -18 -18
-11 -27 21 -27 17 0 23 5 21 17 -5 29 30 28 38 -1 3 -14 10 -26 15 -26 5 0 9
-7 9 -15 0 -19 -10 -19 -24 1 -11 14 -15 14 -45 -3 -33 -18 -42 -38 -18 -38 6
0 18 -5 25 -12 14 -14 16 -53 2 -53 -5 0 -10 11 -10 25 0 18 -4 23 -15 19 -8
-4 -21 -1 -29 5 -11 9 -15 7 -18 -12 -6 -30 0 -47 18 -47 8 0 11 6 8 15 -4 9
0 15 10 15 23 0 20 -14 -9 -41 -17 -17 -22 -31 -19 -46 6 -21 -14 -53 -32 -53
-5 0 -3 5 4 12 17 17 15 53 -3 68 -19 16 -32 5 -16 -13 12 -15 4 -77 -10 -77
-5 0 -9 5 -9 10 0 7 -6 8 -17 2 -21 -12 -74 2 -90 25 -7 9 -13 34 -13 56 0 38
-1 39 -27 33 -16 -4 -38 -18 -51 -32 -20 -22 -25 -24 -39 -12 -15 12 -16 10
-9 -14 4 -17 2 -28 -4 -28 -5 0 -10 6 -10 14 0 8 -6 16 -14 19 -8 3 -14 22
-14 51 -1 25 -6 55 -12 65 -13 25 -13 84 0 76 16 -10 12 15 -5 31 -20 21 -19
61 2 73 16 9 16 11 -2 31 -15 17 -16 23 -6 29 11 7 11 9 0 13 -9 3 -13 32 -15
99 -1 52 -5 102 -9 111 -4 9 -4 22 0 29 4 6 3 14 -3 18 -6 3 -12 60 -14 131
-2 69 -7 131 -11 137 -4 7 -5 24 -1 38 4 15 2 25 -5 25 -7 0 -11 22 -11 58 0
31 -4 84 -10 117 -5 33 -12 92 -15 130 -3 39 -10 111 -16 160 -14 129 -23 241
-34 425 -3 47 -8 104 -11 128 l-6 42 46 0 c33 0 46 4 46 14 0 20 -18 24 -70
17 -44 -6 -45 -7 -47 -45 -2 -63 -23 -116 -42 -108 -14 5 -14 4 1 -11 9 -10
22 -16 29 -15 6 2 13 -10 15 -27 2 -16 6 -43 8 -60 19 -138 32 -378 24 -447
-1 -13 1 -43 5 -68 5 -24 5 -41 1 -37 -4 4 -13 -1 -20 -11 -13 -16 -13 -16
-14 0 0 19 -35 42 -49 34 -13 -9 -21 21 -13 47 10 26 8 59 -3 77 -6 10 -2 12
13 8 15 -4 22 -2 22 9 0 8 -5 11 -10 8 -6 -3 -14 5 -20 19 -6 16 -21 28 -42
34 -18 4 -38 18 -43 29 -6 12 -16 27 -21 34 -6 8 -12 34 -13 58 -2 86 -73 166
-177 202 -38 13 -72 22 -76 21 -5 -1 -8 2 -8 8 0 5 -11 10 -24 10 -27 0 -86
52 -86 76 0 8 -9 14 -19 14 -11 0 -40 20 -65 45 -37 36 -46 52 -46 80 0 19 -5
35 -11 35 -6 0 -8 8 -4 19 3 10 -1 23 -9 30 -16 14 -76 11 -76 -3 0 -6 -5 -5
-11 1 -6 6 -17 9 -23 7 -7 -3 -21 4 -31 16 -10 11 -26 20 -36 20 -10 0 -20 4
-24 10 -3 5 -12 7 -20 3 -11 -4 -13 -1 -9 11 3 9 1 16 -5 16 -6 0 -11 -4 -11
-9 0 -18 -151 76 -191 119 -14 15 -29 29 -35 31 -19 8 -65 91 -86 154 -12 37
-29 70 -40 76 -10 5 -18 17 -18 26 0 9 -3 14 -6 10 -9 -9 7 -128 16 -122 8 5
20 -28 20 -55 -1 -13 -2 -13 -13 1 -7 8 -20 18 -29 22 -10 3 -18 13 -18 22 0
16 -8 18 -50 16 -25 -2 -37 8 -142 105 -26 24 -53 44 -60 44 -7 0 -24 9 -38
20 -14 11 -30 20 -37 20 -7 0 -24 11 -39 25 -15 14 -29 23 -31 21 -6 -6 -64
14 -81 27 -8 6 -21 11 -31 12 -23 2 -109 66 -116 88 -4 10 -17 17 -36 18 -47
2 -50 3 -63 19 -13 17 -51 40 -65 40 -6 0 -27 11 -47 25 -39 27 -47 29 -57 18z
m-3100 -3238 c10 0 23 4 30 8 14 9 22 -22 12 -48 -4 -11 -8 -44 -8 -72 -1 -43
-4 -53 -18 -55 -67 -6 -94 -5 -91 4 2 5 7 9 11 9 4 -1 16 8 28 20 20 20 20 22
3 40 -9 10 -21 16 -25 13 -17 -10 -9 79 8 98 17 19 17 19 24 0 4 -10 16 -18
26 -17z m153 -102 c9 -26 15 -32 18 -20 4 19 22 24 22 6 0 -6 7 -9 15 -5 11 4
15 -2 15 -23 0 -22 6 -30 24 -35 14 -3 28 -15 31 -26 4 -11 10 -18 15 -15 12
7 23 -12 15 -25 -5 -8 -11 -7 -21 1 -11 9 -14 7 -14 -13 0 -14 3 -28 7 -31 3
-4 8 -21 10 -39 2 -17 7 -36 12 -42 15 -21 20 -45 8 -40 -8 3 -13 -13 -15 -48
-3 -58 -22 -93 -22 -42 0 22 -7 34 -24 43 -13 7 -29 25 -35 38 -10 22 -9 28 9
40 20 14 27 57 11 68 -6 3 -9 13 -9 23 2 31 -13 92 -22 92 -6 0 -10 -6 -10
-14 0 -8 -10 -16 -22 -18 -18 -2 -30 7 -52 40 -27 41 -28 45 -16 83 17 49 32
50 50 2z m-133 -145 c1 -34 -1 -66 -5 -72 -3 -6 -7 -15 -8 -21 0 -5 -2 -15 -2
-21 -1 -7 -13 -19 -27 -28 -23 -15 -28 -15 -55 -1 -31 16 -35 34 -21 84 9 33
57 39 65 8 4 -17 8 -19 17 -10 20 20 2 46 -27 40 -21 -4 -25 -1 -21 13 3 13 0
17 -9 13 -17 -6 -19 13 -2 23 7 4 23 9 37 10 13 2 29 8 34 13 19 19 23 12 24
-51z m5713 23 c7 -12 12 -12 23 -3 7 7 17 9 20 5 11 -10 8 -73 -3 -73 -5 0
-10 -4 -10 -10 0 -23 20 -7 31 25 16 42 29 45 29 7 0 -16 -8 -32 -20 -40 -11
-7 -20 -19 -20 -28 0 -13 4 -13 28 4 48 33 49 33 50 4 0 -15 -4 -32 -10 -39
-6 -7 -5 -14 3 -18 8 -6 8 -9 -1 -15 -9 -6 -8 -15 4 -38 9 -17 16 -33 16 -37
0 -13 -44 -4 -55 12 -11 15 -13 15 -24 -5 -7 -13 -16 -20 -22 -17 -5 4 -14 3
-21 -1 -7 -5 -5 -11 8 -21 18 -13 18 -15 1 -24 -24 -14 -12 -29 21 -25 15 2
19 1 9 -1 -10 -3 -21 -11 -24 -20 -3 -8 -16 -19 -29 -24 -24 -8 -34 -39 -13
-39 5 0 7 -5 4 -10 -5 -8 -11 -8 -20 0 -9 8 -14 7 -18 -4 -3 -8 -1 -17 6 -19
9 -3 9 -9 -1 -26 -10 -18 -10 -21 3 -21 8 0 15 9 15 20 0 11 5 20 11 20 18 0
3 -57 -23 -90 -25 -31 -45 -40 -30 -14 12 22 3 64 -14 64 -17 0 -18 -12 -3
-27 7 -7 9 -19 6 -27 -13 -33 -26 -14 -33 44 -3 33 -10 57 -15 54 -5 -3 -10 5
-11 18 0 13 -4 3 -8 -22 l-7 -45 -1 53 c-2 39 2 52 12 52 15 0 29 29 24 51 -4
17 -37 43 -45 35 -4 -3 1 -14 10 -24 19 -21 22 -42 7 -42 -5 0 -10 7 -10 16 0
8 -4 12 -10 9 -5 -3 -10 -3 -11 2 0 4 -2 23 -4 41 -2 25 1 32 11 28 8 -3 14 1
14 9 0 8 -7 15 -15 15 -16 0 -18 12 -9 47 4 13 10 20 15 17 5 -3 9 0 9 5 0 6
-4 11 -9 11 -5 0 -13 9 -16 20 -4 11 -10 18 -14 15 -5 -2 -6 7 -3 20 3 16 11
25 23 25 11 0 19 7 19 18 0 9 9 28 19 41 l18 23 -2 -28 c-1 -16 0 -21 2 -11 5
21 23 23 23 2 0 -8 4 -15 9 -15 17 0 23 20 11 35 -7 9 -8 15 -2 15 5 0 12 8
15 19 5 22 43 23 57 2z m-3550 -337 c52 -8 115 -21 140 -29 l45 -14 -35 -1
c-32 -1 -31 -3 8 -16 26 -8 -6 -44 -40 -44 l-31 0 26 -26 c16 -16 42 -28 66
-31 28 -4 42 -11 46 -24 4 -11 11 -19 16 -19 6 0 7 -5 3 -11 -3 -6 -17 -8 -29
-5 -13 3 -26 2 -29 -2 -2 -4 -17 -8 -33 -7 -25 0 -28 4 -28 32 0 29 -2 32 -25
27 -18 -4 -21 -3 -11 4 11 8 9 16 -10 42 -19 25 -30 31 -51 28 -18 -3 -28 0
-28 8 0 17 17 27 25 14 8 -13 25 -13 25 0 0 22 -39 51 -71 53 -19 1 -40 6 -48
11 -8 5 -17 3 -22 -5 -6 -9 -12 -10 -16 -4 -5 6 -30 18 -58 27 l-50 17 60 -5
c33 -3 103 -12 155 -20z m1647 -55 c-5 -18 -2 -20 26 -13 61 14 274 0 314 -21
16 -8 31 -15 36 -15 18 0 104 -46 125 -67 45 -44 18 -50 -64 -12 -22 11 -54
19 -72 19 -17 0 -34 5 -37 10 -3 6 -22 10 -41 10 -19 0 -34 4 -34 8 0 5 -15 9
-32 10 -18 1 -56 8 -85 15 -42 11 -55 11 -75 1 -37 -21 -85 -17 -102 8 -22 31
-20 47 7 58 34 14 40 12 34 -11z m-2971 -806 c14 -13 24 -34 24 -50 0 -20 3
-24 9 -14 5 8 16 11 29 7 23 -8 62 23 62 49 0 8 5 15 10 15 6 0 10 11 10 25 0
14 5 25 11 25 6 0 9 18 8 48 -3 45 -2 48 31 63 33 15 41 15 125 -2 50 -10 100
-18 113 -19 15 0 21 -4 16 -11 -5 -9 1 -10 20 -5 15 4 32 3 39 -1 18 -11 40
-13 57 -6 8 3 31 5 50 4 27 -1 31 1 20 8 -19 13 -13 13 28 2 22 -7 30 -6 26 1
-4 7 2 8 17 2 13 -4 33 -8 43 -9 11 -1 22 -7 24 -13 5 -17 22 -15 22 3 0 11
12 15 53 15 28 0 58 -4 66 -9 18 -12 61 7 61 27 0 11 8 13 34 9 31 -5 93 10
138 34 13 7 18 6 18 -2 0 -8 13 -10 40 -5 39 6 56 -6 25 -18 -8 -3 -15 -10
-15 -16 0 -5 7 -10 15 -10 8 0 15 -4 15 -10 0 -14 20 -12 53 4 15 8 27 11 27
5 0 -19 19 -8 22 14 2 17 11 23 36 25 20 2 32 9 32 18 0 8 7 14 15 14 10 0 15
-10 15 -27 0 -46 16 -60 28 -27 l10 29 2 -30 c1 -29 2 -29 11 -7 5 13 13 21
18 17 6 -3 8 -12 4 -20 -3 -9 1 -15 8 -15 30 0 45 -81 25 -135 -26 -69 -55
-111 -85 -121 -18 -6 -37 -17 -42 -25 -5 -8 -9 -10 -9 -5 0 4 -9 -2 -21 -15
-14 -17 -22 -20 -25 -11 -8 17 -27 15 -21 -3 4 -8 2 -17 -4 -21 -6 -3 -8 -13
-5 -21 4 -9 -1 -17 -12 -20 -22 -5 -43 -37 -52 -78 -4 -16 -12 -29 -18 -28 -7
2 -12 -4 -12 -13 0 -8 4 -13 9 -9 5 3 12 1 15 -4 4 -5 2 -12 -4 -16 -16 -10
-11 -37 11 -62 20 -20 22 -35 25 -165 2 -143 9 -204 25 -213 4 -3 13 -39 20
-80 8 -48 18 -75 26 -75 9 0 12 -11 8 -35 -3 -27 -1 -35 12 -35 10 0 13 -5 9
-17 -4 -10 3 -26 18 -42 16 -17 26 -40 28 -66 2 -32 7 -39 21 -37 26 4 20 -13
-10 -29 -16 -7 -38 -23 -51 -36 -19 -17 -21 -26 -13 -41 8 -16 5 -21 -25 -35
-19 -10 -33 -21 -30 -25 3 -5 9 -27 15 -50 7 -33 6 -42 -5 -42 -7 0 -11 6 -8
14 3 8 1 17 -4 20 -5 3 -12 -12 -16 -34 -3 -22 -11 -40 -16 -40 -13 0 -13 17
0 25 13 8 13 62 0 70 -5 3 -12 -6 -16 -20 -3 -14 -10 -25 -16 -25 -5 0 -7 9
-3 19 6 21 -10 38 -20 21 -4 -6 -23 -7 -46 -4 -26 4 -39 3 -39 -5 0 -6 -8 -11
-19 -11 -25 0 -45 -25 -38 -50 3 -11 1 -23 -4 -26 -5 -3 -9 10 -9 28 0 25 -3
29 -10 18 -5 -8 -10 -11 -10 -6 0 5 -7 2 -16 -5 -9 -8 -27 -12 -40 -11 -28 4
-71 -23 -80 -50 -5 -16 -12 -19 -34 -15 -15 3 -32 1 -39 -6 -10 -9 -15 -8 -25
6 -18 23 -23 22 -31 -10 -3 -15 -9 -23 -13 -17 -4 5 -33 9 -65 10 -32 0 -61 5
-65 11 -4 5 -23 13 -44 17 -23 4 -42 16 -53 32 -18 28 -13 39 20 47 11 3 -5 5
-36 6 -55 1 -56 0 -51 -24 6 -32 -10 -32 -24 0 -10 20 -8 28 13 54 14 17 31
27 39 24 8 -3 14 1 14 11 0 9 -4 16 -10 16 -5 0 -10 8 -10 18 0 14 -12 21 -43
29 -43 9 -44 9 -39 -16 4 -25 4 -26 -12 -6 -14 18 -15 18 -16 3 0 -18 -20 -26
-20 -9 0 6 5 13 10 16 6 3 10 15 10 26 0 16 -5 19 -19 14 -27 -8 -36 12 -11
25 11 6 20 8 20 5 0 -3 9 -1 20 5 27 14 25 27 -5 34 -16 4 -25 13 -25 27 0 13
-6 19 -17 17 -14 -2 -17 3 -15 22 8 69 1 93 -20 72 -9 -9 -9 -12 1 -12 7 0 9
-5 5 -12 -5 -8 -10 -7 -18 4 -6 8 -19 17 -30 21 -15 6 -16 10 -6 22 9 10 9 15
1 15 -6 0 -11 5 -11 11 0 5 10 3 22 -5 28 -20 38 -20 38 -1 0 25 -33 85 -47
85 -15 0 -15 80 1 91 4 4 3 9 -2 13 -6 3 -13 -3 -17 -14 -3 -11 -11 -20 -16
-20 -12 0 -12 23 0 35 5 6 11 51 13 101 3 83 1 90 -14 86 -10 -2 -18 1 -18 7
0 6 -8 11 -17 11 -15 0 -15 1 1 13 16 12 16 14 2 26 -12 11 -14 17 -5 27 6 8
7 14 3 14 -5 0 -10 18 -10 40 -1 39 -1 40 35 41 31 1 33 2 11 8 -29 8 -30 13
-6 65 14 30 20 36 27 25 6 -10 9 -3 9 24 0 26 -4 37 -15 37 -8 0 -15 5 -15 10
0 6 -9 10 -20 10 -10 0 -24 9 -30 19 -6 13 -17 17 -30 14 -19 -5 -26 8 -21 45
1 6 -7 12 -19 12 -11 0 -20 5 -20 10 0 6 8 10 18 10 9 0 -3 9 -27 21 -25 11
-50 18 -57 15 -8 -3 -11 1 -8 9 9 21 -45 85 -71 85 -22 0 -51 43 -40 60 3 5 1
11 -4 15 -6 3 -8 12 -4 20 3 8 1 15 -3 15 -11 0 -17 114 -8 160 5 32 8 26 31
-65 18 -71 32 -106 49 -122z m769 -1853 c8 7 19 10 22 6 4 -4 1 -11 -6 -15
-17 -11 -4 -54 13 -48 7 3 19 1 27 -3 8 -5 19 -4 26 2 10 8 15 4 22 -13 10
-28 3 -45 -12 -30 -17 17 -29 13 -23 -9 3 -11 9 -30 12 -41 4 -13 2 -19 -3
-16 -6 4 -8 -4 -5 -20 3 -17 0 -29 -12 -35 -11 -6 -14 -17 -10 -34 5 -18 2
-24 -10 -24 -9 0 -16 -4 -16 -8 0 -4 -15 -13 -32 -20 -27 -10 -30 -14 -18 -23
11 -7 6 -8 -20 -3 -44 8 -47 11 -32 34 15 24 16 50 2 50 -5 0 -10 -12 -10 -26
0 -22 -2 -24 -14 -14 -8 6 -12 18 -9 26 3 8 0 14 -6 14 -6 0 -11 17 -11 40 0
23 5 40 11 40 7 0 9 9 5 22 -4 17 2 29 21 45 l26 23 -27 10 c-31 11 -33 25 -6
40 11 6 17 16 14 25 -4 11 -2 13 9 9 8 -3 18 0 23 7 5 9 11 7 20 -6 11 -15 16
-16 29 -5z"/>
<path d="M8218 8930 c-10 -6 -15 -17 -11 -25 3 -9 0 -22 -7 -30 -18 -21 -5
-30 24 -17 27 12 36 7 36 -20 0 -27 38 -24 42 4 3 23 35 33 54 17 14 -12 47
34 42 59 -3 14 -17 17 -83 19 -44 2 -88 -2 -97 -7z"/>
<path d="M4358 4433 c-26 -4 -88 -55 -88 -73 0 -9 35 -20 68 -20 12 0 22 -5
22 -11 0 -17 63 -69 85 -69 37 0 74 43 81 94 6 39 4 46 -10 46 -9 0 -19 6 -21
13 -3 6 -20 13 -38 14 -17 1 -41 4 -52 6 -11 2 -32 2 -47 0z"/>
<path d="M5700 2688 c0 -15 6 -45 14 -65 30 -78 56 -244 56 -357 0 -113 -28
-348 -42 -354 -5 -2 -8 -12 -8 -23 0 -10 -9 -34 -19 -52 -12 -21 -17 -44 -13
-62 3 -18 1 -26 -6 -21 -6 4 -12 -12 -15 -42 -2 -26 -17 -81 -32 -122 -15 -41
-29 -95 -31 -118 -1 -28 -9 -49 -21 -57 -14 -11 -16 -16 -5 -26 20 -21 14 -32
-13 -25 -24 6 -25 4 -25 -39 0 -57 1 -61 18 -57 9 2 12 -3 10 -15 -2 -10 -10
-17 -16 -16 -7 2 -12 -6 -12 -17 0 -12 7 -20 18 -21 13 0 12 -2 -5 -9 -13 -6
-23 -18 -23 -30 0 -11 -4 -20 -8 -20 -4 0 -8 -9 -9 -20 -1 -11 2 -18 8 -15 5
4 9 -1 9 -9 0 -8 -4 -17 -9 -20 -15 -9 21 -76 41 -76 13 0 18 -8 18 -25 0 -16
-6 -25 -15 -25 -8 0 -15 -7 -15 -15 0 -8 5 -15 11 -15 6 0 19 -10 30 -22 16
-19 18 -20 12 -4 -4 13 0 23 12 32 15 11 16 17 7 26 -7 7 -12 19 -12 27 1 13
4 12 15 -3 14 -18 15 -17 16 25 0 34 2 39 9 24 8 -18 9 -18 9 -2 1 10 8 39 16
65 8 26 19 97 25 157 5 61 14 144 19 185 6 41 15 118 21 170 6 52 17 156 26
230 22 188 29 506 14 600 -30 189 -41 234 -65 265 -14 19 -14 19 -15 -7z"/>
</g>
</svg>
