<?xml version="1.0" standalone="no"?>
<!DOCTYPE svg PUBLIC "-//W3C//DTD SVG 20010904//EN"
 "http://www.w3.org/TR/2001/REC-SVG-20010904/DTD/svg10.dtd">
<svg version="1.0" xmlns="http://www.w3.org/2000/svg"
 width="615.000000pt" height="566.000000pt" viewBox="0 0 615.000000 566.000000"
 preserveAspectRatio="xMidYMid meet">
<metadata>
Created by potrace 1.15, written by Peter Selinger 2001-2017
</metadata>
<g transform="translate(0.000000,566.000000) scale(0.100000,-0.100000)"
fill="#000000" stroke="none">
<path d="M0 5090 c0 -487 2 -570 14 -570 38 0 62 69 34 99 -11 11 -10 14 0 18
7 3 19 11 27 19 13 13 18 13 40 -3 13 -10 23 -23 20 -30 -5 -16 9 -25 29 -17
11 4 16 19 16 45 0 28 4 39 15 39 11 0 15 -11 15 -39 0 -28 5 -41 17 -45 15
-6 15 -8 3 -16 -12 -8 -12 -10 -1 -10 11 0 11 -3 1 -15 -10 -12 -10 -15 1 -16
8 -1 21 -2 29 -3 24 -2 19 -122 -6 -141 -12 -9 -14 -14 -6 -15 7 0 19 -15 27
-32 8 -18 23 -46 34 -62 14 -21 17 -35 11 -55 -5 -14 -11 -51 -14 -82 -6 -59
4 -76 39 -63 20 8 20 -20 0 -40 -17 -17 -20 -76 -4 -76 5 0 7 5 4 10 -3 6 -1
10 4 10 13 0 14 -17 2 -24 -5 -3 -7 -15 -4 -26 4 -14 0 -20 -11 -20 -22 0 -20
-17 3 -23 17 -4 19 -15 19 -123 -1 -66 2 -157 6 -204 4 -47 9 -466 13 -933 5
-752 4 -847 -10 -842 -11 5 -16 -4 -22 -31 -3 -21 -10 -33 -13 -27 -5 8 -10 7
-18 -1 -7 -8 -4 -18 13 -34 20 -20 23 -21 23 -5 1 18 30 -40 30 -58 0 -18 -21
-8 -29 14 -9 24 -19 26 -32 6 -4 -7 -25 -13 -46 -13 -21 1 -30 -1 -21 -3 15
-4 16 -8 7 -25 -7 -13 -8 -23 -1 -30 7 -7 14 -3 21 11 7 12 20 21 31 21 10 0
21 6 23 13 3 6 6 -5 6 -26 1 -27 -3 -36 -11 -31 -8 5 -9 -1 -5 -22 4 -23 2
-30 -11 -31 -10 -1 -24 -3 -32 -5 -9 -2 -15 4 -15 14 0 10 -5 18 -10 18 -6 0
-10 -4 -9 -10 1 -5 2 -26 3 -45 1 -45 23 -46 71 -5 35 30 50 37 50 23 0 -9
-50 -53 -60 -53 -4 0 -10 -9 -13 -21 -4 -15 -12 -20 -29 -17 -19 2 -24 10 -26
40 -4 49 -32 50 -58 3 -6 -11 -20 -21 -31 -23 -21 -3 -73 37 -73 56 0 6 -10
12 -22 14 -13 2 -23 8 -24 13 -1 19 -25 95 -29 95 -3 0 -5 -367 -5 -815 l0
-815 279 0 279 0 0 28 c0 28 -31 141 -68 245 -11 32 -18 62 -15 67 3 5 1 18
-4 29 -9 16 -3 30 35 83 26 34 51 68 56 73 9 10 -6 -38 -19 -58 -32 -52 -17
-277 18 -277 12 0 12 53 0 65 -10 11 -15 57 -12 114 l1 34 25 -23 c13 -12 22
-27 18 -33 -3 -6 -2 -7 4 -4 5 3 10 25 11 47 1 23 9 51 17 63 l15 21 0 -22 c0
-12 4 -22 10 -22 5 0 16 -12 24 -27 l15 -28 1 38 c0 23 -5 37 -12 37 -7 0 -14
12 -15 26 -1 25 0 26 44 19 42 -6 45 -5 38 12 -4 10 -12 36 -18 58 -6 22 -15
43 -20 46 -6 4 -6 22 -2 45 5 23 10 32 12 22 3 -10 9 -18 14 -18 6 0 8 -4 5
-9 -3 -5 6 -33 20 -63 32 -64 51 -107 58 -130 8 -26 36 -22 38 5 2 32 1 44 -6
72 -4 14 -2 25 4 25 5 0 10 -5 10 -11 0 -6 6 -17 14 -25 8 -8 20 -39 27 -69
11 -48 15 -55 36 -55 13 0 62 -15 111 -34 48 -19 106 -40 130 -47 29 -8 39
-15 30 -21 -10 -6 -9 -11 4 -18 9 -6 15 -17 12 -25 -3 -8 1 -21 10 -30 19 -19
10 -51 -9 -35 -22 18 -194 15 -239 -4 -49 -20 -41 -32 11 -15 54 18 161 16
201 -5 38 -19 38 -40 0 -44 -13 -2 -46 -21 -72 -42 -27 -22 -55 -40 -63 -40
-8 0 -13 -6 -10 -12 2 -7 20 -13 40 -13 21 0 37 -3 37 -7 0 -5 133 -8 295 -8
229 0 295 3 296 13 1 32 10 141 19 227 23 220 47 700 35 688 -5 -5 -18 -140
-40 -410 -8 -104 -19 -181 -23 -163 -2 11 -12 25 -21 32 -14 11 -14 12 4 13
20 1 20 1 0 16 -17 13 -18 16 -5 24 8 5 10 10 4 10 -14 0 -28 71 -25 123 1 20
-2 37 -8 37 -6 0 -9 20 -7 47 2 27 -1 58 -5 70 -5 14 -4 23 4 27 9 3 8 7 -3
15 -13 9 -12 11 4 11 19 0 19 1 2 13 -14 11 -16 18 -9 33 11 21 7 44 -8 44 -5
0 -9 -7 -9 -15 0 -10 -7 -15 -17 -13 -19 3 -25 -22 -8 -34 5 -5 -4 -5 -22 -2
-40 8 -56 -19 -54 -90 1 -28 -2 -64 -5 -79 -9 -42 -31 -17 -44 51 -6 31 -15
66 -20 77 -5 11 -11 34 -15 50 -3 17 -7 41 -10 54 -7 37 -49 141 -57 141 -9 0
2 -91 12 -105 15 -19 62 -170 66 -210 2 -22 6 -51 9 -63 8 -33 -11 -55 -36
-41 -10 5 -19 16 -19 24 0 8 -9 19 -19 24 -18 10 -19 8 -14 -29 6 -42 -1 -49
-26 -26 -26 23 -61 30 -61 12 0 -8 7 -19 16 -24 11 -6 13 -11 5 -16 -6 -4 -11
-23 -11 -42 0 -19 -4 -34 -10 -34 -5 0 -10 -7 -10 -15 0 -8 8 -15 17 -15 9 0
14 -2 11 -5 -3 -4 -18 -3 -33 1 -20 5 -23 9 -13 15 7 5 -13 6 -48 3 -59 -6
-63 -5 -94 25 -49 46 -50 29 -2 -28 41 -48 53 -81 31 -81 -5 0 -7 -4 -4 -10 4
-6 -9 -8 -36 -5 -43 6 -149 67 -149 86 0 25 -92 141 -194 246 -125 129 -157
173 -125 173 13 0 150 -84 214 -131 22 -16 48 -34 58 -40 16 -9 17 -8 8 9 -5
10 -26 38 -45 60 -19 23 -36 45 -38 50 -8 19 -75 56 -96 53 -13 -1 -28 2 -35
7 -7 5 -24 12 -39 16 -19 4 -28 13 -28 25 0 11 -5 21 -11 23 -17 6 2 42 47 90
22 23 53 68 68 100 15 31 40 69 56 85 16 15 30 31 30 35 0 4 11 24 25 44 14
20 22 40 20 44 -3 5 -1 19 4 33 5 14 7 28 4 31 -7 6 -43 -38 -43 -53 0 -18
-36 -71 -43 -64 -4 3 -7 -1 -7 -10 0 -17 -18 -33 -27 -23 -3 3 13 34 36 70 22
36 41 71 41 79 0 7 4 17 9 22 13 14 32 48 176 322 33 62 71 128 85 145 123
154 187 221 202 212 4 -3 5 1 3 8 -3 8 8 21 25 31 16 10 30 24 30 31 0 37 115
85 390 163 69 19 157 45 195 58 179 58 292 98 317 111 14 8 38 14 52 14 14 0
26 5 26 10 0 6 6 10 14 10 8 0 38 12 66 26 28 14 54 24 56 21 11 -11 -55 -170
-78 -187 -3 -3 -10 -19 -14 -35 -4 -17 -11 -35 -16 -42 -6 -7 -8 -17 -6 -24 2
-6 10 2 18 18 8 15 23 34 32 41 10 7 18 19 18 25 1 20 49 69 62 61 7 -4 8 -3
4 5 -4 6 0 14 8 17 9 3 16 12 16 20 0 7 25 42 55 78 30 35 55 69 55 74 0 5 6
15 14 21 12 10 13 6 6 -24 -9 -40 5 -109 21 -100 5 4 9 32 9 63 0 44 3 53 12
44 7 -7 13 -43 13 -85 2 -86 -3 -107 -20 -101 -9 4 -12 -1 -8 -14 3 -12 36
-36 82 -62 89 -47 151 -98 151 -121 0 -30 42 -111 74 -144 17 -17 40 -43 51
-58 11 -15 25 -27 31 -27 6 0 16 -10 22 -22 8 -18 11 -19 11 -5 1 19 31 24 31
5 0 -19 15 -39 31 -41 8 -2 20 -6 28 -11 10 -7 12 -3 6 15 -4 16 -3 20 3 11
12 -17 59 -42 66 -34 10 9 7 24 -4 17 -15 -9 -30 4 -24 20 4 10 15 12 35 8 22
-4 29 -2 29 11 0 9 7 16 15 16 8 0 15 7 15 15 0 8 7 15 15 15 8 0 15 7 15 15
0 10 10 15 28 15 30 0 125 -31 130 -42 5 -11 22 -10 22 0 0 5 -11 15 -25 22
-29 16 -25 24 13 25 16 0 30 8 37 20 21 41 94 141 123 168 28 27 30 27 35 8 3
-12 -1 -42 -9 -68 -18 -59 -17 -80 1 -30 8 21 26 52 40 69 14 16 22 35 19 40
-4 6 -2 8 3 5 17 -11 36 20 29 48 -9 35 -21 31 -44 -15 l-19 -39 -12 25 c-6
14 -11 52 -11 85 0 62 -13 170 -31 249 -5 25 -10 93 -11 151 -1 93 2 113 26
173 28 69 96 323 96 357 0 17 5 18 40 13 21 -4 50 -4 63 0 32 8 81 84 112 175
13 40 34 89 46 108 26 41 27 90 4 166 -15 49 -39 87 -57 87 -5 0 -22 10 -38
22 -45 33 -47 58 -15 223 2 11 4 28 4 37 1 11 6 15 16 12 12 -5 15 6 17 62 0
38 1 84 2 101 1 18 -4 33 -10 33 -7 0 -11 42 -12 121 -1 112 -12 178 -33 204
-15 20 29 14 46 -5 10 -11 21 -17 25 -15 8 5 27 -59 34 -115 2 -19 3 -3 1 35
-3 68 -14 100 -59 168 -10 15 -26 26 -35 25 -8 -2 -16 2 -16 8 0 14 -31 45
-38 37 -3 -3 -9 8 -13 23 -8 35 -76 166 -105 202 -18 23 -48 47 -101 78 -16 9
-16 13 -4 23 11 9 22 8 50 -6 20 -9 36 -22 36 -30 0 -7 6 -10 13 -7 8 3 25
-12 40 -33 24 -34 27 -35 27 -14 0 21 -68 100 -88 101 -4 0 -15 7 -26 15 -17
13 -17 15 -2 31 9 9 14 19 11 22 -3 4 -9 2 -13 -4 -10 -16 -45 -32 -59 -27 -7
3 -13 14 -13 26 0 18 -2 19 -11 7 -8 -11 -12 -12 -16 -2 -2 6 -9 12 -14 12 -6
0 -8 -4 -4 -10 3 -5 -7 -8 -24 -7 -26 2 -31 7 -40 42 -9 34 -8 42 6 53 10 7
22 11 28 9 5 -2 17 3 25 11 11 12 12 16 2 20 -6 2 -12 10 -12 19 0 8 -7 22
-16 31 -15 14 -14 17 10 35 28 20 34 42 14 50 -7 3 -3 6 10 6 28 1 30 31 2 31
-11 0 -20 -5 -20 -12 0 -9 -3 -9 -11 -1 -17 17 0 35 27 29 28 -8 64 9 64 29 0
7 5 15 12 17 7 3 9 11 3 24 -7 17 -8 17 -12 2 -6 -26 -22 -22 -29 6 l-6 25
-259 1 c-228 0 -258 -1 -253 -15 4 -8 1 -15 -5 -15 -6 0 -11 7 -11 15 0 19
-46 20 -66 1 -8 -8 -14 -18 -14 -22 0 -5 5 -3 12 4 7 7 15 12 19 12 10 0 29
-57 22 -64 -10 -10 -53 -7 -53 4 0 6 -5 10 -10 10 -6 0 -5 -8 2 -20 7 -11 16
-20 21 -20 13 0 57 -52 52 -60 -3 -5 -18 -11 -33 -15 -15 -3 -32 -16 -39 -30
-10 -23 -9 -25 13 -25 29 0 41 -24 24 -45 -7 -9 -10 -19 -6 -22 6 -7 -38 -35
-77 -49 -23 -9 -16 -30 9 -26 14 3 16 1 8 -8 -9 -9 -22 -6 -54 10 -33 17 -40
24 -29 32 10 7 8 8 -7 3 -12 -3 -39 0 -61 8 -21 7 -60 13 -86 12 -34 -1 -47 2
-47 12 0 7 5 13 10 13 6 0 10 10 10 23 0 13 3 27 7 31 13 13 8 51 -7 57 -11 5
-8 10 13 18 30 12 34 28 12 57 -21 27 -19 56 3 52 11 -3 16 -12 15 -26 -2 -12
2 -22 7 -22 14 0 12 77 -2 86 -8 5 -6 10 8 15 10 4 -74 8 -188 8 -156 1 -208
-2 -211 -11 -4 -10 -8 -9 -17 2 -9 12 -10 11 -5 -7 8 -29 -21 -32 -30 -3 -6
19 -22 19 -1176 20 l-1169 0 0 -570z m2390 410 c0 -5 -4 -10 -8 -10 -5 0 -7
-14 -4 -30 3 -21 -2 -37 -14 -51 -14 -16 -16 -22 -5 -28 8 -5 11 -17 6 -30 -4
-14 -2 -21 7 -21 7 0 -4 -16 -24 -35 -20 -19 -41 -35 -47 -35 -14 0 -14 -27
-1 -35 6 -3 10 1 10 9 0 13 12 16 56 16 40 0 55 -4 52 -12 -3 -7 -14 -14 -26
-16 -21 -3 -24 -11 -24 -47 0 -37 4 -44 31 -58 25 -12 29 -12 38 1 8 13 10 14
15 1 3 -8 -9 -28 -29 -47 -26 -25 -35 -29 -39 -17 -6 15 -64 22 -64 7 0 -4 7
-18 16 -30 9 -13 13 -31 9 -42 -5 -17 -2 -20 20 -20 16 0 24 -4 20 -10 -4 -7
-37 -9 -83 -7 -73 3 -79 2 -127 -30 -27 -18 -53 -33 -57 -33 -13 0 19 167 34
176 4 3 8 0 8 -7 0 -7 2 -10 5 -7 11 11 -8 38 -26 38 -27 0 -24 9 14 41 17 16
26 28 20 29 -7 0 -13 7 -13 15 0 9 -7 18 -15 21 -12 5 -13 10 -4 20 6 8 9 21
5 30 -5 12 -1 14 16 9 19 -7 21 -5 15 28 -4 25 -1 37 9 41 23 9 17 55 -8 67
-18 7 -14 8 20 4 32 -4 42 -2 42 9 0 10 11 12 45 8 l45 -5 1 37 c1 20 3 41 4
46 1 6 3 12 4 15 2 10 51 5 51 -5z m-380 -125 c0 -9 10 -20 23 -25 16 -6 17
-9 5 -9 -22 -1 -34 -21 -18 -31 19 -12 25 -152 29 -632 0 -138 5 -218 11 -218
6 0 10 24 10 54 0 82 11 146 25 146 21 0 103 -86 102 -106 -1 -10 5 -19 13
-19 21 0 24 -39 4 -59 -14 -15 -15 -21 -4 -41 7 -13 23 -26 36 -29 25 -7 31
-20 14 -31 -15 -10 -12 -25 4 -19 11 4 16 -6 21 -40 4 -26 13 -50 20 -54 6 -4
15 -22 18 -40 4 -18 15 -41 25 -52 23 -25 40 -80 43 -140 2 -25 8 -58 15 -75
7 -16 15 -56 19 -87 l7 -57 -36 -6 c-47 -9 -76 -56 -83 -134 -6 -60 3 -86 67
-201 10 -19 29 -59 41 -87 12 -30 38 -68 60 -88 33 -29 36 -36 22 -43 -13 -8
-9 -12 20 -21 34 -12 35 -13 22 -38 -8 -16 -12 -42 -8 -69 4 -35 2 -45 -11
-50 -9 -4 -29 -17 -44 -31 -25 -21 -27 -28 -22 -71 3 -29 10 -46 18 -44 16 3
15 -3 -2 -21 -25 -24 -24 -52 2 -55 28 -4 24 -23 -6 -37 -12 -5 -22 -18 -22
-27 0 -10 -5 -18 -11 -18 -6 0 -9 -10 -7 -22 2 -15 11 -24 26 -26 32 -5 22
-26 -14 -31 l-29 -4 29 -6 c28 -6 29 -7 12 -24 -12 -11 -26 -16 -40 -12 -17 5
-18 4 -6 -4 9 -7 10 -11 3 -11 -6 0 -29 -10 -50 -22 -52 -31 -127 -62 -258
-108 -60 -21 -141 -49 -180 -63 -90 -32 -256 -67 -319 -67 -27 0 -47 3 -43 6
3 3 -1 24 -9 46 -8 22 -13 59 -12 82 3 33 0 41 -14 40 -10 -1 -14 4 -11 12 3
8 9 14 13 14 9 0 24 70 16 78 -3 3 -14 6 -24 7 -9 0 -23 4 -30 9 -8 5 -12 1
-12 -11 -1 -10 -2 -54 -4 -98 -2 -44 -4 -115 -5 -158 -1 -63 -4 -79 -18 -84
-89 -34 -389 -340 -441 -451 -13 -26 -21 -33 -39 -29 -24 4 -25 4 -28 -56 -2
-40 -42 -137 -57 -137 -4 0 -8 -4 -8 -10 0 -5 -9 -24 -20 -42 l-20 -33 6 34
c7 32 6 33 -15 22 -32 -17 -25 2 10 28 25 19 28 25 18 38 -10 11 -10 19 -1 34
10 16 9 19 -5 19 -20 0 -53 28 -53 45 0 7 8 16 18 20 14 6 12 9 -13 20 -16 7
-24 14 -18 14 7 1 12 4 10 9 -1 4 8 17 21 30 28 28 28 79 0 74 -11 -2 -18 3
-18 13 0 9 10 15 28 16 22 1 23 3 5 6 -12 2 -39 -7 -62 -21 -47 -30 -51 -31
-51 -11 0 8 11 17 25 21 28 7 44 47 26 68 -6 7 -8 16 -4 20 4 4 0 4 -9 1 -15
-6 -15 -4 -5 19 7 14 15 26 18 26 11 0 49 37 43 42 -3 3 -6 20 -6 37 -1 24 -4
29 -14 20 -7 -6 -22 -8 -34 -4 -16 5 -20 15 -20 49 0 23 -5 47 -12 54 -7 7 -8
12 -2 12 17 0 65 96 58 114 -5 13 -9 14 -21 4 -11 -9 -19 -9 -35 1 -15 9 -23
10 -31 2 -18 -18 -29 -13 -25 11 2 15 11 24 26 26 13 2 22 10 22 22 0 10 8 21
18 25 16 6 16 7 0 16 -12 6 -18 22 -18 44 0 18 -6 35 -12 38 -9 3 -3 13 15 28
42 38 33 64 -13 39 -24 -13 -102 -2 -97 14 2 6 13 16 24 21 38 19 54 38 50 57
-6 21 13 24 32 6 10 -11 15 -9 27 6 19 27 18 35 -6 29 -11 -3 -20 0 -20 6 0 6
-7 11 -15 11 -8 0 -15 5 -15 11 0 5 8 9 18 7 9 -1 18 2 20 7 1 6 -4 10 -10 10
-22 0 -19 30 3 40 12 6 22 15 23 20 2 14 -93 18 -110 4 -7 -6 -21 -8 -30 -5
-13 5 -14 9 -4 22 7 8 19 13 27 10 9 -4 13 4 13 28 0 40 33 77 52 58 7 -7 16
-12 20 -12 14 0 9 16 -14 40 l-22 23 23 18 c14 11 23 30 23 48 1 20 7 33 18
36 16 5 35 44 26 52 -2 2 -15 -6 -29 -17 -20 -16 -30 -18 -51 -10 -14 5 -26
13 -26 18 0 14 33 40 55 44 12 2 20 11 20 23 0 13 9 22 25 26 23 6 22 7 -7 8
-39 1 -41 10 -9 40 l24 22 -23 47 -22 46 20 28 c15 20 21 47 24 100 2 49 8 77
18 84 13 10 13 13 0 24 -19 16 -20 80 -1 80 8 0 17 7 20 16 9 24 7 36 -5 28
-22 -13 -26 19 -7 58 14 28 17 48 12 71 -9 38 -6 70 8 78 5 3 8 19 6 35 -3 26
-7 29 -33 26 -17 -2 -25 1 -19 5 20 15 63 86 58 95 -3 5 2 18 11 28 11 12 13
20 5 25 -8 5 -8 11 1 21 6 8 9 17 5 21 -3 3 1 17 9 30 15 22 14 23 -6 23 -21
0 -22 1 -4 20 15 16 15 22 5 35 -10 13 -9 15 11 16 18 1 19 2 6 6 -14 4 -16 8
-6 19 6 8 9 24 6 35 -3 13 0 28 9 36 13 14 13 17 -1 32 -18 20 -20 41 -4 41 6
0 8 7 5 16 -4 9 0 27 8 39 8 12 16 32 18 46 4 30 23 27 24 -3 3 -46 17 -747
18 -890 1 -80 4 -149 7 -153 14 -13 29 83 18 112 -7 19 -7 29 0 31 14 5 14 49
0 58 -7 4 -8 18 -4 38 4 17 9 60 11 96 5 85 30 182 51 198 15 11 14 12 -9 12
-25 0 -26 2 -24 48 1 27 9 59 18 71 9 12 14 31 11 42 -3 10 0 19 6 19 6 0 11
10 11 23 0 13 5 28 12 35 9 9 7 13 -7 18 -12 5 -23 0 -36 -17 -10 -13 -19 -22
-20 -19 -9 45 3 69 41 83 10 4 9 6 -6 6 -31 1 -35 10 -13 32 13 13 18 27 14
40 -5 14 -2 19 12 19 17 1 17 1 0 14 -17 13 -17 15 10 28 20 10 29 21 30 43 5
62 16 105 29 116 8 6 14 17 14 24 0 8 6 16 13 18 9 4 9 8 -2 15 -11 8 -9 11 8
17 26 8 28 25 3 25 -36 0 -32 15 18 62 43 40 50 51 44 74 -5 19 -11 24 -25 21
-23 -6 -25 6 -4 23 8 7 15 25 15 41 0 20 4 27 14 23 8 -3 15 3 18 14 7 27 88
40 101 17 6 -11 17 -15 32 -11 29 7 40 -7 26 -33 -11 -19 -51 -19 -51 0 0 5
-5 9 -10 9 -6 0 -9 -3 -8 -7 1 -5 -3 -18 -10 -30 -12 -21 -11 -23 11 -23 12 0
29 6 36 13 7 6 12 8 11 2 -2 -5 -2 -26 -1 -45 1 -26 4 -31 13 -22 16 16 28 15
28 -3 0 -8 -9 -15 -20 -15 -11 0 -20 -4 -20 -10 0 -5 16 -10 35 -10 33 0 34
-1 29 -29 -4 -16 -1 -32 5 -35 19 -12 12 -26 -14 -26 -34 0 -33 -33 1 -67 20
-20 23 -28 12 -34 -11 -8 -11 -11 1 -18 8 -5 11 -16 8 -25 -4 -9 -2 -16 3 -16
5 0 8 -35 7 -80 -2 -67 0 -80 13 -80 18 0 20 -94 23 -974 2 -315 5 -430 14
-433 16 -6 28 18 14 27 -17 10 6 100 26 100 10 0 13 6 9 16 -4 10 1 25 10 35
14 16 14 19 -6 39 -19 19 -20 26 -11 47 6 13 11 43 11 66 0 24 6 49 12 55 10
10 10 17 1 31 -16 25 -4 35 18 15 10 -9 23 -13 28 -9 17 10 13 22 -9 28 -11 3
-19 11 -18 18 2 8 -7 15 -19 17 -13 2 -23 -1 -23 -6 0 -6 -7 -12 -15 -16 -10
-4 -15 1 -15 14 0 11 4 20 9 20 6 0 21 11 36 24 24 23 25 25 10 59 -21 51 -19
63 15 77 34 14 53 35 48 51 -3 8 -9 6 -20 -5 -9 -9 -19 -12 -22 -8 -3 5 6 14
19 20 27 13 34 42 10 42 -8 0 -15 5 -15 12 0 6 -8 4 -19 -6 -16 -15 -20 -15
-31 -1 -10 12 -9 16 6 22 23 8 43 33 44 53 0 21 34 40 59 33 26 -7 27 5 4 23
-23 17 -43 18 -43 2 0 -7 -14 -21 -30 -30 -39 -22 -38 -12 3 25 20 19 27 31
20 34 -22 8 -14 25 7 18 11 -4 20 -2 20 4 0 6 -4 11 -8 11 -11 0 -2 69 9 76 5
3 9 16 9 30 0 15 6 24 15 24 25 0 18 51 -12 82 l-26 27 24 38 c14 21 33 55 44
76 11 21 30 45 43 53 12 8 22 21 22 29 0 18 -5 19 -30 3 -28 -18 -38 0 -11 19
13 9 37 30 52 46 22 23 26 33 18 43 -9 11 -5 16 16 24 14 5 23 14 20 20 -3 5
3 20 14 32 12 12 21 27 21 34 0 15 -45 22 -82 12 -20 -5 -28 -3 -28 6 0 8 14
16 30 20 25 5 30 10 30 35 0 36 9 61 22 61 6 0 8 -7 4 -15 -4 -12 0 -14 20
-11 31 6 44 17 27 23 -19 7 -16 21 7 28 15 5 19 13 16 37 -1 16 -9 34 -17 39
-11 8 -8 14 14 33 24 19 26 24 13 29 -20 8 -21 41 -1 57 8 7 15 16 15 21 0 5
-7 6 -15 3 -9 -4 -15 0 -15 10 0 9 5 16 10 16 6 0 10 6 10 13 0 7 9 18 20 25
13 8 20 23 20 43 0 26 3 31 20 26 26 -7 27 19 1 33 -13 6 -17 17 -14 30 6 23
43 27 43 5z m600 -2208 c0 -7 16 -48 35 -92 23 -54 35 -95 35 -127 0 -42 -5
-52 -43 -92 -24 -26 -46 -46 -49 -46 -4 0 -5 37 -4 83 2 45 4 128 5 185 0 60
5 102 11 102 6 0 10 -6 10 -13z"/>
<path d="M1520 3154 c0 -13 -3 -14 -14 -5 -8 7 -17 8 -20 3 -10 -16 -6 -461 4
-467 6 -4 10 4 10 17 0 13 7 36 15 51 8 16 16 43 18 60 2 18 7 40 12 50 10 24
-12 49 -24 28 -7 -11 -10 -9 -16 9 -10 32 3 90 20 90 8 0 15 5 15 10 0 6 -7
10 -15 10 -17 0 -20 21 -4 37 15 15 25 123 10 123 -6 0 -11 -7 -11 -16z"/>
<path d="M4194 5623 c1 -18 -2 -33 -7 -33 -5 0 -4 -7 3 -15 10 -12 10 -22 -1
-47 -7 -18 -16 -35 -20 -38 -7 -5 -12 -27 -10 -47 1 -6 10 -9 23 -5 17 4 20 2
15 -12 -9 -22 9 -56 28 -56 8 0 15 -9 15 -21 0 -11 4 -18 9 -14 5 3 12 1 15
-4 3 -5 -3 -11 -14 -14 -21 -5 -28 -41 -10 -52 6 -4 8 -11 4 -16 -4 -6 -11 -6
-20 2 -11 9 -15 7 -21 -6 -4 -11 0 -22 11 -30 16 -12 18 -39 4 -61 -4 -6 2
-18 13 -27 18 -16 19 -16 19 1 -1 9 -5 36 -9 60 -9 43 2 60 13 20 13 -52 4
-144 -14 -133 -11 7 -19 -30 -10 -45 10 -15 21 -15 31 2 9 13 6 -42 -7 -134
-4 -32 -11 -48 -21 -48 -12 0 -12 -2 1 -15 34 -35 27 -84 -13 -86 -12 0 -11
-4 7 -16 13 -9 22 -26 22 -42 0 -20 -2 -23 -10 -11 -6 9 -10 10 -10 3 0 -6 5
-15 11 -19 6 -3 8 -17 4 -31 -4 -16 -2 -22 5 -18 6 4 10 -13 10 -48 0 -41 -5
-59 -22 -77 -12 -13 -17 -25 -12 -27 8 -3 8 -17 1 -50 -9 -39 -9 -47 6 -58 37
-27 9 -145 -34 -145 -7 0 -5 -6 7 -15 16 -13 17 -16 4 -26 -12 -9 -11 -10 8
-6 15 4 22 0 22 -10 0 -8 -4 -11 -10 -8 -6 4 -10 -8 -10 -29 0 -20 4 -36 10
-36 5 0 8 -20 7 -45 -1 -25 -6 -45 -11 -45 -5 0 -6 -14 -2 -31 3 -17 1 -50 -5
-72 -6 -28 -7 -57 -1 -83 6 -26 6 -62 0 -95 -5 -30 -9 -101 -8 -158 1 -74 -2
-106 -11 -112 -9 -5 -10 -11 -2 -21 11 -14 10 -42 -2 -243 -12 -193 -12 -215
-3 -215 4 0 8 12 9 28 1 40 7 147 19 317 19 292 80 1398 96 1768 4 81 10 147
13 147 3 0 7 73 8 163 1 89 5 188 8 220 l6 58 -80 -2 -80 -2 3 -34z"/>
<path d="M4727 5653 c-4 -3 -7 -15 -7 -25 0 -21 -4 -22 -32 -7 -19 10 -19 9
-13 -20 7 -32 -2 -40 -23 -19 -8 8 -12 9 -12 1 0 -6 6 -14 13 -17 10 -5 10 -7
0 -12 -7 -3 -13 -19 -13 -35 0 -23 4 -29 23 -29 18 0 19 2 7 10 -10 6 -11 10
-2 10 6 0 12 7 12 15 0 13 3 13 20 3 31 -20 24 -36 -20 -43 -34 -6 -40 -11
-40 -31 0 -17 6 -24 20 -24 17 0 20 -7 20 -51 0 -28 -4 -48 -9 -44 -15 9 -19
-8 -8 -35 5 -14 9 -33 8 -43 -1 -10 7 -21 21 -26 22 -8 20 -10 -24 -31 -48
-22 -57 -33 -38 -45 6 -3 10 -1 10 4 0 6 18 11 40 11 40 0 40 0 40 -39 0 -34
-4 -41 -29 -52 -27 -12 -51 -45 -51 -69 0 -5 16 -1 35 10 45 25 49 25 42 -2
-4 -12 -1 -28 5 -35 8 -11 7 -12 -6 -7 -9 3 -16 1 -16 -5 0 -6 -6 -11 -12 -11
-7 0 -18 -11 -24 -24 -10 -22 -9 -25 12 -30 13 -4 36 -3 51 0 20 5 25 4 21 -7
-3 -8 -11 -32 -18 -54 -6 -22 -18 -53 -26 -69 -10 -20 -12 -32 -4 -40 7 -7 10
-6 10 2 0 9 4 9 20 0 26 -16 33 -37 19 -54 -6 -7 -8 -23 -4 -36 7 -23 7 -23
-9 -3 -15 20 -15 20 -16 -3 0 -19 -4 -21 -25 -16 -20 5 -24 3 -19 -9 9 -24 35
-29 49 -10 10 14 11 8 5 -31 -5 -31 -14 -52 -28 -62 -12 -8 -22 -22 -22 -30 0
-8 -5 -14 -12 -14 -6 0 -9 -3 -6 -6 3 -3 15 0 25 7 34 21 58 -2 58 -55 0 -30
-4 -46 -12 -46 -7 0 -10 7 -7 18 5 14 4 14 -4 3 -8 -11 -14 -12 -24 -3 -11 9
-14 7 -15 -8 -2 -19 22 -34 37 -25 14 8 21 -12 14 -39 -3 -14 -11 -23 -18 -20
-8 3 -13 -8 -14 -31 -3 -34 11 -48 22 -22 3 6 3 1 0 -11 -5 -21 -3 -23 17 -17
l22 7 -23 -33 c-16 -22 -20 -34 -12 -37 14 -4 16 -32 2 -32 -5 0 -10 -4 -10
-10 0 -5 7 -7 15 -4 9 4 15 0 15 -9 0 -8 -7 -20 -15 -27 -8 -7 -15 -9 -15 -5
0 4 -7 2 -14 -5 -11 -8 -12 -18 -6 -35 5 -13 6 -26 3 -29 -4 -3 -2 -6 3 -6 13
0 14 -54 1 -62 -8 -5 -6 -13 6 -26 22 -24 22 -48 0 -56 -14 -6 -15 -9 -4 -15
10 -7 10 -12 0 -29 -10 -17 -10 -28 1 -63 11 -33 12 -43 2 -47 -17 -5 -15 -22
3 -22 20 0 19 -6 -7 -48 -17 -28 -19 -38 -10 -53 7 -10 12 -28 12 -39 0 -12 4
-18 10 -15 11 7 6 -12 -16 -62 -10 -23 -12 -43 -6 -70 10 -42 -2 -83 -25 -83
-7 0 -13 -4 -13 -10 0 -5 6 -10 14 -10 20 0 29 -34 22 -75 -4 -18 -2 -52 3
-75 8 -36 6 -44 -12 -60 -22 -22 -30 -80 -9 -80 6 0 12 -7 12 -15 0 -8 -7 -15
-15 -15 -8 0 -15 -7 -15 -15 0 -8 -4 -15 -10 -15 -5 0 -10 -5 -10 -11 0 -7 10
-9 25 -7 24 5 25 3 25 -38 0 -42 -19 -74 -43 -74 -9 0 -9 -2 0 -8 16 -10 18
-30 9 -80 -5 -28 -4 -47 4 -57 8 -10 8 -19 1 -34 -14 -25 -14 -41 -1 -21 7 11
10 3 10 -28 0 -24 -4 -41 -8 -38 -5 3 -6 -8 -4 -25 3 -17 0 -29 -7 -29 -6 0
-11 -7 -11 -15 0 -8 -5 -15 -11 -15 -6 0 -9 -6 -6 -12 2 -7 9 -12 15 -11 12 3
-3 -52 -21 -75 -7 -9 -4 -12 12 -12 30 0 28 -47 -4 -90 -14 -19 -25 -28 -25
-21 0 7 -8 3 -18 -9 l-18 -23 -80 36 c-88 39 -196 85 -234 98 l-25 9 25 -20
c14 -11 28 -20 32 -20 4 0 67 -28 140 -61 108 -50 267 -119 272 -119 0 0 2 55
3 123 3 145 49 938 83 1417 12 174 46 735 60 985 5 99 12 214 15 255 13 192
25 412 25 478 0 39 4 72 9 72 5 0 6 29 3 66 -3 36 0 75 6 87 28 58 29 57 -72
57 -51 0 -96 -3 -99 -7z"/>
<path d="M5040 5655 c0 -3 7 -22 15 -42 19 -45 19 -46 -5 -40 -11 3 -20 1 -20
-3 0 -16 21 -22 35 -10 8 6 23 9 34 5 15 -4 21 -1 24 17 4 21 4 21 6 -3 0 -15
-8 -38 -19 -52 -11 -14 -17 -32 -14 -41 3 -9 1 -16 -5 -16 -25 0 -51 -40 -51
-78 0 -31 5 -41 25 -52 20 -11 27 -11 40 0 13 10 15 9 15 -6 0 -11 -8 -24 -18
-30 -9 -6 -28 -42 -41 -80 -14 -38 -29 -72 -35 -76 -6 -4 -7 -10 -3 -15 5 -4
12 -1 16 6 5 8 17 11 28 7 25 -8 50 1 57 20 3 9 1 12 -4 9 -6 -3 -10 0 -10 8
0 16 31 47 48 47 16 0 15 -17 0 -24 -10 -5 -10 -7 0 -12 21 -10 13 -40 -13
-52 -14 -6 -25 -18 -25 -27 0 -18 -12 -19 -27 -4 -12 12 -33 4 -33 -12 0 -5 5
-9 12 -9 6 0 20 -7 30 -17 16 -14 18 -14 18 -1 0 16 20 28 47 28 11 0 10 -6
-6 -26 -12 -15 -21 -37 -21 -50 0 -18 -6 -24 -21 -24 -12 0 -23 -8 -26 -20 -3
-13 -14 -20 -28 -20 -34 0 -51 -25 -31 -46 17 -16 46 -13 46 6 0 5 7 10 15 10
7 0 18 6 22 13 4 6 25 12 46 12 28 0 37 -4 37 -17 0 -13 -11 -20 -40 -24 -24
-4 -40 -12 -40 -20 0 -8 -4 -14 -8 -14 -7 0 -42 -63 -42 -75 0 -11 25 -4 43
13 15 12 21 14 24 5 3 -7 13 -13 24 -13 20 0 26 -15 9 -25 -5 -3 -7 -12 -3
-20 4 -11 -2 -15 -21 -15 -15 0 -26 -6 -26 -14 0 -7 -9 -16 -20 -19 -11 -3
-20 -10 -20 -16 0 -15 37 -14 43 2 2 6 8 0 12 -15 9 -35 1 -46 -27 -41 -13 2
-34 0 -48 -5 -23 -9 -22 -10 18 -17 45 -7 58 -25 19 -25 -13 0 -32 -10 -43
-21 l-19 -22 51 5 52 5 -19 -34 c-10 -18 -19 -43 -19 -54 0 -13 -10 -24 -30
-30 -16 -6 -30 -14 -30 -18 0 -4 14 -6 30 -3 23 3 30 0 30 -12 0 -9 -6 -16
-14 -16 -8 0 -18 -9 -21 -20 -3 -11 -11 -20 -16 -20 -5 0 -9 -6 -9 -13 0 -7
-9 -18 -20 -25 -11 -7 -20 -17 -20 -22 0 -14 27 -12 33 3 4 9 6 9 6 -2 1 -8 8
-4 20 10 17 21 22 22 40 11 18 -10 21 -10 21 3 0 9 9 15 22 15 21 0 21 0 3
-20 -14 -15 -18 -33 -16 -64 1 -29 -3 -47 -13 -55 -36 -30 -1 -71 59 -71 14 0
25 -4 25 -10 0 -5 -4 -10 -9 -10 -5 0 -13 -9 -16 -20 -4 -13 -15 -20 -31 -20
-19 0 -24 -5 -24 -24 0 -16 -12 -34 -32 -50 -34 -26 -33 -28 25 -40 32 -8 35
-21 6 -29 -12 -3 -18 -10 -15 -16 4 -6 13 -8 20 -5 7 3 18 -1 24 -9 9 -11 8
-18 -8 -32 -24 -22 -26 -35 -5 -35 25 0 17 -18 -15 -35 -34 -17 -40 -48 -12
-64 14 -9 14 -12 3 -20 -9 -6 -10 -10 -2 -16 7 -3 9 -15 6 -26 -4 -11 -2 -19
5 -19 6 0 20 -9 32 -20 20 -18 20 -22 8 -47 -14 -28 -52 -67 -79 -83 -9 -5
-11 -14 -7 -26 7 -18 9 -17 29 6 22 25 117 56 117 39 0 -5 -6 -9 -14 -9 -8 0
-24 -12 -35 -26 -13 -16 -27 -24 -36 -20 -10 4 -15 -1 -15 -14 0 -11 -4 -20
-10 -20 -5 0 -10 -7 -10 -15 0 -8 5 -15 10 -15 6 0 10 -11 10 -25 0 -22 2 -24
20 -13 10 7 22 9 25 6 12 -11 -18 -78 -47 -106 -15 -15 -28 -32 -28 -39 0 -7
-10 -22 -23 -35 -37 -37 -41 -58 -12 -58 14 0 25 -5 25 -10 0 -18 52 -33 61
-18 4 7 12 9 16 4 4 -4 -5 -18 -21 -31 -29 -23 -29 -23 -6 -27 21 -3 20 -6
-24 -48 -50 -48 -62 -90 -26 -90 12 0 20 7 20 16 0 22 25 44 49 44 22 0 28
-14 11 -25 -6 -4 -8 -11 -4 -16 3 -5 -8 -14 -25 -20 -17 -6 -31 -17 -31 -25 0
-8 -4 -14 -10 -14 -5 0 -10 -5 -10 -11 0 -8 14 -10 41 -6 38 5 40 4 20 -9 -12
-8 -21 -24 -21 -35 0 -10 -5 -19 -12 -19 -9 0 -9 -3 0 -12 9 -9 8 -16 -4 -29
-15 -17 -15 -20 5 -45 12 -15 21 -32 21 -38 0 -6 -4 -5 -9 3 -14 22 -61 -2
-61 -30 0 -18 4 -20 27 -14 15 3 31 12 35 18 5 7 8 2 8 -13 0 -23 -34 -57 -52
-52 -4 1 -11 -11 -15 -26 -9 -32 -51 -86 -74 -95 -8 -3 -2 -6 13 -6 15 -1 30
4 33 9 3 6 19 10 36 10 26 0 29 -3 29 -30 0 -16 4 -30 10 -30 5 0 9 -10 7 -22
-2 -23 -20 -38 -69 -59 -28 -11 -37 -32 -18 -44 15 -10 12 -35 -5 -35 -8 0
-15 -4 -15 -10 0 -5 6 -10 14 -10 11 0 26 -20 26 -34 0 -1 -10 -2 -22 -3 -20
-2 -88 -62 -88 -78 0 -3 9 -3 20 0 12 4 20 2 20 -5 0 -6 6 -10 13 -7 6 2 11
11 9 20 -1 9 6 25 18 37 11 11 20 15 20 8 0 -7 5 -6 13 4 14 19 74 31 82 18 4
-6 0 -13 -8 -16 -8 -3 -29 -25 -46 -50 -18 -24 -36 -42 -41 -39 -11 7 -44 -45
-47 -75 -1 -13 -9 -30 -18 -36 -23 -17 -20 -64 5 -64 11 0 20 4 20 9 0 4 12
21 26 37 15 16 22 30 16 32 -6 2 1 14 16 27 33 28 48 13 31 -31 -5 -16 -7 -39
-4 -52 4 -18 -1 -30 -20 -48 -14 -13 -30 -24 -34 -24 -12 0 -21 -39 -11 -45 5
-3 10 -2 13 2 2 5 2 2 0 -5 -1 -7 12 -41 31 -75 18 -34 37 -73 41 -87 14 -44
55 -130 63 -130 5 0 14 87 21 193 6 105 16 242 21 302 5 61 12 155 15 210 3
55 7 118 9 140 2 22 7 85 10 140 8 126 24 351 36 520 6 72 15 211 20 310 6 99
12 194 15 210 5 26 20 254 30 445 4 86 14 228 22 310 4 41 8 104 8 140 3 125
5 151 13 147 4 -3 7 43 7 101 0 108 6 221 26 517 7 88 11 177 11 198 -1 21 3
35 9 32 16 -10 22 25 9 50 -11 20 -11 27 0 40 7 8 19 15 27 15 11 0 13 -10 8
-50 -7 -57 0 -77 20 -60 9 8 15 8 20 0 9 -14 -5 -32 -20 -26 -16 6 -28 -37
-29 -109 -1 -27 -5 -56 -10 -63 -10 -17 11 -42 35 -42 11 0 19 -6 19 -13 0
-21 -12 -28 -26 -16 -14 11 -34 4 -34 -12 0 -5 8 -9 17 -7 27 5 28 -31 2 -40
-18 -7 -23 -17 -25 -50 -1 -23 1 -44 6 -47 4 -2 5 -17 2 -31 -5 -25 -3 -27 25
-21 41 8 62 -6 40 -27 -8 -9 -23 -16 -32 -16 -11 0 -15 -7 -13 -22 2 -16 9
-22 21 -20 9 2 17 -2 17 -8 0 -5 -7 -10 -16 -10 -10 0 -13 -6 -10 -18 4 -11
-5 -29 -23 -50 -16 -17 -32 -42 -36 -54 -5 -18 -4 -20 4 -8 14 20 14 4 0 -21
-14 -26 -3 -56 22 -62 21 -6 21 -6 -2 -49 -13 -24 -27 -44 -31 -46 -3 -2 -3
-15 1 -30 9 -31 4 -55 -10 -46 -5 3 -9 1 -9 -4 0 -6 7 -12 15 -16 8 -3 15 -1
15 4 0 19 28 10 33 -12 6 -22 -17 -78 -32 -78 -20 0 -20 -34 0 -61 11 -16 16
-29 10 -29 -6 0 -11 -7 -11 -15 0 -8 -4 -15 -10 -15 -14 0 -12 -27 3 -33 10
-4 10 -6 0 -6 -18 -1 -16 -31 2 -31 8 0 30 9 49 19 19 11 37 17 40 14 3 -4 6
-2 6 3 0 6 -5 15 -11 21 -7 7 -2 17 21 33 29 21 33 21 48 6 15 -15 15 -17 -3
-31 -15 -11 -17 -17 -8 -23 9 -6 3 -13 -18 -26 -23 -14 -33 -15 -39 -7 -5 8
-17 0 -38 -24 -18 -20 -32 -38 -32 -40 0 -3 14 -11 30 -20 41 -21 38 -37 -15
-71 -26 -16 -43 -34 -41 -41 3 -7 2 -13 -3 -13 -5 0 -11 -9 -14 -21 -6 -22 24
-42 31 -21 2 7 8 10 13 6 5 -3 12 3 16 13 4 10 11 21 17 25 7 5 4 8 -6 8 -10
0 -18 5 -18 10 0 6 5 10 12 10 6 0 19 7 29 16 17 15 20 14 49 -15 36 -35 36
-64 1 -69 -13 -2 -35 -15 -50 -28 -14 -13 -34 -24 -45 -24 -15 0 -16 -3 -6
-15 7 -8 19 -15 26 -15 24 0 15 -28 -11 -34 -18 -5 -25 -13 -25 -31 0 -14 -6
-25 -13 -25 -17 0 -38 -36 -31 -55 7 -16 27 -17 24 -1 -2 12 21 26 43 26 9 0
26 9 37 20 14 14 33 20 61 20 l42 0 -27 -21 c-15 -12 -26 -30 -26 -44 0 -13
-8 -29 -17 -34 -17 -10 -17 -12 0 -25 16 -13 14 -18 -35 -67 -29 -30 -61 -66
-70 -81 -15 -23 -15 -28 -3 -38 11 -9 15 -9 15 -1 0 19 17 12 23 -9 3 -11 12
-20 21 -20 20 0 20 10 2 35 -16 22 -2 55 23 55 8 0 22 7 32 16 10 9 25 14 34
11 21 -9 19 -27 -4 -27 -25 0 -38 -20 -20 -30 15 -10 21 -40 8 -40 -5 0 -9 -6
-9 -13 0 -7 -12 -32 -27 -55 -21 -32 -30 -39 -40 -30 -24 20 -36 -5 -24 -48 9
-32 8 -41 -4 -50 -14 -10 -13 -12 2 -19 17 -6 17 -7 0 -20 -16 -12 -15 -14 15
-25 32 -11 32 -12 11 -21 -13 -4 -23 -12 -23 -17 0 -5 -11 -14 -25 -20 -29
-13 -33 -37 -8 -50 10 -6 14 -16 10 -26 -5 -12 0 -16 19 -16 37 0 64 18 64 42
0 21 0 21 14 3 15 -21 4 -61 -14 -50 -9 5 -60 -50 -60 -66 0 -5 -12 -14 -27
-20 -27 -11 -27 -11 -7 -19 12 -5 25 -13 28 -18 9 -14 -17 -60 -36 -66 -23 -5
-23 -38 0 -52 19 -12 62 -1 62 16 0 5 9 10 20 10 14 0 20 -7 20 -21 0 -11 -4
-18 -10 -14 -5 3 -35 -11 -66 -32 l-56 -37 23 -19 c19 -15 25 -16 27 -6 2 12
45 39 63 39 3 0 4 -11 1 -25 -2 -14 -9 -25 -14 -25 -5 0 -7 -4 -3 -9 3 -5 7
-24 9 -41 2 -22 -1 -33 -13 -38 -20 -7 -71 -54 -71 -65 0 -5 14 -6 30 -2 17 4
30 4 30 1 0 -3 -13 -12 -30 -21 -16 -9 -30 -22 -30 -31 0 -22 28 -29 48 -12
24 22 45 12 31 -13 -6 -13 -19 -19 -33 -17 -13 1 -34 -8 -51 -25 -28 -25 -29
-27 -11 -40 18 -13 18 -14 -7 -21 -20 -5 -27 -13 -27 -31 0 -14 5 -25 10 -25
6 0 10 -7 10 -16 0 -11 -6 -13 -19 -9 -15 4 -19 1 -17 -12 4 -23 20 -27 39 -8
9 8 24 15 34 15 10 0 31 7 47 15 35 18 36 18 36 0 0 -8 -15 -21 -32 -28 -35
-15 -68 -46 -65 -62 1 -5 -17 -22 -41 -38 -24 -16 -40 -32 -37 -35 3 -4 9 -2
13 4 4 6 27 11 52 13 25 1 47 6 48 12 5 12 32 12 32 -1 0 -6 -13 -13 -29 -16
-29 -6 -112 -78 -131 -115 -10 -17 -7 -19 25 -19 36 0 45 5 91 48 30 27 36 27
52 2 11 -18 10 -20 -11 -20 -13 0 -37 -11 -53 -25 -16 -14 -32 -25 -36 -25 -3
0 -22 -16 -42 -36 -20 -20 -42 -34 -50 -31 -10 4 -13 -2 -12 -19 0 -14 7 -24
17 -24 28 0 69 25 69 43 0 10 8 17 19 17 32 0 14 -50 -23 -65 -18 -8 -38 -26
-46 -42 -8 -15 -17 -30 -20 -33 -12 -12 -31 -52 -26 -57 2 -3 17 2 33 10 15 8
42 21 60 27 39 15 57 35 58 64 0 14 7 22 23 24 12 2 22 -1 22 -7 0 -6 -5 -11
-11 -11 -7 0 -8 -11 -4 -30 6 -25 4 -30 -13 -30 -11 0 -45 -20 -75 -45 -31
-25 -60 -45 -66 -45 -6 0 -11 -4 -11 -10 0 -5 -11 -12 -25 -16 -14 -3 -25 -13
-25 -21 0 -8 6 -12 13 -9 41 17 88 28 94 23 8 -9 -36 -57 -62 -67 -18 -8 -17
-9 8 -9 30 -1 34 -12 12 -35 -8 -8 -15 -24 -15 -35 0 -11 -11 -28 -25 -39 -30
-24 -31 -46 -5 -90 11 -18 20 -37 20 -44 0 -6 9 -26 21 -45 16 -26 24 -31 34
-23 19 16 29 -5 11 -23 -12 -12 -13 -20 -2 -52 7 -20 17 -40 23 -44 5 -3 19
-37 32 -76 12 -38 35 -106 51 -150 16 -44 48 -141 70 -215 23 -74 46 -143 51
-152 5 -10 9 -25 9 -33 0 -8 4 -15 9 -15 4 0 16 -33 26 -72 9 -40 23 -88 31
-107 8 -18 14 -44 14 -57 0 -12 6 -29 13 -36 32 -34 48 -69 38 -86 -8 -12 -10
-13 -11 -3 0 11 -6 9 -22 -6 -13 -12 -42 -26 -65 -32 -23 -7 -66 -23 -95 -37
-48 -23 -50 -25 -18 -20 19 3 48 9 64 12 28 7 29 6 24 -25 l-5 -31 289 0 288
0 0 2830 0 2831 -327 -3 -328 -3 -10 -50 c-12 -55 -23 -50 -27 13 l-3 42 -152
0 c-112 0 -153 -3 -156 -12 -4 -10 -6 -10 -6 0 -1 8 -18 12 -51 12 -27 0 -50
-2 -50 -5z m902 -1271 c11 -3 17 -9 12 -13 -11 -8 -34 -48 -34 -60 0 -5 14
-14 30 -20 30 -10 38 -25 20 -36 -5 -3 -10 -14 -10 -25 0 -10 -11 -28 -25 -41
-13 -13 -24 -33 -24 -44 0 -19 1 -19 8 -1 7 19 8 18 23 -3 16 -22 15 -25 -7
-45 -13 -11 -26 -32 -29 -46 -3 -14 -3 -19 0 -11 5 10 8 10 14 1 5 -9 9 -9 14
-1 4 6 2 11 -3 11 -6 0 -11 3 -11 8 0 4 18 7 40 7 22 1 40 -3 40 -7 0 -4 -4
-8 -10 -8 -5 0 -10 -7 -10 -15 0 -7 -8 -18 -17 -24 -14 -8 -16 -14 -7 -28 13
-21 -2 -93 -20 -93 -25 0 -37 -40 -29 -103 4 -34 9 -55 11 -45 4 19 29 31 37
18 7 -12 -12 -60 -25 -60 -5 0 -10 -5 -10 -11 0 -6 -7 -17 -15 -25 -8 -9 -15
-29 -15 -45 0 -19 5 -29 15 -29 8 0 15 -4 15 -10 0 -5 9 -10 21 -10 15 0 19
-4 15 -16 -3 -9 -6 -20 -6 -25 0 -5 -7 -9 -15 -9 -20 0 -7 -30 14 -31 10 0 11
-2 4 -6 -21 -8 -15 -30 10 -38 22 -6 21 -7 -5 -17 -16 -5 -28 -14 -28 -19 0
-6 -4 -7 -10 -4 -5 3 -10 0 -10 -7 0 -7 -9 -31 -21 -52 -11 -21 -19 -39 -17
-41 10 -10 47 -8 61 4 9 7 25 10 34 7 15 -6 13 -11 -15 -32 -36 -29 -42 -54
-12 -54 11 0 20 -4 20 -10 0 -5 7 -10 15 -10 8 0 15 -4 15 -10 0 -5 -7 -10
-15 -10 -8 0 -15 -4 -15 -10 0 -5 -7 -10 -16 -10 -8 0 -29 -13 -47 -30 -18
-16 -38 -30 -44 -30 -15 0 -17 -16 -3 -25 6 -3 10 -18 10 -33 1 -27 1 -27 13
-5 9 16 16 20 27 13 17 -11 46 26 42 53 -4 24 18 21 53 -7 l29 -24 -34 -21
c-19 -11 -42 -21 -51 -21 -21 0 -49 -32 -33 -37 6 -2 20 -10 30 -17 18 -14 18
-15 -9 -27 -29 -13 -36 -29 -12 -29 8 0 15 -4 15 -9 0 -5 -8 -7 -18 -4 -21 5
-46 -20 -39 -39 2 -7 0 -23 -4 -36 -6 -16 -4 -27 9 -40 10 -10 21 -26 25 -35
7 -19 23 -22 32 -7 3 6 18 10 32 10 25 0 26 -1 8 -20 -10 -11 -26 -22 -37 -26
-13 -4 -18 -12 -15 -25 3 -10 1 -17 -3 -14 -5 3 -15 -4 -23 -16 -13 -17 -19
-19 -36 -10 -18 10 -21 8 -27 -14 -3 -14 -4 -32 0 -40 3 -8 0 -15 -6 -15 -6 0
-8 -3 -5 -7 4 -3 16 2 27 12 12 10 26 15 37 11 10 -4 13 -10 8 -14 -6 -4 -10
-27 -10 -52 0 -37 -4 -47 -22 -55 -13 -5 -23 -15 -23 -22 0 -6 -6 -13 -12 -16
-10 -4 -10 -7 0 -18 6 -7 12 -27 12 -43 l1 -31 19 23 c18 22 19 22 25 3 6 -20
-29 -66 -49 -66 -5 0 -11 -6 -13 -12 -3 -8 4 -13 18 -13 23 0 22 0 -5 -29 -24
-25 -26 -33 -19 -62 9 -31 12 -34 45 -31 36 3 36 3 29 -25 -5 -19 -14 -27 -26
-26 -10 1 -26 -8 -36 -20 -16 -20 -18 -20 -24 -5 -4 10 -11 15 -16 12 -12 -7
-11 -64 1 -64 6 0 10 -18 10 -40 0 -22 5 -40 10 -40 17 0 11 -26 -10 -45 -11
-10 -20 -24 -20 -32 0 -7 -4 -13 -10 -13 -5 0 -10 -9 -10 -20 0 -11 5 -20 10
-20 6 0 10 -4 10 -10 0 -5 -7 -10 -15 -10 -8 0 -15 -9 -15 -20 0 -11 5 -20 11
-20 5 0 8 4 5 9 -3 5 3 11 14 14 15 4 20 0 20 -14 0 -10 -4 -20 -10 -20 -5 -1
-14 -2 -20 -3 -5 0 -10 -5 -10 -11 0 -5 18 -11 40 -13 22 -2 40 -7 40 -12 0
-5 -6 -7 -13 -4 -7 2 -22 -4 -32 -16 -10 -11 -24 -20 -32 -20 -7 0 -13 -7 -13
-15 0 -8 -7 -15 -15 -15 -12 0 -14 -9 -11 -37 5 -48 16 -83 26 -83 4 0 10 -9
13 -20 3 -13 0 -20 -10 -20 -9 0 -13 -6 -10 -14 3 -8 0 -20 -8 -26 -8 -6 -15
-21 -17 -33 -2 -12 -10 -22 -18 -22 -8 0 -19 -4 -23 -10 -5 -5 -5 37 -1 95 4
58 8 125 9 150 8 153 17 278 25 365 10 95 31 363 50 635 5 69 16 215 25 325 9
110 25 324 36 475 10 151 25 347 31 435 8 106 16 164 25 173 7 7 13 19 13 25
0 7 -5 6 -11 -3 -7 -11 -9 20 -4 105 7 124 21 265 24 230 1 -11 6 -27 11 -35
7 -10 8 -3 5 25 -2 22 -2 32 1 23 3 -9 15 -20 26 -24z"/>
<path d="M1231 1992 c-1 -7 -6 -18 -11 -25 -23 -26 -83 -123 -110 -179 -16
-32 -36 -68 -45 -81 -8 -12 -15 -31 -15 -44 0 -12 -4 -24 -9 -28 -13 -7 -41
-64 -42 -84 0 -10 -2 -12 -6 -3 -11 28 -24 10 -17 -24 5 -27 4 -35 -5 -30 -7
5 -11 -2 -11 -18 0 -14 -4 -28 -10 -31 -5 -3 -9 -16 -9 -28 1 -31 -52 -171
-92 -242 -63 -110 -91 -185 -84 -226 9 -54 32 -40 45 29 6 32 27 88 46 126 19
37 34 76 34 86 0 26 21 80 31 80 5 0 9 -7 9 -16 0 -24 17 -7 23 23 26 145 180
555 217 578 15 9 71 126 66 138 -3 9 -5 8 -5 -1z"/>
<path d="M4696 483 c-10 -10 -7 -43 4 -43 6 0 10 -4 10 -10 0 -5 -5 -9 -12 -7
-17 3 -25 -56 -32 -251 l-6 -173 143 3 142 3 16 50 c14 43 26 86 43 157 3 9 8
38 12 65 4 26 11 51 17 54 6 4 -1 19 -17 35 -14 16 -26 34 -26 41 0 7 -5 13
-11 13 -6 0 -8 -9 -4 -20 4 -13 2 -20 -7 -20 -10 0 -9 -3 2 -10 10 -6 11 -10
3 -10 -7 0 -13 -4 -13 -10 0 -5 7 -10 15 -10 8 0 15 -4 15 -10 0 -5 -5 -10
-11 -10 -17 0 -35 -23 -43 -53 -3 -15 -17 -33 -31 -39 -28 -13 -39 -39 -30
-68 4 -11 2 -20 -4 -20 -5 0 -22 -11 -37 -25 -31 -29 -52 -31 -80 -9 -13 11
-15 17 -6 20 17 8 15 24 -2 24 -19 0 -30 99 -24 230 3 71 0 101 -8 104 -7 3
-15 2 -18 -1z"/>
</g>
</svg>
