<?xml version="1.0" standalone="no"?>
<!DOCTYPE svg PUBLIC "-//W3C//DTD SVG 20010904//EN"
 "http://www.w3.org/TR/2001/REC-SVG-20010904/DTD/svg10.dtd">
<svg version="1.0" xmlns="http://www.w3.org/2000/svg"
 width="248.000000pt" height="204.000000pt" viewBox="0 0 248.000000 204.000000"
 preserveAspectRatio="xMidYMid meet">
<metadata>
Created by potrace 1.15, written by Peter Selinger 2001-2017
</metadata>
<g transform="translate(0.000000,204.000000) scale(0.100000,-0.100000)"
fill="#000000" stroke="none">
<path d="M345 2026 c-130 -31 -233 -114 -292 -234 -38 -75 -38 -77 -38 -197 0
-117 1 -122 34 -190 85 -172 272 -272 458 -246 34 5 67 12 73 16 16 10 12 -1
-19 -63 -56 -111 -73 -178 -78 -312 -5 -107 -2 -138 16 -210 72 -284 272 -490
552 -566 88 -24 290 -24 378 0 271 74 483 286 552 553 42 165 20 374 -56 526
-26 52 -30 67 -17 62 9 -4 53 -9 98 -12 135 -9 253 37 345 134 203 214 145
570 -114 698 -40 20 -102 41 -140 47 -189 31 -379 -71 -465 -250 -30 -63 -35
-86 -39 -165 -3 -63 0 -107 10 -138 l14 -45 -76 32 c-197 85 -422 83 -616 -5
l-61 -28 13 51 c31 120 7 256 -63 362 -99 149 -292 223 -469 180z"/>
</g>
</svg>
